<svg width="32" height="32" viewBox="0 0 32 32" fill="none" xmlns="http://www.w3.org/2000/svg">
<rect width="32" height="32" rx="4" fill="#A1A1A1"/>
<g clip-path="url(#clip0_213_548)">
<path d="M16.4855 13.3708C16.6505 12.8758 17.3495 12.8758 17.5145 13.3708L18.482 16.2763C18.6949 16.915 19.0537 17.4954 19.5299 17.9713C20.0061 18.4472 20.5866 18.8057 21.2255 19.0183L24.1295 19.9858C24.6245 20.1508 24.6245 20.8498 24.1295 21.0148L21.224 21.9823C20.5853 22.1953 20.0049 22.5541 19.529 23.0303C19.053 23.5065 18.6946 24.087 18.482 24.7258L17.5145 27.6298C17.4789 27.7382 17.41 27.8326 17.3176 27.8995C17.2252 27.9664 17.114 28.0025 17 28.0025C16.8859 28.0025 16.7747 27.9664 16.6823 27.8995C16.5899 27.8326 16.521 27.7382 16.4855 27.6298L15.518 24.7243C15.3052 24.0858 14.9466 23.5056 14.4706 23.0296C13.9947 22.5537 13.4145 22.1951 12.776 21.9823L9.87046 21.0148C9.76207 20.9793 9.66768 20.9104 9.60076 20.818C9.53384 20.7256 9.49781 20.6144 9.49781 20.5003C9.49781 20.3863 9.53384 20.2751 9.60076 20.1827C9.66768 20.0903 9.76207 20.0214 9.87046 19.9858L12.776 19.0183C13.4145 18.8055 13.9947 18.447 14.4706 17.971C14.9466 17.4951 15.3052 16.9149 15.518 16.2763L16.4855 13.3708ZM10.691 5.72233C10.7125 5.65737 10.7539 5.60085 10.8094 5.56078C10.8648 5.52072 10.9315 5.49915 11 5.49915C11.0684 5.49915 11.1351 5.52072 11.1905 5.56078C11.246 5.60085 11.2874 5.65737 11.309 5.72233L11.8895 7.46533C12.149 8.24233 12.758 8.85133 13.535 9.11083L15.278 9.69133C15.3429 9.71284 15.3994 9.75428 15.4395 9.80975C15.4796 9.86522 15.5011 9.93191 15.5011 10.0003C15.5011 10.0688 15.4796 10.1354 15.4395 10.1909C15.3994 10.2464 15.3429 10.2878 15.278 10.3093L13.535 10.8898C13.1517 11.0175 12.8035 11.2327 12.5179 11.5183C12.2323 11.8039 12.0171 12.1521 11.8895 12.5353L11.309 14.2783C11.2874 14.3433 11.246 14.3998 11.1905 14.4399C11.1351 14.4799 11.0684 14.5015 11 14.5015C10.9315 14.5015 10.8648 14.4799 10.8094 14.4399C10.7539 14.3998 10.7125 14.3433 10.691 14.2783L10.1105 12.5353C9.98278 12.1521 9.76761 11.8039 9.482 11.5183C9.19638 11.2327 8.84817 11.0175 8.46496 10.8898L6.72196 10.3093C6.657 10.2878 6.60047 10.2464 6.56041 10.1909C6.52034 10.1354 6.49878 10.0688 6.49878 10.0003C6.49878 9.93191 6.52034 9.86522 6.56041 9.80975C6.60047 9.75428 6.657 9.71284 6.72196 9.69133L8.46496 9.11083C8.84817 8.98316 9.19638 8.76799 9.482 8.48237C9.76761 8.19676 9.98278 7.84855 10.1105 7.46533L10.691 5.72233ZM21.2945 4.14883C21.3093 4.10612 21.337 4.06909 21.3738 4.04288C21.4107 4.01666 21.4548 4.00258 21.5 4.00258C21.5452 4.00258 21.5892 4.01666 21.6261 4.04288C21.6629 4.06909 21.6907 4.10612 21.7055 4.14883L22.0925 5.30983C22.265 5.82883 22.6715 6.23533 23.1905 6.40783L24.3515 6.79483C24.3942 6.80964 24.4312 6.83739 24.4574 6.87422C24.4836 6.91105 24.4977 6.95513 24.4977 7.00033C24.4977 7.04554 24.4836 7.08962 24.4574 7.12645C24.4312 7.16328 24.3942 7.19103 24.3515 7.20583L23.1905 7.59283C22.9347 7.67792 22.7023 7.82146 22.5117 8.01206C22.3211 8.20266 22.1775 8.43507 22.0925 8.69083L21.7055 9.85183C21.6907 9.89454 21.6629 9.93158 21.6261 9.95779C21.5892 9.984 21.5452 9.99809 21.5 9.99809C21.4548 9.99809 21.4107 9.984 21.3738 9.95779C21.337 9.93158 21.3093 9.89454 21.2945 9.85183L20.9075 8.69083C20.8224 8.43507 20.6788 8.20266 20.4882 8.01206C20.2976 7.82146 20.0652 7.67792 19.8095 7.59283L18.65 7.20583C18.6072 7.19103 18.5702 7.16328 18.544 7.12645C18.5178 7.08962 18.5037 7.04554 18.5037 7.00033C18.5037 6.95513 18.5178 6.91105 18.544 6.87422C18.5702 6.83739 18.6072 6.80964 18.65 6.79483L19.811 6.40783C20.33 6.23533 20.7365 5.82883 20.909 5.30983L21.2945 4.15033V4.14883Z" fill="white"/>
</g>
<defs>
<clipPath id="clip0_213_548">
<rect width="24" height="24" fill="white" transform="translate(4 4)"/>
</clipPath>
</defs>
</svg>
