<svg width="62" height="62" viewBox="0 0 62 62" fill="none" xmlns="http://www.w3.org/2000/svg">
<rect width="62" height="62" rx="9.09817" fill="#F2F2F2"/>
<g clip-path="url(#clip0_474_2210)">
<path d="M31.4103 26.5704C31.7197 25.6422 33.0303 25.6422 33.3397 26.5704L35.1538 32.0182C35.5531 33.2157 36.2258 34.3038 37.1187 35.1962C38.0116 36.0886 39.1 36.7608 40.2978 37.1594L45.7428 38.9735C46.671 39.2829 46.671 40.5935 45.7428 40.9029L40.295 42.7169C39.0974 43.1162 38.0093 43.789 37.117 44.6819C36.2246 45.5747 35.5524 46.6632 35.1538 47.861L33.3397 53.306C33.273 53.5092 33.1438 53.6862 32.9706 53.8117C32.7974 53.9371 32.5889 54.0047 32.375 54.0047C32.1611 54.0047 31.9527 53.9371 31.7794 53.8117C31.6062 53.6862 31.477 53.5092 31.4103 53.306L29.5963 47.8582C29.1973 46.6609 28.5249 45.573 27.6326 44.6806C26.7402 43.7883 25.6523 43.1159 24.455 42.7169L19.0072 40.9029C18.804 40.8362 18.627 40.707 18.5015 40.5337C18.376 40.3605 18.3085 40.1521 18.3085 39.9382C18.3085 39.7243 18.376 39.5158 18.5015 39.3426C18.627 39.1694 18.804 39.0402 19.0072 38.9735L24.455 37.1594C25.6523 36.7604 26.7402 36.0881 27.6326 35.1957C28.5249 34.3033 29.1973 33.2154 29.5963 32.0182L31.4103 26.5704ZM20.5456 12.2294C20.586 12.1076 20.6637 12.0016 20.7677 11.9265C20.8717 11.8514 20.9967 11.811 21.125 11.811C21.2533 11.811 21.3784 11.8514 21.4824 11.9265C21.5864 12.0016 21.6641 12.1076 21.7044 12.2294L22.7928 15.4975C23.2794 16.9544 24.4213 18.0963 25.8781 18.5829L29.1463 19.6713C29.2681 19.7116 29.3741 19.7893 29.4492 19.8933C29.5243 19.9973 29.5647 20.1224 29.5647 20.2507C29.5647 20.379 29.5243 20.504 29.4492 20.608C29.3741 20.712 29.2681 20.7897 29.1463 20.83L25.8781 21.9185C25.1596 22.1579 24.5067 22.5613 23.9712 23.0968C23.4357 23.6324 23.0322 24.2853 22.7928 25.0038L21.7044 28.2719C21.6641 28.3937 21.5864 28.4997 21.4824 28.5748C21.3784 28.65 21.2533 28.6904 21.125 28.6904C20.9967 28.6904 20.8717 28.65 20.7677 28.5748C20.6637 28.4997 20.586 28.3937 20.5456 28.2719L19.4572 25.0038C19.2178 24.2853 18.8144 23.6324 18.2788 23.0968C17.7433 22.5613 17.0904 22.1579 16.3719 21.9185L13.1038 20.83C12.982 20.7897 12.876 20.712 12.8009 20.608C12.7257 20.504 12.6853 20.379 12.6853 20.2507C12.6853 20.1224 12.7257 19.9973 12.8009 19.8933C12.876 19.7893 12.982 19.7116 13.1038 19.6713L16.3719 18.5829C17.0904 18.3435 17.7433 17.94 18.2788 17.4045C18.8144 16.869 19.2178 16.2161 19.4572 15.4975L20.5456 12.2294ZM40.4272 9.27911C40.455 9.19903 40.507 9.12959 40.576 9.08044C40.6451 9.03129 40.7278 9.00488 40.8125 9.00488C40.8973 9.00488 40.9799 9.03129 41.049 9.08044C41.118 9.12959 41.1701 9.19903 41.1978 9.27911L41.9235 11.456C42.2469 12.4291 43.0091 13.1913 43.9822 13.5147L46.1591 14.2404C46.2392 14.2681 46.3086 14.3201 46.3577 14.3892C46.4069 14.4583 46.4333 14.5409 46.4333 14.6257C46.4333 14.7104 46.4069 14.7931 46.3577 14.8621C46.3086 14.9312 46.2392 14.9832 46.1591 15.011L43.9822 15.7366C43.5026 15.8961 43.0669 16.1653 42.7095 16.5227C42.3521 16.88 42.083 17.3158 41.9235 17.7954L41.1978 19.9722C41.1701 20.0523 41.118 20.1218 41.049 20.1709C40.9799 20.2201 40.8973 20.2465 40.8125 20.2465C40.7278 20.2465 40.6451 20.2201 40.576 20.1709C40.507 20.1218 40.455 20.0523 40.4272 19.9722L39.7016 17.7954C39.542 17.3158 39.2729 16.88 38.9155 16.5227C38.5582 16.1653 38.1224 15.8961 37.6428 15.7366L35.4688 15.011C35.3887 14.9832 35.3192 14.9312 35.2701 14.8621C35.2209 14.7931 35.1945 14.7104 35.1945 14.6257C35.1945 14.5409 35.2209 14.4583 35.2701 14.3892C35.3192 14.3201 35.3887 14.2681 35.4688 14.2404L37.6456 13.5147C38.6188 13.1913 39.381 12.4291 39.7044 11.456L40.4272 9.28192V9.27911Z" fill="url(#paint0_linear_474_2210)"/>
</g>
<defs>
<linearGradient id="paint0_linear_474_2210" x1="12.4601" y1="9.00122" x2="46.2101" y2="54.0012" gradientUnits="userSpaceOnUse">
<stop stop-color="#72D4E1"/>
<stop offset="1" stop-color="#4050DE"/>
</linearGradient>
<clipPath id="clip0_474_2210">
<rect width="45" height="45" fill="white" transform="translate(8 9)"/>
</clipPath>
</defs>
</svg>
