<svg width="62" height="62" viewBox="0 0 62 62" fill="none" xmlns="http://www.w3.org/2000/svg">
<rect width="62" height="62" rx="9.09817" fill="url(#paint0_linear_213_1062)"/>
<path d="M13.5727 41.7714L9.77887 52.2163H8.22826L12.5967 40.756H13.5963L13.5727 41.7714ZM16.7527 52.2163L12.9509 41.7714L12.9273 40.756H13.9269L18.3111 52.2163H16.7527ZM16.5559 47.9738V49.2174H10.1173V47.9738H16.5559ZM24.5844 49.9573C24.5844 49.7474 24.5372 49.5533 24.4427 49.3748C24.3535 49.1912 24.1672 49.0259 23.8839 48.879C23.6058 48.7268 23.186 48.5956 22.6245 48.4854C22.1522 48.3857 21.7246 48.2676 21.3415 48.1312C20.9637 47.9948 20.641 47.8295 20.3734 47.6353C20.111 47.4412 19.909 47.2129 19.7673 46.9505C19.6256 46.6882 19.5548 46.3812 19.5548 46.0296C19.5548 45.6938 19.6282 45.3763 19.7752 45.0772C19.9273 44.7781 20.1399 44.5131 20.4127 44.2822C20.6908 44.0514 21.024 43.8703 21.4123 43.7391C21.8007 43.608 22.2336 43.5424 22.7111 43.5424C23.3932 43.5424 23.9757 43.6631 24.4585 43.9044C24.9412 44.1458 25.3112 44.4685 25.5683 44.8726C25.8254 45.2714 25.954 45.7148 25.954 46.2028H24.4978C24.4978 45.9667 24.427 45.7384 24.2853 45.518C24.1489 45.2924 23.9468 45.1061 23.6792 44.9592C23.4168 44.8122 23.0941 44.7388 22.7111 44.7388C22.307 44.7388 21.9791 44.8017 21.7272 44.9277C21.4806 45.0484 21.2995 45.2032 21.1841 45.3921C21.0739 45.581 21.0188 45.7804 21.0188 45.9903C21.0188 46.1477 21.045 46.2894 21.0975 46.4153C21.1552 46.536 21.2549 46.6488 21.3966 46.7538C21.5383 46.8535 21.7377 46.9479 21.9948 47.0371C22.2519 47.1263 22.5799 47.2155 22.9787 47.3047C23.6766 47.4622 24.2512 47.6511 24.7025 47.8715C25.1537 48.0919 25.4896 48.3621 25.71 48.6822C25.9304 49.0023 26.0405 49.3906 26.0405 49.8471C26.0405 50.2197 25.9618 50.5608 25.8044 50.8704C25.6522 51.1799 25.4292 51.4476 25.1354 51.6732C24.8468 51.8936 24.5004 52.0668 24.0964 52.1927C23.6976 52.3134 23.2489 52.3737 22.7504 52.3737C22.0001 52.3737 21.3651 52.2399 20.8456 51.9723C20.3261 51.7047 19.9326 51.3584 19.665 50.9333C19.3973 50.5083 19.2635 50.0596 19.2635 49.5874H20.7276C20.7485 49.9862 20.864 50.3036 21.0739 50.5398C21.2838 50.7707 21.5409 50.9359 21.8453 51.0356C22.1496 51.1301 22.4513 51.1773 22.7504 51.1773C23.1492 51.1773 23.4824 51.1249 23.7501 51.0199C24.0229 50.915 24.2302 50.7707 24.3719 50.587C24.5136 50.4033 24.5844 50.1934 24.5844 49.9573ZM29.4172 40.1263V52.2163H27.9532V40.1263H29.4172ZM34.62 43.6998L30.9049 47.6747L28.8269 49.8314L28.7088 48.2808L30.1965 46.5019L32.8412 43.6998H34.62ZM33.2898 52.2163L30.2516 48.1548L31.0072 46.8561L35.0057 52.2163H33.2898ZM44.5848 41.7714L40.791 52.2163H39.2404L43.6088 40.756H44.6085L44.5848 41.7714ZM47.7648 52.2163L43.963 41.7714L43.9394 40.756H44.939L49.3232 52.2163H47.7648ZM47.568 47.9738V49.2174H41.1294V47.9738H47.568ZM52.4874 40.756V52.2163H50.9683V40.756H52.4874Z" fill="white"/>
<g clip-path="url(#clip0_213_1062)">
<path d="M31.1325 17.8206C31.3371 17.2068 32.2039 17.2068 32.4085 17.8206L33.6082 21.4234C33.8722 22.2154 34.3171 22.935 34.9076 23.5252C35.4981 24.1154 36.218 24.5599 37.0101 24.8235L40.6111 26.0232C41.2249 26.2278 41.2249 27.0946 40.6111 27.2992L37.0082 28.4989C36.2163 28.7629 35.4967 29.2079 34.9065 29.7983C34.3163 30.3888 33.8718 31.1087 33.6082 31.9008L32.4085 35.5018C32.3644 35.6362 32.2789 35.7532 32.1644 35.8362C32.0498 35.9192 31.9119 35.9639 31.7705 35.9639C31.629 35.9639 31.4912 35.9192 31.3766 35.8362C31.2621 35.7532 31.1766 35.6362 31.1325 35.5018L29.9328 31.899C29.6689 31.1072 29.2243 30.3877 28.6341 29.7975C28.044 29.2074 27.3245 28.7628 26.5327 28.4989L22.9299 27.2992C22.7955 27.2551 22.6785 27.1696 22.5955 27.0551C22.5125 26.9405 22.4678 26.8027 22.4678 26.6612C22.4678 26.5197 22.5125 26.3819 22.5955 26.2673C22.6785 26.1528 22.7955 26.0673 22.9299 26.0232L26.5327 24.8235C27.3245 24.5596 28.044 24.115 28.6341 23.5249C29.2243 22.9347 29.6689 22.2152 29.9328 21.4234L31.1325 17.8206ZM23.9473 8.33647C23.974 8.25593 24.0254 8.18583 24.0942 8.13615C24.1629 8.08647 24.2456 8.05973 24.3305 8.05973C24.4153 8.05973 24.498 8.08647 24.5668 8.13615C24.6356 8.18583 24.687 8.25593 24.7136 8.33647L25.4335 10.4978C25.7552 11.4613 26.5104 12.2164 27.4739 12.5382L29.6352 13.258C29.7158 13.2847 29.7858 13.3361 29.8355 13.4049C29.8852 13.4737 29.912 13.5563 29.912 13.6412C29.912 13.726 29.8852 13.8087 29.8355 13.8775C29.7858 13.9463 29.7158 13.9977 29.6352 14.0244L27.4739 14.7442C26.9987 14.9025 26.5669 15.1693 26.2128 15.5235C25.8586 15.8776 25.5918 16.3094 25.4335 16.7846L24.7136 18.9459C24.687 19.0265 24.6356 19.0966 24.5668 19.1462C24.498 19.1959 24.4153 19.2227 24.3305 19.2227C24.2456 19.2227 24.1629 19.1959 24.0942 19.1462C24.0254 19.0966 23.974 19.0265 23.9473 18.9459L23.2275 16.7846C23.0692 16.3094 22.8024 15.8776 22.4482 15.5235C22.0941 15.1693 21.6623 14.9025 21.1871 14.7442L19.0258 14.0244C18.9452 13.9977 18.8751 13.9463 18.8254 13.8775C18.7758 13.8087 18.749 13.726 18.749 13.6412C18.749 13.5563 18.7758 13.4737 18.8254 13.4049C18.8751 13.3361 18.9452 13.2847 19.0258 13.258L21.1871 12.5382C21.6623 12.3799 22.0941 12.1131 22.4482 11.7589C22.8024 11.4048 23.0692 10.973 23.2275 10.4978L23.9473 8.33647ZM37.0957 6.38533C37.114 6.33237 37.1484 6.28645 37.1941 6.25395C37.2398 6.22144 37.2944 6.20398 37.3505 6.20398C37.4065 6.20398 37.4612 6.22144 37.5069 6.25395C37.5525 6.28645 37.5869 6.33237 37.6053 6.38533L38.0852 7.82497C38.2991 8.46853 38.8031 8.97259 39.4467 9.18649L40.8863 9.66637C40.9393 9.68474 40.9852 9.71914 41.0177 9.76481C41.0502 9.81048 41.0677 9.86514 41.0677 9.92119C41.0677 9.97725 41.0502 10.0319 41.0177 10.0776C40.9852 10.1232 40.9393 10.1577 40.8863 10.176L39.4467 10.6559C39.1296 10.7614 38.8414 10.9394 38.605 11.1757C38.3687 11.4121 38.1907 11.7003 38.0852 12.0174L37.6053 13.4571C37.5869 13.51 37.5525 13.5559 37.5069 13.5884C37.4612 13.6209 37.4065 13.6384 37.3505 13.6384C37.2944 13.6384 37.2398 13.6209 37.1941 13.5884C37.1484 13.5559 37.114 13.51 37.0957 13.4571L36.6158 12.0174C36.5103 11.7003 36.3323 11.4121 36.0959 11.1757C35.8596 10.9394 35.5714 10.7614 35.2543 10.6559L33.8165 10.176C33.7635 10.1577 33.7176 10.1232 33.6851 10.0776C33.6526 10.0319 33.6351 9.97725 33.6351 9.92119C33.6351 9.86514 33.6526 9.81048 33.6851 9.76481C33.7176 9.71914 33.7635 9.68474 33.8165 9.66637L35.2561 9.18649C35.8997 8.97259 36.4037 8.46853 36.6176 7.82497L37.0957 6.38719V6.38533Z" fill="white"/>
</g>
<defs>
<linearGradient id="paint0_linear_213_1062" x1="0" y1="0" x2="62" y2="58.5" gradientUnits="userSpaceOnUse">
<stop stop-color="#7EA9EB"/>
<stop offset="1" stop-color="#4265E0"/>
</linearGradient>
<clipPath id="clip0_213_1062">
<rect width="29.76" height="29.76" fill="white" transform="translate(15.6505 6.20078)"/>
</clipPath>
</defs>
</svg>
