<svg width="62" height="62" viewBox="0 0 62 62" fill="none" xmlns="http://www.w3.org/2000/svg">
<rect width="62" height="62" rx="9.09817" fill="url(#paint0_linear_495_710)"/>
<g clip-path="url(#clip0_495_710)">
<path d="M31.4103 26.5705C31.7197 25.6424 33.0303 25.6424 33.3397 26.5705L35.1538 32.0183C35.5531 33.2159 36.2258 34.304 37.1187 35.1964C38.0116 36.0887 39.1 36.7609 40.2978 37.1595L45.7428 38.9736C46.671 39.283 46.671 40.5936 45.7428 40.903L40.295 42.717C39.0974 43.1163 38.0093 43.7891 37.117 44.682C36.2246 45.5749 35.5524 46.6633 35.1538 47.8611L33.3397 53.3061C33.273 53.5093 33.1438 53.6863 32.9706 53.8118C32.7974 53.9373 32.5889 54.0048 32.375 54.0048C32.1611 54.0048 31.9527 53.9373 31.7794 53.8118C31.6062 53.6863 31.477 53.5093 31.4103 53.3061L29.5963 47.8583C29.1973 46.661 28.5249 45.5731 27.6326 44.6808C26.7402 43.7884 25.6523 43.1161 24.455 42.717L19.0072 40.903C18.804 40.8363 18.627 40.7071 18.5015 40.5339C18.376 40.3606 18.3085 40.1522 18.3085 39.9383C18.3085 39.7244 18.376 39.516 18.5015 39.3427C18.627 39.1695 18.804 39.0403 19.0072 38.9736L24.455 37.1595C25.6523 36.7605 26.7402 36.0882 27.6326 35.1958C28.5249 34.3035 29.1973 33.2156 29.5963 32.0183L31.4103 26.5705ZM20.5456 12.2295C20.586 12.1077 20.6637 12.0018 20.7677 11.9266C20.8717 11.8515 20.9967 11.8111 21.125 11.8111C21.2533 11.8111 21.3784 11.8515 21.4824 11.9266C21.5864 12.0018 21.6641 12.1077 21.7044 12.2295L22.7928 15.4977C23.2794 16.9545 24.4213 18.0964 25.8781 18.583L29.1463 19.6714C29.2681 19.7117 29.3741 19.7894 29.4492 19.8934C29.5243 19.9975 29.5647 20.1225 29.5647 20.2508C29.5647 20.3791 29.5243 20.5041 29.4492 20.6081C29.3741 20.7121 29.2681 20.7898 29.1463 20.8302L25.8781 21.9186C25.1596 22.158 24.5067 22.5614 23.9712 23.097C23.4357 23.6325 23.0322 24.2854 22.7928 25.0039L21.7044 28.272C21.6641 28.3938 21.5864 28.4998 21.4824 28.575C21.3784 28.6501 21.2533 28.6905 21.125 28.6905C20.9967 28.6905 20.8717 28.6501 20.7677 28.575C20.6637 28.4998 20.586 28.3938 20.5456 28.272L19.4572 25.0039C19.2178 24.2854 18.8144 23.6325 18.2788 23.097C17.7433 22.5614 17.0904 22.158 16.3719 21.9186L13.1038 20.8302C12.982 20.7898 12.876 20.7121 12.8009 20.6081C12.7257 20.5041 12.6853 20.3791 12.6853 20.2508C12.6853 20.1225 12.7257 19.9975 12.8009 19.8934C12.876 19.7894 12.982 19.7117 13.1038 19.6714L16.3719 18.583C17.0904 18.3436 17.7433 17.9401 18.2788 17.4046C18.8144 16.8691 19.2178 16.2162 19.4572 15.4977L20.5456 12.2295ZM40.4272 9.27923C40.455 9.19915 40.507 9.12971 40.576 9.08056C40.6451 9.03141 40.7278 9.005 40.8125 9.005C40.8973 9.005 40.9799 9.03141 41.049 9.08056C41.118 9.12971 41.1701 9.19915 41.1978 9.27923L41.9235 11.4561C42.2469 12.4292 43.0091 13.1914 43.9822 13.5149L46.1591 14.2405C46.2392 14.2682 46.3086 14.3203 46.3577 14.3893C46.4069 14.4584 46.4333 14.541 46.4333 14.6258C46.4333 14.7106 46.4069 14.7932 46.3577 14.8623C46.3086 14.9313 46.2392 14.9833 46.1591 15.0111L43.9822 15.7367C43.5026 15.8963 43.0669 16.1654 42.7095 16.5228C42.3521 16.8801 42.083 17.3159 41.9235 17.7955L41.1978 19.9724C41.1701 20.0524 41.118 20.1219 41.049 20.171C40.9799 20.2202 40.8973 20.2466 40.8125 20.2466C40.7278 20.2466 40.6451 20.2202 40.576 20.171C40.507 20.1219 40.455 20.0524 40.4272 19.9724L39.7016 17.7955C39.542 17.3159 39.2729 16.8801 38.9155 16.5228C38.5582 16.1654 38.1224 15.8963 37.6428 15.7367L35.4688 15.0111C35.3887 14.9833 35.3192 14.9313 35.2701 14.8623C35.2209 14.7932 35.1945 14.7106 35.1945 14.6258C35.1945 14.541 35.2209 14.4584 35.2701 14.3893C35.3192 14.3203 35.3887 14.2682 35.4688 14.2405L37.6456 13.5149C38.6188 13.1914 39.381 12.4292 39.7044 11.4561L40.4272 9.28204V9.27923Z" fill="url(#paint1_linear_495_710)"/>
</g>
<defs>
<linearGradient id="paint0_linear_495_710" x1="0" y1="0" x2="62" y2="58.5" gradientUnits="userSpaceOnUse">
<stop stop-color="#7EA9EB"/>
<stop offset="1" stop-color="#4265E0"/>
</linearGradient>
<linearGradient id="paint1_linear_495_710" x1="52.9999" y1="54.0001" x2="6.99994" y2="5.00006" gradientUnits="userSpaceOnUse">
<stop stop-color="#ABD8F1"/>
<stop offset="1" stop-color="white"/>
</linearGradient>
<clipPath id="clip0_495_710">
<rect width="45" height="45" fill="white" transform="translate(8 9.00012)"/>
</clipPath>
</defs>
</svg>
