<svg width="20" height="22" viewBox="0 0 20 22" fill="none" xmlns="http://www.w3.org/2000/svg">
<path d="M7.625 4.25V4.75H8.125H11.875H12.375V4.25V3.875C12.375 3.24511 12.1248 2.64102 11.6794 2.19562C11.234 1.75022 10.6299 1.5 10 1.5C9.37011 1.5 8.76602 1.75022 8.32062 2.19562C7.87522 2.64102 7.625 3.24511 7.625 3.875V4.25ZM6.625 4.75H7.125V4.25V3.875C7.125 3.1125 7.4279 2.38124 7.96707 1.84207C8.50624 1.3029 9.2375 1 10 1C10.7625 1 11.4938 1.3029 12.0329 1.84207C12.5721 2.38124 12.875 3.1125 12.875 3.875V4.25V4.75H13.375H19C19.0663 4.75 19.1299 4.77634 19.1768 4.82322C19.2237 4.87011 19.25 4.9337 19.25 5C19.25 5.0663 19.2237 5.12989 19.1768 5.17678C19.1299 5.22366 19.0663 5.25 19 5.25H17.869H17.4228L17.3722 5.69327L15.9532 18.1192C15.9532 18.1192 15.9532 18.1192 15.9532 18.1193C15.8625 18.9124 15.4831 19.6443 14.8873 20.1756C14.2915 20.7069 13.521 21.0004 12.7227 21H12.7225H7.2775H7.27726C6.47897 21.0004 5.70847 20.7069 5.11267 20.1756C4.51688 19.6443 4.13747 18.9124 4.04677 18.1193C4.04677 18.1192 4.04677 18.1192 4.04676 18.1192L2.62777 5.69327L2.57715 5.25H2.131H1C0.933696 5.25 0.870108 5.22366 0.823224 5.17678C0.776339 5.12989 0.75 5.0663 0.75 5C0.75 4.9337 0.776339 4.87011 0.823223 4.82322C0.870108 4.77634 0.933696 4.75 1 4.75H6.625ZM7.27589 20.5H7.276H12.7233H12.7234C13.3986 20.4998 14.0502 20.2512 14.554 19.8016C15.0577 19.3519 15.3784 18.7327 15.455 18.0618C15.455 18.0618 15.455 18.0617 15.455 18.0617L16.8568 5.80682L16.9205 5.25H16.36H3.64075H3.08037L3.14398 5.80676L4.54422 18.0617C4.54422 18.0617 4.54423 18.0617 4.54423 18.0618C4.62078 18.7326 4.94149 19.3519 5.44523 19.8016C5.949 20.2512 6.60062 20.4998 7.27589 20.5ZM7.75 8.875C7.8163 8.875 7.87989 8.90134 7.92678 8.94822L8.25676 8.61824L7.92678 8.94823C7.97366 8.99511 8 9.0587 8 9.125V16.625C8 16.6913 7.97366 16.7549 7.92678 16.8018C7.87989 16.8487 7.8163 16.875 7.75 16.875C7.6837 16.875 7.62011 16.8487 7.57322 16.8018C7.52634 16.7549 7.5 16.6913 7.5 16.625V9.125C7.5 9.0587 7.52634 8.99511 7.57322 8.94823L7.21967 8.59467L7.57322 8.94822C7.62011 8.90134 7.6837 8.875 7.75 8.875ZM12.4268 8.94822C12.4737 8.99511 12.5 9.05869 12.5 9.125V16.625C12.5 16.6913 12.4737 16.7549 12.4268 16.8018C12.3799 16.8487 12.3163 16.875 12.25 16.875C12.1837 16.875 12.1201 16.8487 12.0732 16.8018C12.0263 16.7549 12 16.6913 12 16.625V9.125C12 9.05869 12.0263 8.99511 12.0732 8.94823C12.1201 8.90134 12.1837 8.875 12.25 8.875C12.3163 8.875 12.3799 8.90134 12.4268 8.94822Z" stroke="#949494"/>
</svg>
