<svg width="30" height="30" viewBox="0 0 30 30" fill="none" xmlns="http://www.w3.org/2000/svg">
<rect width="30" height="30" rx="15" fill="#5896C0"/>
<mask id="path-2-outside-1_506_1005" maskUnits="userSpaceOnUse" x="3.23999" y="6.24951" width="24" height="18" fill="black">
<rect fill="white" x="3.23999" y="6.24951" width="24" height="18"/>
<path d="M17.18 7.2762C17.3721 7.32754 17.536 7.4531 17.6356 7.62525C17.7352 7.7974 17.7623 8.00205 17.711 8.1942L13.738 23.0242C13.6864 23.2165 13.5605 23.3804 13.3881 23.4799C13.2157 23.5794 13.0108 23.6063 12.8185 23.5547C12.6262 23.5031 12.4623 23.3773 12.3628 23.2048C12.2633 23.0324 12.2364 22.8275 12.288 22.6352L16.262 7.8052C16.2875 7.71005 16.3315 7.62085 16.3915 7.54272C16.4515 7.46458 16.5264 7.39903 16.6117 7.34981C16.697 7.3006 16.7912 7.26867 16.8889 7.25587C16.9866 7.24307 17.0858 7.24964 17.181 7.2752M20.443 10.3282C20.576 10.1804 20.7623 10.0914 20.9609 10.0809C21.1595 10.0704 21.3541 10.1392 21.502 10.2722L23.239 11.8362C23.976 12.4982 24.586 13.0482 25.006 13.5462C25.446 14.0712 25.76 14.6342 25.76 15.3302C25.76 16.0252 25.447 16.5882 25.006 17.1122C24.586 17.6112 23.976 18.1612 23.239 18.8232L21.502 20.3872C21.3541 20.5203 21.1594 20.5893 20.9607 20.5789C20.7621 20.5685 20.5756 20.4796 20.4425 20.3317C20.3094 20.1838 20.2404 19.9892 20.2508 19.7905C20.2612 19.5918 20.3501 19.4053 20.498 19.2722L22.195 17.7452C22.983 17.0362 23.514 16.5552 23.858 16.1472C24.188 15.7542 24.26 15.5252 24.26 15.3292C24.26 15.1342 24.188 14.9052 23.858 14.5122C23.514 14.1032 22.983 13.6222 22.195 12.9142L20.498 11.3872C20.4246 11.3213 20.365 11.2416 20.3225 11.1527C20.28 11.0637 20.2554 10.9673 20.2502 10.8688C20.245 10.7704 20.2593 10.6718 20.2922 10.5789C20.3251 10.486 20.376 10.4004 20.442 10.3272M9.50199 11.3872C9.64985 11.2541 9.73876 11.0676 9.74917 10.8689C9.75958 10.6702 9.69063 10.4756 9.55749 10.3277C9.42435 10.1798 9.23793 10.0909 9.03924 10.0805C8.84054 10.0701 8.64585 10.1391 8.49799 10.2722L6.76099 11.8362C6.02399 12.4982 5.41399 13.0482 4.99399 13.5462C4.55399 14.0712 4.23999 14.6342 4.23999 15.3302C4.23999 16.0252 4.55299 16.5882 4.99399 17.1122C5.41399 17.6112 6.02399 18.1612 6.76099 18.8232L8.49799 20.3872C8.64585 20.5203 8.84054 20.5893 9.03924 20.5789C9.23793 20.5685 9.42435 20.4796 9.55749 20.3317C9.69063 20.1838 9.75958 19.9892 9.74917 19.7905C9.73876 19.5918 9.64985 19.4053 9.50199 19.2722L7.80499 17.7452C7.01699 17.0362 6.48599 16.5552 6.14199 16.1472C5.81199 15.7542 5.73999 15.5252 5.73999 15.3292C5.73999 15.1342 5.81199 14.9052 6.14199 14.5122C6.48599 14.1032 7.01699 13.6222 7.80499 12.9142L9.50199 11.3872Z"/>
</mask>
<path d="M17.18 7.2762C17.3721 7.32754 17.536 7.4531 17.6356 7.62525C17.7352 7.7974 17.7623 8.00205 17.711 8.1942L13.738 23.0242C13.6864 23.2165 13.5605 23.3804 13.3881 23.4799C13.2157 23.5794 13.0108 23.6063 12.8185 23.5547C12.6262 23.5031 12.4623 23.3773 12.3628 23.2048C12.2633 23.0324 12.2364 22.8275 12.288 22.6352L16.262 7.8052C16.2875 7.71005 16.3315 7.62085 16.3915 7.54272C16.4515 7.46458 16.5264 7.39903 16.6117 7.34981C16.697 7.3006 16.7912 7.26867 16.8889 7.25587C16.9866 7.24307 17.0858 7.24964 17.181 7.2752M20.443 10.3282C20.576 10.1804 20.7623 10.0914 20.9609 10.0809C21.1595 10.0704 21.3541 10.1392 21.502 10.2722L23.239 11.8362C23.976 12.4982 24.586 13.0482 25.006 13.5462C25.446 14.0712 25.76 14.6342 25.76 15.3302C25.76 16.0252 25.447 16.5882 25.006 17.1122C24.586 17.6112 23.976 18.1612 23.239 18.8232L21.502 20.3872C21.3541 20.5203 21.1594 20.5893 20.9607 20.5789C20.7621 20.5685 20.5756 20.4796 20.4425 20.3317C20.3094 20.1838 20.2404 19.9892 20.2508 19.7905C20.2612 19.5918 20.3501 19.4053 20.498 19.2722L22.195 17.7452C22.983 17.0362 23.514 16.5552 23.858 16.1472C24.188 15.7542 24.26 15.5252 24.26 15.3292C24.26 15.1342 24.188 14.9052 23.858 14.5122C23.514 14.1032 22.983 13.6222 22.195 12.9142L20.498 11.3872C20.4246 11.3213 20.365 11.2416 20.3225 11.1527C20.28 11.0637 20.2554 10.9673 20.2502 10.8688C20.245 10.7704 20.2593 10.6718 20.2922 10.5789C20.3251 10.486 20.376 10.4004 20.442 10.3272M9.50199 11.3872C9.64985 11.2541 9.73876 11.0676 9.74917 10.8689C9.75958 10.6702 9.69063 10.4756 9.55749 10.3277C9.42435 10.1798 9.23793 10.0909 9.03924 10.0805C8.84054 10.0701 8.64585 10.1391 8.49799 10.2722L6.76099 11.8362C6.02399 12.4982 5.41399 13.0482 4.99399 13.5462C4.55399 14.0712 4.23999 14.6342 4.23999 15.3302C4.23999 16.0252 4.55299 16.5882 4.99399 17.1122C5.41399 17.6112 6.02399 18.1612 6.76099 18.8232L8.49799 20.3872C8.64585 20.5203 8.84054 20.5893 9.03924 20.5789C9.23793 20.5685 9.42435 20.4796 9.55749 20.3317C9.69063 20.1838 9.75958 19.9892 9.74917 19.7905C9.73876 19.5918 9.64985 19.4053 9.50199 19.2722L7.80499 17.7452C7.01699 17.0362 6.48599 16.5552 6.14199 16.1472C5.81199 15.7542 5.73999 15.5252 5.73999 15.3292C5.73999 15.1342 5.81199 14.9052 6.14199 14.5122C6.48599 14.1032 7.01699 13.6222 7.80499 12.9142L9.50199 11.3872Z" fill="white"/>
<path d="M17.711 8.1942L18.194 8.32359L18.1941 8.32315L17.711 8.1942ZM13.738 23.0242L14.2209 23.1538L14.221 23.1536L13.738 23.0242ZM12.288 22.6352L12.7709 22.7648L12.771 22.7646L12.288 22.6352ZM16.262 7.8052L15.7791 7.67566L15.779 7.67578L16.262 7.8052ZM21.502 10.2722L21.8366 9.90063L21.8363 9.90041L21.502 10.2722ZM23.239 11.8362L22.9044 12.2078L22.9049 12.2082L23.239 11.8362ZM25.006 13.5462L25.3892 13.225L25.3882 13.2238L25.006 13.5462ZM25.006 17.1122L25.3885 17.4342L25.3885 17.4342L25.006 17.1122ZM23.239 18.8232L22.9049 18.4512L22.9044 18.4516L23.239 18.8232ZM21.502 20.3872L21.1674 20.0156L21.1674 20.0156L21.502 20.3872ZM20.498 19.2722L20.1635 18.9005L20.1634 18.9006L20.498 19.2722ZM22.195 17.7452L21.8606 17.3735L21.8605 17.3735L22.195 17.7452ZM23.858 16.1472L24.2403 16.4695L24.2409 16.4687L23.858 16.1472ZM23.858 14.5122L24.2409 14.1907L24.2406 14.1904L23.858 14.5122ZM22.195 12.9142L21.8605 13.2859L21.8608 13.2861L22.195 12.9142ZM20.498 11.3872L20.8324 11.0155L20.8321 11.0152L20.498 11.3872ZM9.50199 11.3872L9.83644 11.7589L9.83656 11.7588L9.50199 11.3872ZM8.49799 10.2722L8.83256 10.6438L8.83256 10.6438L8.49799 10.2722ZM6.76099 11.8362L7.09511 12.2082L7.09556 12.2078L6.76099 11.8362ZM4.99399 13.5462L4.61177 13.2238L4.61078 13.225L4.99399 13.5462ZM4.99399 17.1122L4.61144 17.4342L4.61146 17.4342L4.99399 17.1122ZM6.76099 18.8232L7.09556 18.4516L7.09511 18.4512L6.76099 18.8232ZM8.49799 20.3872L8.83256 20.0156L8.83256 20.0156L8.49799 20.3872ZM9.50199 19.2722L9.83656 18.9006L9.83644 18.9005L9.50199 19.2722ZM7.80499 17.7452L8.13944 17.3735L8.13942 17.3735L7.80499 17.7452ZM6.14199 16.1472L5.75908 16.4687L5.75973 16.4695L6.14199 16.1472ZM6.14199 14.5122L5.75934 14.1904L5.75908 14.1907L6.14199 14.5122ZM7.80499 12.9142L8.13916 13.2861L8.13944 13.2859L7.80499 12.9142ZM17.0509 7.75925C17.1149 7.77636 17.1696 7.81822 17.2028 7.8756L18.0684 7.3749C17.9024 7.08798 17.6293 6.87872 17.3091 6.79315L17.0509 7.75925ZM17.2028 7.8756C17.236 7.93298 17.245 8.0012 17.2279 8.06525L18.1941 8.32315C18.2796 8.0029 18.2343 7.66182 18.0684 7.3749L17.2028 7.8756ZM17.228 8.06481L13.255 22.8948L14.221 23.1536L18.194 8.32359L17.228 8.06481ZM13.2551 22.8946C13.2378 22.9588 13.1958 23.0136 13.1382 23.0468L13.638 23.913C13.9253 23.7472 14.135 23.4741 14.2209 23.1538L13.2551 22.8946ZM13.1382 23.0468C13.0807 23.08 13.0122 23.089 12.948 23.0718L12.6889 24.0376C13.0093 24.1236 13.3507 24.0787 13.638 23.913L13.1382 23.0468ZM12.948 23.0718C12.8838 23.0546 12.8291 23.0125 12.7959 22.955L11.9297 23.4547C12.0955 23.742 12.3686 23.9517 12.6889 24.0376L12.948 23.0718ZM12.7959 22.955C12.7627 22.8974 12.7537 22.829 12.7709 22.7648L11.8051 22.5056C11.7191 22.826 11.764 23.1674 11.9297 23.4547L12.7959 22.955ZM12.771 22.7646L16.745 7.93462L15.779 7.67578L11.805 22.5058L12.771 22.7646ZM16.7449 7.93474C16.7534 7.90302 16.7681 7.87329 16.7881 7.84725L15.995 7.23819C15.895 7.36841 15.8216 7.51707 15.7791 7.67566L16.7449 7.93474ZM16.7881 7.84725C16.8081 7.8212 16.833 7.79935 16.8615 7.78295L16.3619 6.91668C16.2197 6.99871 16.095 7.10796 15.995 7.23819L16.7881 7.84725ZM16.8615 7.78295C16.8899 7.76654 16.9213 7.7559 16.9539 7.75163L16.8239 6.76011C16.6611 6.78145 16.5041 6.83465 16.3619 6.91668L16.8615 7.78295ZM16.9539 7.75163C16.9865 7.74736 17.0195 7.74955 17.0513 7.75807L17.3107 6.79233C17.1522 6.74972 16.9867 6.73877 16.8239 6.76011L16.9539 7.75163ZM20.8147 10.6627C20.859 10.6134 20.9211 10.5837 20.9873 10.5802L20.9345 9.58162C20.6035 9.59913 20.293 9.74737 20.0713 9.99375L20.8147 10.6627ZM20.9873 10.5802C21.0535 10.5767 21.1184 10.5997 21.1677 10.644L21.8363 9.90041C21.5899 9.67879 21.2655 9.56412 20.9345 9.58162L20.9873 10.5802ZM21.1674 10.6438L22.9044 12.2078L23.5736 11.4646L21.8366 9.90063L21.1674 10.6438ZM22.9049 12.2082C23.651 12.8784 24.231 13.4029 24.6238 13.8686L25.3882 13.2238C24.9409 12.6935 24.301 12.118 23.5731 11.4642L22.9049 12.2082ZM24.6228 13.8674C25.0268 14.3494 25.26 14.8011 25.26 15.3302H26.26C26.26 14.4673 25.8652 13.793 25.3892 13.225L24.6228 13.8674ZM25.26 15.3302C25.26 15.8585 25.0276 16.3101 24.6234 16.7902L25.3885 17.4342C25.8664 16.8663 26.26 16.1919 26.26 15.3302H25.26ZM24.6235 16.7902C24.2309 17.2566 23.651 17.781 22.9049 18.4512L23.5731 19.1952C24.3009 18.5414 24.9411 17.9658 25.3885 17.4342L24.6235 16.7902ZM22.9044 18.4516L21.1674 20.0156L21.8366 20.7588L23.5736 19.1948L22.9044 18.4516ZM21.1674 20.0156C21.1181 20.06 21.0532 20.083 20.9869 20.0796L20.9346 21.0782C21.2657 21.0955 21.5902 20.9806 21.8366 20.7588L21.1674 20.0156ZM20.9869 20.0796C20.9206 20.0761 20.8585 20.0464 20.8141 19.9971L20.0709 20.6663C20.2928 20.9127 20.6035 21.0609 20.9346 21.0782L20.9869 20.0796ZM20.8141 19.9971C20.7696 19.9478 20.7467 19.8829 20.7501 19.8166L19.7515 19.7643C19.7341 20.0954 19.8491 20.4199 20.0709 20.6663L20.8141 19.9971ZM20.7501 19.8166C20.7536 19.7503 20.7833 19.6882 20.8326 19.6438L20.1634 18.9006C19.917 19.1225 19.7688 19.4332 19.7515 19.7643L20.7501 19.8166ZM20.8324 19.6439L22.5294 18.1169L21.8605 17.3735L20.1635 18.9005L20.8324 19.6439ZM22.5294 18.1169C23.3065 17.4178 23.8687 16.9102 24.2403 16.4695L23.4757 15.8249C23.1593 16.2002 22.6595 16.6546 21.8606 17.3735L22.5294 18.1169ZM24.2409 16.4687C24.6083 16.0311 24.76 15.691 24.76 15.3292H23.76C23.76 15.3594 23.7676 15.4773 23.4751 15.8257L24.2409 16.4687ZM24.76 15.3292C24.76 14.9682 24.6081 14.628 24.2409 14.1907L23.4751 14.8337C23.7678 15.1824 23.76 15.3002 23.76 15.3292H24.76ZM24.2406 14.1904C23.8688 13.7483 23.3063 13.2405 22.5292 12.5423L21.8608 13.2861C22.6597 14.0039 23.1592 14.4581 23.4753 14.834L24.2406 14.1904ZM22.5294 12.5425L20.8324 11.0155L20.1635 11.7589L21.8605 13.2859L22.5294 12.5425ZM20.8321 11.0152C20.8077 10.9933 20.7878 10.9667 20.7736 10.9371L19.8714 11.3683C19.9422 11.5165 20.0416 11.6494 20.1639 11.7592L20.8321 11.0152ZM20.7736 10.9371C20.7594 10.9074 20.7513 10.8753 20.7495 10.8424L19.7509 10.8952C19.7596 11.0593 19.8005 11.22 19.8714 11.3683L20.7736 10.9371ZM20.7495 10.8424C20.7478 10.8096 20.7525 10.7768 20.7635 10.7458L19.8209 10.412C19.766 10.5669 19.7422 10.7311 19.7509 10.8952L20.7495 10.8424ZM20.7635 10.7458C20.7745 10.7148 20.7914 10.6863 20.8134 10.6619L20.0705 9.9925C19.9605 10.1146 19.8757 10.2571 19.8209 10.412L20.7635 10.7458ZM9.83656 11.7588C10.083 11.5369 10.2311 11.2262 10.2485 10.8951L9.24986 10.8428C9.24638 10.9091 9.21673 10.9712 9.16742 11.0156L9.83656 11.7588ZM10.2485 10.8951C10.2658 10.564 10.1509 10.2395 9.92905 9.99313L9.18593 10.6623C9.23033 10.7116 9.25333 10.7765 9.24986 10.8428L10.2485 10.8951ZM9.92905 9.99313C9.70718 9.74672 9.39651 9.59855 9.06539 9.5812L9.01308 10.5798C9.07935 10.5833 9.14152 10.613 9.18593 10.6623L9.92905 9.99313ZM9.06539 9.5812C8.73427 9.56386 8.40982 9.67876 8.16342 9.90064L8.83256 10.6438C8.88188 10.5994 8.94681 10.5764 9.01308 10.5798L9.06539 9.5812ZM8.16343 9.90063L6.42643 11.4646L7.09556 12.2078L8.83256 10.6438L8.16343 9.90063ZM6.42687 11.4642C5.69899 12.118 5.05904 12.6935 4.61177 13.2238L5.37621 13.8686C5.76894 13.4029 6.34899 12.8784 7.09511 12.2082L6.42687 11.4642ZM4.61078 13.225C4.1348 13.793 3.73999 14.4673 3.73999 15.3302H4.73999C4.73999 14.8011 4.97318 14.3494 5.3772 13.8674L4.61078 13.225ZM3.73999 15.3302C3.73999 16.1919 4.13356 16.8663 4.61144 17.4342L5.37654 16.7902C4.97242 16.3101 4.73999 15.8585 4.73999 15.3302H3.73999ZM4.61146 17.4342C5.05889 17.9658 5.69904 18.5414 6.42687 19.1952L7.09511 18.4512C6.34894 17.781 5.76909 17.2566 5.37653 16.7902L4.61146 17.4342ZM6.42643 19.1948L8.16343 20.7588L8.83256 20.0156L7.09556 18.4516L6.42643 19.1948ZM8.16342 20.7588C8.40982 20.9806 8.73427 21.0955 9.06539 21.0782L9.01308 20.0796C8.94681 20.083 8.88188 20.06 8.83256 20.0156L8.16342 20.7588ZM9.06539 21.0782C9.39651 21.0609 9.70718 20.9127 9.92905 20.6663L9.18593 19.9971C9.14152 20.0464 9.07935 20.0761 9.01308 20.0796L9.06539 21.0782ZM9.92905 20.6663C10.1509 20.4199 10.2658 20.0954 10.2485 19.7643L9.24986 19.8166C9.25333 19.8829 9.23033 19.9478 9.18593 19.9971L9.92905 20.6663ZM10.2485 19.7643C10.2311 19.4332 10.083 19.1225 9.83656 18.9006L9.16742 19.6438C9.21673 19.6882 9.24638 19.7503 9.24986 19.8166L10.2485 19.7643ZM9.83644 18.9005L8.13944 17.3735L7.47054 18.1169L9.16754 19.6439L9.83644 18.9005ZM8.13942 17.3735C7.34046 16.6546 6.84072 16.2002 6.52425 15.8249L5.75973 16.4695C6.13126 16.9102 6.69352 17.4178 7.47056 18.1169L8.13942 17.3735ZM6.5249 15.8257C6.23234 15.4773 6.23999 15.3594 6.23999 15.3292H5.23999C5.23999 15.691 5.39164 16.0311 5.75908 16.4687L6.5249 15.8257ZM6.23999 15.3292C6.23999 15.3002 6.23214 15.1824 6.5249 14.8337L5.75908 14.1907C5.39184 14.628 5.23999 14.9682 5.23999 15.3292H6.23999ZM6.52464 14.834C6.84082 14.4581 7.34032 14.0039 8.13916 13.2861L7.47082 12.5423C6.69366 13.2405 6.13116 13.7483 5.75934 14.1904L6.52464 14.834ZM8.13944 13.2859L9.83644 11.7589L9.16754 11.0155L7.47054 12.5425L8.13944 13.2859Z" fill="white" mask="url(#path-2-outside-1_506_1005)"/>
</svg>
