<svg width="36" height="36" viewBox="0 0 36 36" fill="none" xmlns="http://www.w3.org/2000/svg">
<path d="M22.8036 9.67855L22.4548 9.32984L22.8036 9.67855C23.09 9.39214 23.4324 9.25 23.863 9.25C24.2927 9.25 24.6349 9.39202 24.9214 9.67855L26.3214 11.0786C26.6147 11.3719 26.7625 11.7136 26.7752 12.1284C26.7877 12.5317 26.6573 12.8606 26.3714 13.1464L25.2979 14.22L21.7592 10.7229L22.8036 9.67855ZM9.64217 26.3591L9.64094 26.3578C9.54773 26.2649 9.5 26.1571 9.5 26V23.175C9.5 23.1059 9.51262 23.0401 9.53907 22.9741L9.53941 22.9733C9.56306 22.914 9.59919 22.8579 9.65355 22.8036L19.6 12.8571L23.1429 16.4L13.1964 26.3464L13.55 26.7L13.1964 26.3464C13.1417 26.4012 13.0857 26.4373 13.0272 26.4608C12.9602 26.4874 12.8939 26.5 12.825 26.5H10C9.84287 26.5 9.73505 26.4523 9.64217 26.3591Z" fill="#949494" stroke="#949494"/>
</svg>
