<svg width="36" height="36" viewBox="0 0 36 36" fill="none" xmlns="http://www.w3.org/2000/svg">
<g clip-path="url(#clip0_490_576)">
<path d="M30 18C30 14.6875 28.8281 11.8594 26.4844 9.51562C24.1406 7.17188 21.3125 6 18 6C14.6875 6 11.8594 7.17188 9.51562 9.51562C7.17188 11.8594 6 14.6875 6 18C6 20.6094 6.76562 22.957 8.29688 25.043C9.82812 27.1289 11.7969 28.5781 14.2031 29.3906C14.4844 29.4375 14.6914 29.3984 14.8242 29.2734C14.957 29.1484 15.0234 28.9922 15.0234 28.8047C15.0234 27.9922 15.0156 27.25 15 26.5781C14.9062 26.5938 14.7852 26.6133 14.6367 26.6367C14.4883 26.6602 14.2109 26.6758 13.8047 26.6836C13.3984 26.6914 13.0234 26.6602 12.6797 26.5898C12.3359 26.5195 11.9961 26.3633 11.6602 26.1211C11.3242 25.8789 11.0938 25.5547 10.9688 25.1484C10.6094 24.2266 9.63281 23.4141 9.63281 23.4141C9.63281 23.4141 9.56641 23.3711 9.52734 23.332C9.48828 23.293 9.40748 23.2229 9.33984 23.1445C9.26929 23.0627 9.17258 23.0298 9.17578 22.9219C9.17808 22.8441 9.21649 22.803 9.26953 22.7461C9.39316 22.6134 9.72656 22.6641 9.72656 22.6641C9.82031 22.6641 9.9375 22.6797 10.0781 22.7109C10.2188 22.7422 10.4531 22.8633 10.7812 23.0742C11.1094 23.2852 11.3672 23.5625 11.5547 23.9062C11.8047 24.3438 12.0977 24.6719 12.4336 24.8906C12.7695 25.1094 13.1094 25.2188 13.4531 25.2188C13.7969 25.2188 14.0938 25.1914 14.3438 25.1367C14.5938 25.082 14.8281 25.0078 15.0469 24.9141C15.1562 24.1797 15.4141 23.6406 15.8203 23.2969C15.0547 23.2031 14.3828 23.0586 13.8047 22.8633C13.2266 22.668 12.6562 22.3633 12.0938 21.9492C11.5312 21.5352 11.0977 20.9414 10.793 20.168C10.4883 19.3945 10.3359 18.4609 10.3359 17.3672C10.3359 16.1328 10.75 15.0625 11.5781 14.1562C11.2031 13.1875 11.2422 12.125 11.6953 10.9688C11.9922 10.875 12.418 10.9336 12.9727 11.1445C13.5273 11.3555 14 11.5859 14.3906 11.8359L15 12.2109C15.9062 11.9453 16.9062 11.8125 18 11.8125C19.0938 11.8125 20.0938 11.9453 21 12.2109C21.1719 12.1016 21.3945 11.9609 21.668 11.7891C21.9414 11.6172 22.375 11.4141 22.9688 11.1797C23.5625 10.9453 24.0078 10.875 24.3047 10.9688C24.7578 12.125 24.7969 13.1875 24.4219 14.1562C25.25 15.0625 25.6641 16.1328 25.6641 17.3672C25.6641 18.2578 25.5547 19.043 25.3359 19.7227C25.1172 20.4023 24.8398 20.9492 24.5039 21.3633C24.168 21.7773 23.75 22.125 23.25 22.4062C22.75 22.6875 22.2617 22.8906 21.7852 23.0156C21.3086 23.1406 20.7734 23.2344 20.1797 23.2969C20.7266 23.7812 21 24.5234 21 25.5234C21 26.1484 20.9961 26.8438 20.9883 27.6094C20.9805 28.375 20.9766 28.7734 20.9766 28.8047C20.9766 28.9922 21.043 29.1484 21.1758 29.2734C21.3086 29.3984 21.5156 29.4375 21.7969 29.3906C24.2031 28.5781 26.1719 27.1289 27.7031 25.043C29.2344 22.957 30 20.6094 30 18ZM36 6.75V29.25C36 31.1094 35.3398 32.6992 34.0195 34.0195C32.6992 35.3398 31.1094 36 29.25 36H6.75C4.89062 36 3.30078 35.3398 1.98047 34.0195C0.660156 32.6992 0 31.1094 0 29.25V6.75C0 4.89062 0.660156 3.30078 1.98047 1.98047C3.30078 0.660156 4.89062 0 6.75 0H29.25C31.1094 0 32.6992 0.660156 34.0195 1.98047C35.3398 3.30078 36 4.89062 36 6.75Z" fill="#848484"/>
</g>
<defs>
<clipPath id="clip0_490_576">
<rect width="36" height="36" fill="white"/>
</clipPath>
</defs>
</svg>
