<svg width="24" height="24" viewBox="0 0 24 24" fill="none" xmlns="http://www.w3.org/2000/svg">
<path d="M5.802 11.15L8.8517 8.10173L8.85171 8.10171C9.0113 7.94213 9.10095 7.72568 9.10095 7.5C9.10095 7.27432 9.0113 7.05787 8.85171 6.89829C8.69213 6.73871 8.47569 6.64905 8.25 6.64905C8.02432 6.64905 7.80787 6.73871 7.64829 6.89829L3.14838 11.3982L5.802 11.15ZM5.802 11.15H14.25C14.4754 11.15 14.6916 11.2396 14.851 11.399C15.0104 11.5584 15.1 11.7746 15.1 12C15.1 12.2254 15.0104 12.4416 14.851 12.601C14.6916 12.7604 14.4754 12.85 14.25 12.85H5.802L8.8517 15.8983L8.85171 15.8983C9.0113 16.0579 9.10095 16.2743 9.10095 16.5C9.10095 16.7257 9.0113 16.9421 8.85171 17.1017C8.69213 17.2613 8.47569 17.3509 8.25 17.3509C8.02432 17.3509 7.80787 17.2613 7.64829 17.1017L3.14838 12.6018L5.802 11.15ZM2.96357 12.3258C3.0064 12.429 3.06918 12.5228 3.14829 12.6017L2.96357 12.3258ZM2.96357 12.3258C2.92072 12.2225 2.89866 12.1118 2.89866 12M2.96357 12.3258L2.89866 12M2.89866 12C2.89866 11.8882 2.92072 11.7775 2.96357 11.6742M2.89866 12L2.96357 11.6742M2.96357 11.6742C3.0064 11.571 3.06918 11.4772 3.14829 11.3983L2.96357 11.6742ZM19.351 22.351C19.1916 22.5104 18.9754 22.6 18.75 22.6C18.5246 22.6 18.3084 22.5104 18.149 22.351C17.9896 22.1916 17.9 21.9754 17.9 21.75V2.25C17.9 2.02457 17.9896 1.80837 18.149 1.64896C18.3084 1.48955 18.5246 1.4 18.75 1.4C18.9754 1.4 19.1916 1.48955 19.351 1.64896C19.5104 1.80837 19.6 2.02457 19.6 2.25V21.75C19.6 21.9754 19.5104 22.1916 19.351 22.351Z" fill="#5896C0" stroke="#5896C0" stroke-width="0.2"/>
</svg>
