<svg width="25" height="19" viewBox="0 0 25 24" fill="none" xmlns="http://www.w3.org/2000/svg">
<path d="M6.302 11.15L9.3517 8.10173L9.35171 8.10171C9.5113 7.94213 9.60095 7.72568 9.60095 7.5C9.60095 7.27432 9.5113 7.05787 9.35171 6.89829C9.19213 6.73871 8.97569 6.64905 8.75 6.64905C8.52432 6.64905 8.30787 6.73871 8.14829 6.89829L3.64838 11.3982L6.302 11.15ZM6.302 11.15H14.75C14.9754 11.15 15.1916 11.2396 15.351 11.399C15.5104 11.5584 15.6 11.7746 15.6 12C15.6 12.2254 15.5104 12.4416 15.351 12.601C15.1916 12.7604 14.9754 12.85 14.75 12.85H6.302L9.3517 15.8983L9.35171 15.8983C9.5113 16.0579 9.60095 16.2743 9.60095 16.5C9.60095 16.7257 9.5113 16.9421 9.35171 17.1017C9.19213 17.2613 8.97569 17.3509 8.75 17.3509C8.52432 17.3509 8.30787 17.2613 8.14829 17.1017L3.64838 12.6018L6.302 11.15ZM3.46357 12.3258C3.5064 12.429 3.56918 12.5228 3.64829 12.6017L3.46357 12.3258ZM3.46357 12.3258C3.42072 12.2225 3.39866 12.1118 3.39866 12M3.46357 12.3258L3.39866 12M3.39866 12C3.39866 11.8882 3.42072 11.7775 3.46357 11.6742M3.39866 12L3.46357 11.6742M3.46357 11.6742C3.5064 11.571 3.56918 11.4772 3.64829 11.3983L3.46357 11.6742ZM19.851 22.351C19.6916 22.5104 19.4754 22.6 19.25 22.6C19.0246 22.6 18.8084 22.5104 18.649 22.351C18.4896 22.1916 18.4 21.9754 18.4 21.75V2.25C18.4 2.02457 18.4896 1.80837 18.649 1.64896C18.8084 1.48955 19.0246 1.4 19.25 1.4C19.4754 1.4 19.6916 1.48955 19.851 1.64896C20.0104 1.80837 20.1 2.02457 20.1 2.25V21.75C20.1 21.9754 20.0104 22.1916 19.851 22.351Z" fill="#737373" stroke="#737373" stroke-width="0.2"/>
</svg>

