<svg width="62" height="62" viewBox="0 0 62 62" fill="none" xmlns="http://www.w3.org/2000/svg">
<rect width="62" height="62" rx="9.09817" fill="url(#paint0_linear_489_533)"/>
<path fill-rule="evenodd" clip-rule="evenodd" d="M24.2599 23.1414H36.7399C43.0661 23.1414 46.2311 23.1414 48.0086 24.992C49.7843 26.8426 49.3661 29.7001 48.5299 35.417L47.7386 40.8395C47.0824 45.3226 46.7543 47.5651 45.0724 48.9076C43.3905 50.2501 40.9099 50.2501 35.9468 50.2501H25.053C20.0918 50.2501 17.6093 50.2501 15.9274 48.9076C14.2455 47.5651 13.9174 45.3226 13.2611 40.8395L12.4699 35.417C11.6318 29.7001 11.2136 26.8426 12.9911 24.992C14.7686 23.1414 17.9336 23.1414 24.2599 23.1414ZM22.9999 42.7501C22.9999 41.9739 23.6993 41.3439 24.5618 41.3439H36.438C37.3005 41.3439 37.9999 41.9739 37.9999 42.7501C37.9999 43.5264 37.3005 44.1564 36.438 44.1564H24.5618C23.6993 44.1564 22.9999 43.5264 22.9999 42.7501Z" fill="url(#paint1_linear_489_533)"/>
<path d="M23.9563 12.75H37.0438C37.4806 12.75 37.8125 12.75 38.1069 12.7781C40.1844 12.9825 41.8831 14.2313 42.605 15.9131H18.395C19.1169 14.2313 20.8175 12.9825 22.895 12.7781C23.1856 12.75 23.5213 12.75 23.9563 12.75Z" fill="url(#paint2_linear_489_533)"/>
<path d="M19.8313 17.8557C17.2251 17.8557 15.0876 19.4307 14.3751 21.5176C14.3595 21.5611 14.3445 21.6049 14.3301 21.6488C15.0858 21.4279 15.8584 21.2692 16.6401 21.1745C18.6651 20.9157 21.2263 20.9157 24.2001 20.9157H37.1226C40.0963 20.9157 42.6576 20.9157 44.6826 21.1745C45.4701 21.2757 46.2463 21.4238 46.9926 21.6488C46.9788 21.6049 46.9644 21.5611 46.9495 21.5176C46.237 19.4288 44.0995 17.8557 41.4913 17.8557H19.8313Z" fill="url(#paint3_linear_489_533)"/>
<defs>
<linearGradient id="paint0_linear_489_533" x1="0" y1="0" x2="62" y2="58.5" gradientUnits="userSpaceOnUse">
<stop stop-color="#7EA9EB"/>
<stop offset="1" stop-color="#4265E0"/>
</linearGradient>
<linearGradient id="paint1_linear_489_533" x1="30.4992" y1="23.1414" x2="30.4992" y2="50.2501" gradientUnits="userSpaceOnUse">
<stop stop-color="#F3F0F8"/>
<stop offset="1" stop-color="#C7C6EE"/>
</linearGradient>
<linearGradient id="paint2_linear_489_533" x1="30.5" y1="12.75" x2="30.5" y2="15.9131" gradientUnits="userSpaceOnUse">
<stop stop-color="#F3F0F8"/>
<stop offset="1" stop-color="#C7C6EE"/>
</linearGradient>
<linearGradient id="paint3_linear_489_533" x1="30.6613" y1="17.8557" x2="30.6613" y2="21.6488" gradientUnits="userSpaceOnUse">
<stop stop-color="#F3F0F8"/>
<stop offset="1" stop-color="#C7C6EE"/>
</linearGradient>
</defs>
</svg>
