<svg width="62" height="62" viewBox="0 0 62 62" fill="none" xmlns="http://www.w3.org/2000/svg">
<rect width="62" height="62" rx="9.09817" fill="#F2F2F2"/>
<path fill-rule="evenodd" clip-rule="evenodd" d="M24.2599 23.1412H36.7399C43.0661 23.1412 46.2311 23.1412 48.0086 24.9919C49.7843 26.8425 49.3661 29.7 48.5299 35.4169L47.7386 40.8394C47.0824 45.3225 46.7543 47.565 45.0724 48.9075C43.3905 50.25 40.9099 50.25 35.9468 50.25H25.053C20.0918 50.25 17.6093 50.25 15.9274 48.9075C14.2455 47.565 13.9174 45.3225 13.2611 40.8394L12.4699 35.4169C11.6318 29.7 11.2136 26.8425 12.9911 24.9919C14.7686 23.1412 17.9336 23.1412 24.2599 23.1412ZM22.9999 42.75C22.9999 41.9737 23.6993 41.3437 24.5618 41.3437H36.438C37.3005 41.3437 37.9999 41.9737 37.9999 42.75C37.9999 43.5262 37.3005 44.1562 36.438 44.1562H24.5618C23.6993 44.1562 22.9999 43.5262 22.9999 42.75Z" fill="url(#paint0_linear_495_714)"/>
<path d="M23.9563 12.75H37.0438C37.4806 12.75 37.8125 12.75 38.1069 12.7781C40.1844 12.9825 41.8831 14.2313 42.605 15.9131H18.395C19.1169 14.2313 20.8175 12.9825 22.895 12.7781C23.1856 12.75 23.5213 12.75 23.9563 12.75Z" fill="url(#paint1_linear_495_714)"/>
<path d="M19.8313 17.8556C17.2251 17.8556 15.0876 19.4306 14.3751 21.5175C14.3595 21.561 14.3445 21.6048 14.3301 21.6487C15.0858 21.4278 15.8584 21.2691 16.6401 21.1743C18.6651 20.9156 21.2263 20.9156 24.2001 20.9156H37.1226C40.0963 20.9156 42.6576 20.9156 44.6826 21.1743C45.4701 21.2756 46.2463 21.4237 46.9926 21.6487C46.9788 21.6048 46.9644 21.561 46.9495 21.5175C46.237 19.4287 44.0995 17.8556 41.4913 17.8556H19.8313Z" fill="url(#paint2_linear_495_714)"/>
<defs>
<linearGradient id="paint0_linear_495_714" x1="11.4991" y1="23.139" x2="26.2803" y2="59.4854" gradientUnits="userSpaceOnUse">
<stop stop-color="#72D4E1"/>
<stop offset="1" stop-color="#4050DE"/>
</linearGradient>
<linearGradient id="paint1_linear_495_714" x1="18.2335" y1="12.7497" x2="18.5948" y2="17.6656" gradientUnits="userSpaceOnUse">
<stop stop-color="#72D4E1"/>
<stop offset="1" stop-color="#4050DE"/>
</linearGradient>
<linearGradient id="paint2_linear_495_714" x1="14.1121" y1="17.8553" x2="14.4977" y2="23.7569" gradientUnits="userSpaceOnUse">
<stop stop-color="#72D4E1"/>
<stop offset="1" stop-color="#4050DE"/>
</linearGradient>
</defs>
</svg>
