<svg viewBox="0 0 302 28" fill="none" xmlns="http://www.w3.org/2000/svg">
<path d="M52.2999 4.15937V7.13537H42.8577V13.6954H50.2194V16.6714H42.8577V26.3994H39.2089V4.15937H52.2999Z" fill="#737373"/>
<path d="M57.5378 6.43138C56.8763 6.43138 56.3215 6.20738 55.8734 5.75938C55.4253 5.31138 55.2013 4.75671 55.2013 4.09538C55.2013 3.43404 55.4253 2.87938 55.8734 2.43138C56.3215 1.98338 56.8763 1.75937 57.5378 1.75937C58.1779 1.75937 58.7221 1.98338 59.1702 2.43138C59.6183 2.87938 59.8423 3.43404 59.8423 4.09538C59.8423 4.75671 59.6183 5.31138 59.1702 5.75938C58.7221 6.20738 58.1779 6.43138 57.5378 6.43138ZM59.3302 8.76738V26.3994H55.6814V8.76738H59.3302Z" fill="#737373"/>
<path d="M73.0188 8.47938C74.4058 8.47938 75.6434 8.76738 76.7317 9.34338C77.8412 9.91938 78.7054 10.7727 79.3242 11.9034C79.9431 13.034 80.2525 14.3994 80.2525 15.9994V26.3994H76.6356V16.5434C76.6356 14.9647 76.2409 13.7594 75.4514 12.9274C74.6619 12.074 73.5843 11.6474 72.2186 11.6474C70.853 11.6474 69.7647 12.074 68.9539 12.9274C68.1644 13.7594 67.7696 14.9647 67.7696 16.5434V26.3994H64.1208V8.76738H67.7696V10.7834C68.3671 10.058 69.1246 9.49271 70.0421 9.08738C70.981 8.68204 71.9732 8.47938 73.0188 8.47938Z" fill="#737373"/>
<path d="M83.6905 17.5034C83.6905 15.7327 84.0532 14.1647 84.7787 12.7994C85.5256 11.434 86.5285 10.378 87.7874 9.63138C89.0677 8.86338 90.476 8.47938 92.0124 8.47938C93.3994 8.47938 94.605 8.75671 95.6292 9.31138C96.6748 9.84471 97.507 10.5167 98.1258 11.3274V8.76738H101.807V26.3994H98.1258V23.7754C97.507 24.6074 96.6641 25.3007 95.5972 25.8554C94.5303 26.41 93.314 26.6874 91.9484 26.6874C90.4333 26.6874 89.0464 26.3034 87.7874 25.5354C86.5285 24.746 85.5256 23.658 84.7787 22.2714C84.0532 20.8634 83.6905 19.274 83.6905 17.5034ZM98.1258 17.5674C98.1258 16.3514 97.8697 15.2954 97.3576 14.3994C96.8668 13.5034 96.216 12.8207 95.4051 12.3514C94.5943 11.882 93.7194 11.6474 92.7805 11.6474C91.8417 11.6474 90.9668 11.882 90.156 12.3514C89.3451 12.7994 88.6836 13.4714 88.1715 14.3674C87.6807 15.242 87.4353 16.2874 87.4353 17.5034C87.4353 18.7194 87.6807 19.786 88.1715 20.7034C88.6836 21.6207 89.3451 22.3247 90.156 22.8154C90.9881 23.2847 91.863 23.5194 92.7805 23.5194C93.7194 23.5194 94.5943 23.2847 95.4051 22.8154C96.216 22.346 96.8668 21.6634 97.3576 20.7674C97.8697 19.85 98.1258 18.7834 98.1258 17.5674Z" fill="#737373"/>
<path d="M115.497 8.47938C116.884 8.47938 118.122 8.76738 119.21 9.34338C120.32 9.91938 121.184 10.7727 121.803 11.9034C122.421 13.034 122.731 14.3994 122.731 15.9994V26.3994H119.114V16.5434C119.114 14.9647 118.719 13.7594 117.93 12.9274C117.14 12.074 116.063 11.6474 114.697 11.6474C113.331 11.6474 112.243 12.074 111.432 12.9274C110.643 13.7594 110.248 14.9647 110.248 16.5434V26.3994H106.599V8.76738H110.248V10.7834C110.845 10.058 111.603 9.49271 112.521 9.08738C113.459 8.68204 114.452 8.47938 115.497 8.47938Z" fill="#737373"/>
<path d="M126.169 17.5674C126.169 15.754 126.532 14.1647 127.257 12.7994C128.004 11.4127 129.028 10.346 130.33 9.59938C131.631 8.85271 133.125 8.47938 134.811 8.47938C136.945 8.47938 138.705 8.99138 140.092 10.0154C141.5 11.018 142.45 12.458 142.941 14.3354H139.004C138.684 13.4607 138.172 12.778 137.467 12.2874C136.763 11.7967 135.878 11.5514 134.811 11.5514C133.317 11.5514 132.122 12.0847 131.226 13.1514C130.351 14.1967 129.914 15.6687 129.914 17.5674C129.914 19.466 130.351 20.9487 131.226 22.0154C132.122 23.082 133.317 23.6154 134.811 23.6154C136.923 23.6154 138.321 22.6874 139.004 20.8314H142.941C142.429 22.6234 141.468 24.0527 140.06 25.1194C138.652 26.1647 136.902 26.6874 134.811 26.6874C133.125 26.6874 131.631 26.314 130.33 25.5674C129.028 24.7994 128.004 23.7327 127.257 22.3674C126.532 20.9807 126.169 19.3807 126.169 17.5674Z" fill="#737373"/>
<path d="M148.433 6.43138C147.772 6.43138 147.217 6.20738 146.769 5.75938C146.321 5.31138 146.097 4.75671 146.097 4.09538C146.097 3.43404 146.321 2.87938 146.769 2.43138C147.217 1.98338 147.772 1.75937 148.433 1.75937C149.074 1.75937 149.618 1.98338 150.066 2.43138C150.514 2.87938 150.738 3.43404 150.738 4.09538C150.738 4.75671 150.514 5.31138 150.066 5.75938C149.618 6.20738 149.074 6.43138 148.433 6.43138ZM150.226 8.76738V26.3994H146.577V8.76738H150.226Z" fill="#737373"/>
<path d="M153.8 17.5034C153.8 15.7327 154.163 14.1647 154.888 12.7994C155.635 11.434 156.638 10.378 157.897 9.63138C159.177 8.86338 160.586 8.47938 162.122 8.47938C163.509 8.47938 164.715 8.75671 165.739 9.31138C166.784 9.84471 167.617 10.5167 168.235 11.3274V8.76738H171.916V26.3994H168.235V23.7754C167.617 24.6074 166.774 25.3007 165.707 25.8554C164.64 26.41 163.424 26.6874 162.058 26.6874C160.543 26.6874 159.156 26.3034 157.897 25.5354C156.638 24.746 155.635 23.658 154.888 22.2714C154.163 20.8634 153.8 19.274 153.8 17.5034ZM168.235 17.5674C168.235 16.3514 167.979 15.2954 167.467 14.3994C166.976 13.5034 166.326 12.8207 165.515 12.3514C164.704 11.882 163.829 11.6474 162.89 11.6474C161.951 11.6474 161.076 11.882 160.266 12.3514C159.455 12.7994 158.793 13.4714 158.281 14.3674C157.79 15.242 157.545 16.2874 157.545 17.5034C157.545 18.7194 157.79 19.786 158.281 20.7034C158.793 21.6207 159.455 22.3247 160.266 22.8154C161.098 23.2847 161.973 23.5194 162.89 23.5194C163.829 23.5194 164.704 23.2847 165.515 22.8154C166.326 22.346 166.976 21.6634 167.467 20.7674C167.979 19.85 168.235 18.7834 168.235 17.5674Z" fill="#737373"/>
<path d="M180.358 2.71938V26.3994H176.709V2.71938H180.358Z" fill="#737373"/>
<path d="M198.687 13.2794V16.3514H185.532V13.2794H198.687Z" fill="#737373"/>
<path d="M211.137 4.15937C213.505 4.15937 215.575 4.61804 217.346 5.53538C219.139 6.43138 220.515 7.73271 221.475 9.43938C222.457 11.1247 222.948 13.098 222.948 15.3594C222.948 17.6207 222.457 19.5834 221.475 21.2474C220.515 22.9114 219.139 24.1914 217.346 25.0874C215.575 25.962 213.505 26.3994 211.137 26.3994H203.871V4.15937H211.137ZM211.137 23.4234C213.74 23.4234 215.735 22.7194 217.122 21.3114C218.509 19.9034 219.203 17.9194 219.203 15.3594C219.203 12.778 218.509 10.762 217.122 9.31138C215.735 7.86071 213.74 7.13537 211.137 7.13537H207.52V23.4234H211.137Z" fill="#737373"/>
<path d="M242.728 17.1514C242.728 17.8127 242.685 18.41 242.6 18.9434H229.124C229.231 20.3514 229.754 21.482 230.693 22.3354C231.632 23.1887 232.784 23.6154 234.15 23.6154C236.113 23.6154 237.5 22.794 238.311 21.1514H242.247C241.714 22.7727 240.743 24.106 239.335 25.1514C237.948 26.1754 236.219 26.6874 234.15 26.6874C232.464 26.6874 230.949 26.314 229.605 25.5674C228.282 24.7994 227.236 23.7327 226.468 22.3674C225.721 20.9807 225.348 19.3807 225.348 17.5674C225.348 15.754 225.71 14.1647 226.436 12.7994C227.183 11.4127 228.218 10.346 229.541 9.59938C230.885 8.85271 232.421 8.47938 234.15 8.47938C235.814 8.47938 237.297 8.84204 238.599 9.56738C239.9 10.2927 240.914 11.3167 241.639 12.6394C242.365 13.9407 242.728 15.4447 242.728 17.1514ZM238.919 15.9994C238.897 14.6554 238.417 13.578 237.478 12.7674C236.54 11.9567 235.377 11.5514 233.99 11.5514C232.731 11.5514 231.653 11.9567 230.757 12.7674C229.861 13.5567 229.327 14.634 229.156 15.9994H238.919Z" fill="#737373"/>
<path d="M253.136 23.1354L258.129 8.76738H262.002L255.28 26.3994H250.927L244.238 8.76738H248.143L253.136 23.1354Z" fill="#737373"/>
<path d="M277.019 26.3994L268.409 16.4474V26.3994H264.76V4.15937H268.409V14.3034L277.051 4.15937H281.628L271.962 15.2954L281.788 26.3994H277.019Z" fill="#737373"/>
<path d="M286.871 6.43138C286.21 6.43138 285.655 6.20738 285.207 5.75938C284.759 5.31138 284.535 4.75671 284.535 4.09538C284.535 3.43404 284.759 2.87938 285.207 2.43138C285.655 1.98338 286.21 1.75937 286.871 1.75937C287.511 1.75937 288.055 1.98338 288.503 2.43138C288.952 2.87938 289.176 3.43404 289.176 4.09538C289.176 4.75671 288.952 5.31138 288.503 5.75938C288.055 6.20738 287.511 6.43138 286.871 6.43138ZM288.663 8.76738V26.3994H285.015V8.76738H288.663Z" fill="#737373"/>
<path d="M297.711 11.7434V21.5034C297.711 22.1647 297.86 22.6447 298.159 22.9434C298.479 23.2207 299.013 23.3594 299.759 23.3594H302V26.3994H299.119C297.476 26.3994 296.217 26.0154 295.342 25.2474C294.468 24.4794 294.03 23.2314 294.03 21.5034V11.7434H291.95V8.76738H294.03V4.38338H297.711V8.76738H302V11.7434H297.711Z" fill="#737373"/>
<path d="M25.4615 18.6667C24.3912 18.6678 23.3626 19.0752 22.5894 19.8042L18.3997 16.5958C18.7631 15.9859 18.9524 15.2905 18.9475 14.5833C18.9456 14.3386 18.9208 14.0945 18.8735 13.8542L21.7603 12.9208C22.2178 13.8143 22.9924 14.5111 23.937 14.8791C24.8816 15.2471 25.9305 15.2606 26.8846 14.9171C27.8387 14.5736 28.6315 13.8969 29.1125 13.0156C29.5935 12.1342 29.7293 11.1096 29.494 10.1362C29.2587 9.16274 28.6688 8.3083 27.8362 7.73506C27.0035 7.16183 25.9863 6.9097 24.9774 7.02655C23.9685 7.1434 23.0383 7.62109 22.3634 8.36893C21.6885 9.11677 21.3158 10.0827 21.3162 11.0833C21.3181 11.3281 21.3428 11.5722 21.3902 11.8125L18.5033 12.7458C18.1566 12.0717 17.6274 11.5052 16.9743 11.1088C16.3211 10.7125 15.5694 10.5018 14.8022 10.5C14.4214 10.5012 14.0426 10.5552 13.6771 10.6604L12.2706 7.53958C13.1162 7.01558 13.7412 6.20841 14.0307 5.26659C14.3202 4.32477 14.2546 3.31165 13.8462 2.41363C13.4377 1.51562 12.7137 0.79312 11.8075 0.379066C10.9013 -0.0349881 9.87371 -0.112743 8.91391 0.160108C7.95411 0.432959 7.12663 1.03806 6.5837 1.86408C6.04077 2.6901 5.81892 3.68147 5.95897 4.6558C6.09902 5.63012 6.59155 6.52185 7.34593 7.16693C8.10032 7.812 9.06581 8.16702 10.0648 8.16667C10.4456 8.16549 10.8244 8.11149 11.1899 8.00625L12.5963 11.1271C12.1291 11.4161 11.7252 11.7942 11.4082 12.239C11.0912 12.6838 10.8676 13.1865 10.7504 13.7176C10.6332 14.2486 10.6248 14.7974 10.7257 15.3317C10.8266 15.866 11.0347 16.3751 11.338 16.8292L6.80779 20.7958C6.06481 20.1716 5.11947 19.8302 4.14298 19.8333C3.22014 19.8338 2.32385 20.1377 1.59613 20.6967C0.868403 21.2557 0.350862 22.038 0.125502 22.9195C-0.099858 23.801 -0.0201492 24.7315 0.352 25.5633C0.724149 26.3952 1.36745 27.0809 2.17999 27.5119C2.99253 27.9429 3.92784 28.0945 4.83772 27.9426C5.74759 27.7908 6.58001 27.3442 7.20308 26.6736C7.82616 26.003 8.20425 25.1468 8.27746 24.2406C8.35066 23.3344 8.1148 22.43 7.60723 21.6708L12.1374 17.7042C12.8804 18.3284 13.8257 18.6698 14.8022 18.6667C15.8725 18.6655 16.9011 18.2581 17.6743 17.5292L21.864 20.7375C21.5006 21.3474 21.3113 22.0428 21.3162 22.75C21.3162 23.5576 21.5593 24.3471 22.0148 25.0186C22.4703 25.6901 23.1177 26.2134 23.8751 26.5225C24.6326 26.8316 25.466 26.9124 26.2701 26.7549C27.0743 26.5973 27.8129 26.2084 28.3926 25.6373C28.9723 25.0663 29.3671 24.3387 29.5271 23.5466C29.687 22.7545 29.6049 21.9335 29.2912 21.1874C28.9774 20.4412 28.4461 19.8035 27.7644 19.3548C27.0828 18.9061 26.2813 18.6667 25.4615 18.6667ZM25.4615 8.16667C26.0471 8.16667 26.6195 8.33773 27.1064 8.65821C27.5934 8.9787 27.9729 9.43422 28.197 9.96717C28.4211 10.5001 28.4797 11.0866 28.3655 11.6523C28.2512 12.2181 27.9692 12.7378 27.5551 13.1457C27.141 13.5536 26.6135 13.8314 26.0391 13.944C25.4647 14.0565 24.8694 13.9987 24.3284 13.778C23.7873 13.5572 23.3249 13.1834 22.9996 12.7037C22.6742 12.2241 22.5006 11.6602 22.5006 11.0833C22.5044 10.311 22.8176 9.57133 23.3721 9.02518C23.9265 8.47902 24.6774 8.1705 25.4615 8.16667ZM7.10388 4.08333C7.10388 3.50647 7.27753 2.94257 7.60288 2.46292C7.92823 1.98328 8.39066 1.60944 8.93169 1.38869C9.47273 1.16793 10.0681 1.11017 10.6424 1.22271C11.2168 1.33525 11.7444 1.61304 12.1584 2.02094C12.5725 2.42884 12.8545 2.94854 12.9688 3.51432C13.083 4.0801 13.0244 4.66654 12.8003 5.19949C12.5762 5.73245 12.1967 6.18797 11.7098 6.50845C11.2228 6.82894 10.6504 7 10.0648 7C9.2807 6.99617 8.52984 6.68765 7.97541 6.14149C7.42097 5.59534 7.10777 4.8557 7.10388 4.08333ZM4.14298 26.8333C3.55737 26.8333 2.98491 26.6623 2.49799 26.3418C2.01108 26.0213 1.63157 25.5658 1.40747 25.0328C1.18337 24.4999 1.12473 23.9134 1.23898 23.3476C1.35322 22.7819 1.63522 22.2622 2.04931 21.8543C2.4634 21.4464 2.99098 21.1686 3.56534 21.056C4.1397 20.9435 4.73504 21.0013 5.27607 21.222C5.8171 21.4428 6.27953 21.8166 6.60488 22.2962C6.93023 22.7759 7.10388 23.3398 7.10388 23.9167C7.09999 24.689 6.78679 25.4287 6.23235 25.9748C5.67792 26.521 4.92706 26.8295 4.14298 26.8333ZM14.8022 17.5C14.2166 17.5 13.6441 17.3289 13.1572 17.0085C12.6703 16.688 12.2908 16.2324 12.0667 15.6995C11.8426 15.1665 11.784 14.5801 11.8982 14.0143C12.0125 13.4485 12.2945 12.9288 12.7085 12.5209C13.1226 12.113 13.6502 11.8352 14.2246 11.7227C14.7989 11.6102 15.3943 11.6679 15.9353 11.8887C16.4763 12.1094 16.9388 12.4833 17.2641 12.9629C17.5895 13.4426 17.7631 14.0065 17.7631 14.5833C17.7592 15.3557 17.446 16.0953 16.8916 16.6415C16.3372 17.1876 15.5863 17.4962 14.8022 17.5ZM25.4615 25.6667C24.8758 25.6667 24.3034 25.4956 23.8165 25.1751C23.3295 24.8546 22.95 24.3991 22.7259 23.8662C22.5018 23.3332 22.4432 22.7468 22.5574 22.181C22.6717 21.6152 22.9537 21.0955 23.3678 20.6876C23.7819 20.2797 24.3094 20.0019 24.8838 19.8894C25.4582 19.7768 26.0535 19.8346 26.5945 20.0553C27.1356 20.2761 27.598 20.6499 27.9233 21.1296C28.2487 21.6092 28.4223 22.1731 28.4223 22.75C28.4185 23.5224 28.1053 24.262 27.5508 24.8082C26.9964 25.3543 26.2455 25.6628 25.4615 25.6667Z" fill="#737373"/>
<path d="M25.4615 8.16667C26.0471 8.16667 26.6195 8.33773 27.1064 8.65821C27.5934 8.9787 27.9729 9.43422 28.197 9.96717C28.4211 10.5001 28.4797 11.0866 28.3655 11.6523C28.2512 12.2181 27.9692 12.7378 27.5551 13.1457C27.141 13.5536 26.6135 13.8314 26.0391 13.944C25.4647 14.0565 24.8694 13.9987 24.3284 13.778C23.7873 13.5572 23.3249 13.1834 22.9996 12.7037C22.6742 12.2241 22.5006 11.6602 22.5006 11.0833C22.5044 10.311 22.8176 9.57133 23.3721 9.02518C23.9265 8.47902 24.6774 8.1705 25.4615 8.16667Z" fill="#737373"/>
<path d="M4.14298 26.8333C3.55737 26.8333 2.98491 26.6623 2.49799 26.3418C2.01108 26.0213 1.63157 25.5658 1.40747 25.0328C1.18337 24.4999 1.12473 23.9134 1.23898 23.3476C1.35322 22.7819 1.63522 22.2622 2.04931 21.8543C2.4634 21.4464 2.99098 21.1686 3.56534 21.056C4.1397 20.9435 4.73504 21.0013 5.27607 21.222C5.8171 21.4428 6.27953 21.8166 6.60488 22.2962C6.93023 22.7759 7.10388 23.3398 7.10388 23.9167C7.09999 24.689 6.78679 25.4287 6.23235 25.9748C5.67792 26.521 4.92706 26.8295 4.14298 26.8333Z" fill="#737373"/>
</svg>
