<svg width="18" height="22" viewBox="0 0 18 22" fill="none" xmlns="http://www.w3.org/2000/svg">
<path d="M3.302 10.15L6.3517 7.10173L6.35171 7.10171C6.5113 6.94213 6.60095 6.72568 6.60095 6.5C6.60095 6.27432 6.5113 6.05787 6.35171 5.89829C6.19213 5.73871 5.97569 5.64905 5.75 5.64905C5.52432 5.64905 5.30787 5.73871 5.14829 5.89829L0.64838 10.3982L3.302 10.15ZM3.302 10.15H11.75C11.9754 10.15 12.1916 10.2396 12.351 10.399C12.5104 10.5584 12.6 10.7746 12.6 11C12.6 11.2254 12.5104 11.4416 12.351 11.601C12.1916 11.7604 11.9754 11.85 11.75 11.85H3.302L6.3517 14.8983L6.35171 14.8983C6.5113 15.0579 6.60095 15.2743 6.60095 15.5C6.60095 15.7257 6.5113 15.9421 6.35171 16.1017C6.19213 16.2613 5.97569 16.3509 5.75 16.3509C5.52432 16.3509 5.30787 16.2613 5.14829 16.1017L0.64838 11.6018L3.302 10.15ZM0.46357 11.3258C0.506405 11.429 0.569176 11.5228 0.648291 11.6017L0.46357 11.3258ZM0.46357 11.3258C0.420719 11.2225 0.398661 11.1118 0.398661 11M0.46357 11.3258L0.398661 11M0.398661 11C0.398661 10.8882 0.420719 10.7775 0.46357 10.6742M0.398661 11L0.46357 10.6742M0.46357 10.6742C0.506405 10.571 0.569176 10.4772 0.648291 10.3983L0.46357 10.6742ZM16.851 21.351C16.6916 21.5104 16.4754 21.6 16.25 21.6C16.0246 21.6 15.8084 21.5104 15.649 21.351C15.4896 21.1916 15.4 20.9754 15.4 20.75V1.25C15.4 1.02457 15.4896 0.808365 15.649 0.648959C15.8084 0.489553 16.0246 0.4 16.25 0.4C16.4754 0.4 16.6916 0.489553 16.851 0.648959C17.0104 0.808365 17.1 1.02457 17.1 1.25V20.75C17.1 20.9754 17.0104 21.1916 16.851 21.351Z" fill="#5896C0" stroke="#5896C0" stroke-width="0.2"/>
</svg>
