<svg width="285" height="40" viewBox="0 0 285 40" fill="none" xmlns="http://www.w3.org/2000/svg">
<path d="M31.4615 24.6667C30.3912 24.6678 29.3626 25.0752 28.5894 25.8042L24.3997 22.5958C24.7631 21.9859 24.9524 21.2905 24.9475 20.5833C24.9456 20.3386 24.9208 20.0945 24.8735 19.8542L27.7603 18.9208C28.2178 19.8143 28.9924 20.5111 29.937 20.8791C30.8816 21.2471 31.9305 21.2606 32.8846 20.9171C33.8387 20.5736 34.6315 19.8969 35.1125 19.0156C35.5935 18.1342 35.7293 17.1096 35.494 16.1362C35.2587 15.1627 34.6688 14.3083 33.8362 13.7351C33.0036 13.1618 31.9863 12.9097 30.9774 13.0265C29.9685 13.1434 29.0383 13.6211 28.3634 14.3689C27.6885 15.1168 27.3158 16.0827 27.3162 17.0833C27.3181 17.3281 27.3428 17.5722 27.3902 17.8125L24.5033 18.7458C24.1566 18.0717 23.6274 17.5052 22.9743 17.1088C22.3211 16.7125 21.5694 16.5018 20.8022 16.5C20.4214 16.5012 20.0426 16.5552 19.6771 16.6604L18.2706 13.5396C19.1162 13.0156 19.7412 12.2084 20.0307 11.2666C20.3202 10.3248 20.2546 9.31165 19.8462 8.41363C19.4377 7.51562 18.7137 6.79312 17.8075 6.37907C16.9013 5.96501 15.8737 5.88726 14.9139 6.16011C13.9541 6.43296 13.1266 7.03806 12.5837 7.86408C12.0408 8.6901 11.8189 9.68147 11.959 10.6558C12.099 11.6301 12.5915 12.5219 13.3459 13.1669C14.1003 13.812 15.0658 14.167 16.0648 14.1667C16.4456 14.1655 16.8244 14.1115 17.1899 14.0063L18.5963 17.1271C18.1291 17.4161 17.7252 17.7942 17.4082 18.239C17.0912 18.6838 16.8676 19.1865 16.7504 19.7176C16.6332 20.2486 16.6248 20.7974 16.7257 21.3317C16.8266 21.866 17.0347 22.3751 17.338 22.8292L12.8078 26.7958C12.0648 26.1716 11.1195 25.8302 10.143 25.8333C9.22014 25.8338 8.32385 26.1377 7.59613 26.6967C6.8684 27.2557 6.35086 28.038 6.1255 28.9195C5.90014 29.801 5.97985 30.7315 6.352 31.5633C6.72415 32.3952 7.36745 33.0809 8.17999 33.5119C8.99253 33.9429 9.92784 34.0945 10.8377 33.9426C11.7476 33.7908 12.58 33.3442 13.2031 32.6736C13.8262 32.003 14.2042 31.1468 14.2775 30.2406C14.3507 29.3344 14.1148 28.43 13.6072 27.6708L18.1374 23.7042C18.8804 24.3284 19.8257 24.6698 20.8022 24.6667C21.8725 24.6655 22.9011 24.2581 23.6743 23.5292L27.864 26.7375C27.5005 27.3474 27.3113 28.0428 27.3162 28.75C27.3162 29.5576 27.5593 30.3471 28.0148 31.0186C28.4703 31.6901 29.1177 32.2134 29.8751 32.5225C30.6326 32.8316 31.466 32.9124 32.2701 32.7549C33.0743 32.5973 33.8129 32.2084 34.3926 31.6373C34.9723 31.0663 35.3671 30.3387 35.5271 29.5466C35.687 28.7545 35.6049 27.9335 35.2912 27.1874C34.9774 26.4412 34.4461 25.8035 33.7644 25.3548C33.0828 24.9061 32.2813 24.6667 31.4615 24.6667ZM31.4615 14.1667C32.0471 14.1667 32.6195 14.3377 33.1064 14.6582C33.5934 14.9787 33.9729 15.4342 34.197 15.9672C34.4211 16.5001 34.4797 17.0866 34.3655 17.6523C34.2512 18.2181 33.9692 18.7378 33.5551 19.1457C33.141 19.5536 32.6135 19.8314 32.0391 19.944C31.4647 20.0565 30.8694 19.9987 30.3284 19.778C29.7873 19.5572 29.3249 19.1834 28.9996 18.7037C28.6742 18.2241 28.5006 17.6602 28.5006 17.0833C28.5044 16.311 28.8176 15.5713 29.3721 15.0252C29.9265 14.479 30.6774 14.1705 31.4615 14.1667ZM13.1039 10.0833C13.1039 9.50647 13.2775 8.94257 13.6029 8.46292C13.9282 7.98328 14.3907 7.60944 14.9317 7.38869C15.4727 7.16793 16.0681 7.11017 16.6424 7.22271C17.2168 7.33525 17.7444 7.61304 18.1584 8.02094C18.5725 8.42884 18.8545 8.94854 18.9688 9.51432C19.083 10.0801 19.0244 10.6665 18.8003 11.1995C18.5762 11.7324 18.1967 12.188 17.7098 12.5085C17.2229 12.8289 16.6504 13 16.0648 13C15.2807 12.9962 14.5298 12.6876 13.9754 12.1415C13.421 11.5953 13.1078 10.8557 13.1039 10.0833ZM10.143 32.8333C9.55737 32.8333 8.98491 32.6623 8.49799 32.3418C8.01108 32.0213 7.63157 31.5658 7.40747 31.0328C7.18337 30.4999 7.12473 29.9134 7.23898 29.3476C7.35322 28.7819 7.63522 28.2622 8.04931 27.8543C8.4634 27.4464 8.99098 27.1686 9.56534 27.056C10.1397 26.9435 10.735 27.0013 11.2761 27.222C11.8171 27.4428 12.2795 27.8166 12.6049 28.2962C12.9302 28.7759 13.1039 29.3398 13.1039 29.9167C13.1 30.689 12.7868 31.4287 12.2324 31.9748C11.6779 32.521 10.9271 32.8295 10.143 32.8333ZM20.8022 23.5C20.2166 23.5 19.6441 23.3289 19.1572 23.0085C18.6703 22.688 18.2908 22.2324 18.0667 21.6995C17.8426 21.1665 17.784 20.5801 17.8982 20.0143C18.0125 19.4485 18.2945 18.9288 18.7085 18.5209C19.1226 18.113 19.6502 17.8352 20.2246 17.7227C20.7989 17.6102 21.3943 17.6679 21.9353 17.8887C22.4763 18.1094 22.9388 18.4833 23.2641 18.9629C23.5895 19.4426 23.7631 20.0065 23.7631 20.5833C23.7592 21.3557 23.446 22.0953 22.8916 22.6415C22.3372 23.1876 21.5863 23.4962 20.8022 23.5ZM31.4615 31.6667C30.8758 31.6667 30.3034 31.4956 29.8165 31.1751C29.3295 30.8546 28.95 30.3991 28.7259 29.8662C28.5018 29.3332 28.4432 28.7468 28.5574 28.181C28.6717 27.6152 28.9537 27.0955 29.3678 26.6876C29.7819 26.2797 30.3094 26.0019 30.8838 25.8894C31.4582 25.7768 32.0535 25.8346 32.5945 26.0553C33.1356 26.2761 33.598 26.6499 33.9233 27.1296C34.2487 27.6092 34.4223 28.1731 34.4223 28.75C34.4185 29.5224 34.1053 30.262 33.5508 30.8082C32.9964 31.3543 32.2455 31.6628 31.4615 31.6667Z" fill="#737373"/>
<path d="M31.4615 14.1667C32.0471 14.1667 32.6195 14.3377 33.1064 14.6582C33.5934 14.9787 33.9729 15.4342 34.197 15.9672C34.4211 16.5001 34.4797 17.0866 34.3655 17.6523C34.2512 18.2181 33.9692 18.7378 33.5551 19.1457C33.141 19.5536 32.6135 19.8314 32.0391 19.944C31.4647 20.0565 30.8694 19.9987 30.3284 19.778C29.7873 19.5572 29.3249 19.1834 28.9996 18.7037C28.6742 18.2241 28.5006 17.6602 28.5006 17.0833C28.5044 16.311 28.8176 15.5713 29.3721 15.0252C29.9265 14.479 30.6774 14.1705 31.4615 14.1667Z" fill="#737373"/>
<path d="M10.143 32.8333C9.55737 32.8333 8.98491 32.6623 8.49799 32.3418C8.01108 32.0213 7.63157 31.5658 7.40747 31.0328C7.18337 30.4999 7.12473 29.9134 7.23898 29.3476C7.35322 28.7819 7.63522 28.2622 8.04931 27.8543C8.4634 27.4464 8.99098 27.1686 9.56534 27.056C10.1397 26.9435 10.735 27.0013 11.2761 27.222C11.8171 27.4428 12.2795 27.8166 12.6049 28.2962C12.9302 28.7759 13.1039 29.3398 13.1039 29.9167C13.1 30.689 12.7868 31.4287 12.2324 31.9748C11.6779 32.521 10.9271 32.8295 10.143 32.8333Z" fill="#737373"/>
<path d="M63.2434 18.918V20.1758C63.2434 21.6706 63.0566 23.0104 62.6829 24.1953C62.3092 25.3802 61.7714 26.3874 61.0696 27.2168C60.3678 28.0462 59.5247 28.6797 58.5403 29.1172C57.565 29.5547 56.4713 29.7734 55.259 29.7734C54.0833 29.7734 53.0032 29.5547 52.0188 29.1172C51.0435 28.6797 50.1959 28.0462 49.4758 27.2168C48.7649 26.3874 48.2135 25.3802 47.8215 24.1953C47.4296 23.0104 47.2336 21.6706 47.2336 20.1758V18.918C47.2336 17.4232 47.425 16.0879 47.8079 14.9121C48.1998 13.7272 48.7512 12.7201 49.4622 11.8906C50.1731 11.0521 51.0162 10.4141 51.9915 9.97656C52.9758 9.53906 54.0559 9.32031 55.2317 9.32031C56.4439 9.32031 57.5377 9.53906 58.5129 9.97656C59.4973 10.4141 60.3404 11.0521 61.0422 11.8906C61.7532 12.7201 62.2955 13.7272 62.6692 14.9121C63.052 16.0879 63.2434 17.4232 63.2434 18.918ZM60.6321 20.1758V18.8906C60.6321 17.7057 60.509 16.6576 60.2629 15.7461C60.026 14.8346 59.675 14.069 59.2102 13.4492C58.7454 12.8294 58.1757 12.36 57.5012 12.041C56.8359 11.722 56.0793 11.5625 55.2317 11.5625C54.4114 11.5625 53.6685 11.722 53.0032 12.041C52.3469 12.36 51.7818 12.8294 51.3079 13.4492C50.843 14.069 50.483 14.8346 50.2278 15.7461C49.9726 16.6576 49.845 17.7057 49.845 18.8906V20.1758C49.845 21.3698 49.9726 22.4271 50.2278 23.3477C50.483 24.2591 50.8476 25.0293 51.3215 25.6582C51.8046 26.278 52.3743 26.7474 53.0305 27.0664C53.6959 27.3854 54.4387 27.5449 55.259 27.5449C56.1158 27.5449 56.8769 27.3854 57.5422 27.0664C58.2076 26.7474 58.7681 26.278 59.2239 25.6582C59.6887 25.0293 60.0396 24.2591 60.2766 23.3477C60.5136 22.4271 60.6321 21.3698 60.6321 20.1758Z" fill="#737373"/>
<path d="M77.804 24.4688C77.804 24.0039 77.731 23.5938 77.5852 23.2383C77.4485 22.8737 77.2024 22.5456 76.8469 22.2539C76.5006 21.9622 76.0175 21.6842 75.3977 21.4199C74.787 21.1556 74.0123 20.8867 73.0735 20.6133C72.0891 20.3216 71.2004 19.998 70.4075 19.6426C69.6145 19.278 68.9355 18.8633 68.3704 18.3984C67.8053 17.9336 67.3723 17.4004 67.0715 16.7988C66.7708 16.1973 66.6204 15.5091 66.6204 14.7344C66.6204 13.9596 66.7799 13.2441 67.0989 12.5879C67.4179 11.9316 67.8736 11.362 68.4661 10.8789C69.0676 10.3867 69.7831 10.0039 70.6125 9.73047C71.442 9.45703 72.3671 9.32031 73.3879 9.32031C74.8827 9.32031 76.1497 9.60742 77.1887 10.1816C78.2369 10.7467 79.0344 11.4896 79.5813 12.4102C80.1282 13.3216 80.4016 14.2969 80.4016 15.3359H77.7766C77.7766 14.5885 77.6171 13.9277 77.2981 13.3535C76.9791 12.7702 76.496 12.3145 75.8489 11.9863C75.2017 11.6491 74.3814 11.4805 73.3879 11.4805C72.4491 11.4805 71.6744 11.6217 71.0637 11.9043C70.453 12.1868 69.9973 12.5697 69.6965 13.0527C69.4049 13.5358 69.259 14.0872 69.259 14.707C69.259 15.1263 69.3456 15.5091 69.5188 15.8555C69.7011 16.1927 69.9791 16.5072 70.3528 16.7988C70.7356 17.0905 71.2187 17.3594 71.802 17.6055C72.3944 17.8516 73.1008 18.0885 73.9211 18.3164C75.0514 18.6354 76.0266 18.9909 76.8469 19.3828C77.6672 19.7747 78.3417 20.2168 78.8704 20.709C79.4081 21.1921 79.8046 21.7435 80.0598 22.3633C80.3241 22.974 80.4563 23.6667 80.4563 24.4414C80.4563 25.2526 80.2922 25.9863 79.9641 26.6426C79.636 27.2988 79.1666 27.8594 78.5559 28.3242C77.9452 28.7891 77.2115 29.1491 76.3547 29.4043C75.5071 29.6504 74.5592 29.7734 73.511 29.7734C72.5904 29.7734 71.6835 29.6458 70.7903 29.3906C69.9062 29.1354 69.0995 28.7526 68.3704 28.2422C67.6503 27.7318 67.0715 27.1029 66.634 26.3555C66.2056 25.599 65.9915 24.724 65.9915 23.7305H68.6165C68.6165 24.4141 68.7486 25.002 69.0129 25.4941C69.2773 25.9772 69.6373 26.3783 70.093 26.6973C70.5579 27.0163 71.0819 27.2533 71.6653 27.4082C72.2577 27.554 72.873 27.627 73.511 27.627C74.4316 27.627 75.2109 27.4993 75.8489 27.2441C76.4869 26.9889 76.97 26.6243 77.2981 26.1504C77.6353 25.6764 77.804 25.1159 77.804 24.4688Z" fill="#737373"/>
<path d="M91.175 9.59375V29.5H88.5774V9.59375H91.175ZM97.5735 9.59375V11.7539H82.1926V9.59375H97.5735Z" fill="#737373"/>
<path d="M103.357 9.59375V29.5H100.718V9.59375H103.357Z" fill="#737373"/>
<path d="M118.765 24.4688C118.765 24.0039 118.692 23.5938 118.546 23.2383C118.409 22.8737 118.163 22.5456 117.808 22.2539C117.462 21.9622 116.978 21.6842 116.359 21.4199C115.748 21.1556 114.973 20.8867 114.034 20.6133C113.05 20.3216 112.161 19.998 111.368 19.6426C110.575 19.278 109.896 18.8633 109.331 18.3984C108.766 17.9336 108.333 17.4004 108.032 16.7988C107.732 16.1973 107.581 15.5091 107.581 14.7344C107.581 13.9596 107.741 13.2441 108.06 12.5879C108.379 11.9316 108.835 11.362 109.427 10.8789C110.029 10.3867 110.744 10.0039 111.573 9.73047C112.403 9.45703 113.328 9.32031 114.349 9.32031C115.844 9.32031 117.111 9.60742 118.15 10.1816C119.198 10.7467 119.995 11.4896 120.542 12.4102C121.089 13.3216 121.363 14.2969 121.363 15.3359H118.738C118.738 14.5885 118.578 13.9277 118.259 13.3535C117.94 12.7702 117.457 12.3145 116.81 11.9863C116.163 11.6491 115.342 11.4805 114.349 11.4805C113.41 11.4805 112.635 11.6217 112.025 11.9043C111.414 12.1868 110.958 12.5697 110.657 13.0527C110.366 13.5358 110.22 14.0872 110.22 14.707C110.22 15.1263 110.307 15.5091 110.48 15.8555C110.662 16.1927 110.94 16.5072 111.314 16.7988C111.697 17.0905 112.18 17.3594 112.763 17.6055C113.355 17.8516 114.062 18.0885 114.882 18.3164C116.012 18.6354 116.988 18.9909 117.808 19.3828C118.628 19.7747 119.303 20.2168 119.831 20.709C120.369 21.1921 120.766 21.7435 121.021 22.3633C121.285 22.974 121.417 23.6667 121.417 24.4414C121.417 25.2526 121.253 25.9863 120.925 26.6426C120.597 27.2988 120.128 27.8594 119.517 28.3242C118.906 28.7891 118.172 29.1491 117.316 29.4043C116.468 29.6504 115.52 29.7734 114.472 29.7734C113.551 29.7734 112.644 29.6458 111.751 29.3906C110.867 29.1354 110.06 28.7526 109.331 28.2422C108.611 27.7318 108.032 27.1029 107.595 26.3555C107.167 25.599 106.952 24.724 106.952 23.7305H109.577C109.577 24.4141 109.71 25.002 109.974 25.4941C110.238 25.9772 110.598 26.3783 111.054 26.6973C111.519 27.0163 112.043 27.2533 112.626 27.4082C113.219 27.554 113.834 27.627 114.472 27.627C115.392 27.627 116.172 27.4993 116.81 27.2441C117.448 26.9889 117.931 26.6243 118.259 26.1504C118.596 25.6764 118.765 25.1159 118.765 24.4688Z" fill="#737373"/>
<path d="M132.56 9.59375H135.116L141.638 25.8223L148.146 9.59375H150.716L142.622 29.5H140.626L132.56 9.59375ZM131.726 9.59375H133.982L134.351 21.7344V29.5H131.726V9.59375ZM149.281 9.59375H151.536V29.5H148.911V21.7344L149.281 9.59375Z" fill="#737373"/>
<path d="M161.927 29.7734C160.897 29.7734 159.963 29.6003 159.124 29.2539C158.295 28.8984 157.579 28.4017 156.978 27.7637C156.385 27.1257 155.93 26.3691 155.611 25.4941C155.292 24.6191 155.132 23.6621 155.132 22.623V22.0488C155.132 20.8457 155.31 19.7747 155.665 18.8359C156.021 17.888 156.504 17.0859 157.115 16.4297C157.725 15.7734 158.418 15.2767 159.193 14.9395C159.967 14.6022 160.769 14.4336 161.599 14.4336C162.656 14.4336 163.568 14.6159 164.333 14.9805C165.108 15.3451 165.741 15.8555 166.234 16.5117C166.726 17.1589 167.09 17.9245 167.327 18.8086C167.564 19.6836 167.683 20.6406 167.683 21.6797V22.8145H156.636V20.75H165.154V20.5586C165.117 19.9023 164.98 19.2643 164.743 18.6445C164.516 18.0247 164.151 17.5143 163.65 17.1133C163.148 16.7122 162.465 16.5117 161.599 16.5117C161.025 16.5117 160.496 16.6348 160.013 16.8809C159.53 17.1178 159.115 17.4733 158.769 17.9473C158.422 18.4212 158.154 19 157.962 19.6836C157.771 20.3672 157.675 21.1556 157.675 22.0488V22.623C157.675 23.3249 157.771 23.9857 157.962 24.6055C158.163 25.2161 158.45 25.7539 158.823 26.2188C159.206 26.6836 159.667 27.0482 160.204 27.3125C160.751 27.5768 161.371 27.709 162.064 27.709C162.957 27.709 163.713 27.5267 164.333 27.1621C164.953 26.7975 165.495 26.3099 165.96 25.6992L167.491 26.916C167.172 27.3991 166.767 27.8594 166.275 28.2969C165.782 28.7344 165.176 29.0898 164.456 29.3633C163.745 29.6367 162.902 29.7734 161.927 29.7734Z" fill="#737373"/>
<path d="M176.829 14.707V16.6484H168.831V14.707H176.829ZM171.538 11.1113H174.068V25.8359C174.068 26.3372 174.145 26.7155 174.3 26.9707C174.455 27.2259 174.656 27.3945 174.902 27.4766C175.148 27.5586 175.412 27.5996 175.695 27.5996C175.904 27.5996 176.123 27.5814 176.351 27.5449C176.588 27.4993 176.766 27.4629 176.884 27.4355L176.898 29.5C176.697 29.5638 176.433 29.623 176.105 29.6777C175.786 29.7415 175.398 29.7734 174.943 29.7734C174.323 29.7734 173.753 29.6504 173.234 29.4043C172.714 29.1582 172.299 28.748 171.99 28.1738C171.689 27.5905 171.538 26.8066 171.538 25.8223V11.1113Z" fill="#737373"/>
<path d="M188.519 26.9707V19.3555C188.519 18.7721 188.4 18.2663 188.163 17.8379C187.935 17.4004 187.589 17.0632 187.124 16.8262C186.659 16.5892 186.085 16.4707 185.402 16.4707C184.764 16.4707 184.203 16.5801 183.72 16.7988C183.246 17.0176 182.872 17.3047 182.599 17.6602C182.335 18.0156 182.202 18.3984 182.202 18.8086H179.673C179.673 18.2799 179.81 17.7559 180.083 17.2363C180.357 16.7168 180.749 16.2474 181.259 15.8281C181.779 15.3997 182.398 15.0625 183.118 14.8164C183.848 14.5612 184.659 14.4336 185.552 14.4336C186.628 14.4336 187.575 14.6159 188.396 14.9805C189.225 15.3451 189.872 15.8965 190.337 16.6348C190.811 17.3639 191.048 18.2799 191.048 19.3828V26.2734C191.048 26.7656 191.089 27.2897 191.171 27.8457C191.262 28.4017 191.394 28.8802 191.568 29.2812V29.5H188.929C188.801 29.2083 188.701 28.821 188.628 28.3379C188.555 27.8457 188.519 27.39 188.519 26.9707ZM188.956 20.5312L188.984 22.3086H186.427C185.707 22.3086 185.064 22.3678 184.499 22.4863C183.934 22.5957 183.46 22.7643 183.077 22.9922C182.695 23.2201 182.403 23.5072 182.202 23.8535C182.002 24.1908 181.902 24.5872 181.902 25.043C181.902 25.5078 182.006 25.9316 182.216 26.3145C182.426 26.6973 182.74 27.0026 183.159 27.2305C183.588 27.4492 184.112 27.5586 184.732 27.5586C185.506 27.5586 186.19 27.3945 186.782 27.0664C187.375 26.7383 187.844 26.3372 188.191 25.8633C188.546 25.3893 188.738 24.929 188.765 24.4824L189.845 25.6992C189.781 26.082 189.608 26.5059 189.325 26.9707C189.043 27.4355 188.665 27.8822 188.191 28.3105C187.726 28.7298 187.17 29.0807 186.523 29.3633C185.885 29.6367 185.165 29.7734 184.363 29.7734C183.36 29.7734 182.48 29.5775 181.724 29.1855C180.976 28.7936 180.393 28.2695 179.974 27.6133C179.564 26.9479 179.359 26.2051 179.359 25.3848C179.359 24.5918 179.514 23.8945 179.823 23.293C180.133 22.6823 180.58 22.1764 181.163 21.7754C181.747 21.3652 182.448 21.0553 183.269 20.8457C184.089 20.6361 185.005 20.5312 186.017 20.5312H188.956Z" fill="#737373"/>
<path d="M203.64 25.5762C203.64 25.2116 203.558 24.8743 203.394 24.5645C203.239 24.2454 202.915 23.9583 202.423 23.7031C201.94 23.4388 201.211 23.2109 200.236 23.0195C199.415 22.8464 198.672 22.6413 198.007 22.4043C197.351 22.1673 196.79 21.8802 196.325 21.543C195.87 21.2057 195.519 20.8092 195.273 20.3535C195.027 19.8978 194.904 19.3646 194.904 18.7539C194.904 18.1706 195.031 17.6191 195.286 17.0996C195.551 16.5801 195.92 16.1198 196.394 15.7188C196.877 15.3177 197.456 15.0033 198.13 14.7754C198.805 14.5475 199.557 14.4336 200.386 14.4336C201.571 14.4336 202.583 14.6432 203.421 15.0625C204.26 15.4818 204.902 16.0423 205.349 16.7441C205.795 17.4368 206.019 18.207 206.019 19.0547H203.49C203.49 18.6445 203.366 18.248 203.12 17.8652C202.883 17.4733 202.532 17.1497 202.068 16.8945C201.612 16.6393 201.051 16.5117 200.386 16.5117C199.684 16.5117 199.115 16.6211 198.677 16.8398C198.249 17.0495 197.934 17.3184 197.734 17.6465C197.542 17.9746 197.447 18.321 197.447 18.6855C197.447 18.959 197.492 19.2051 197.583 19.4238C197.684 19.6335 197.857 19.8294 198.103 20.0117C198.349 20.1849 198.695 20.349 199.142 20.5039C199.588 20.6589 200.158 20.8138 200.851 20.9688C202.063 21.2422 203.061 21.5703 203.845 21.9531C204.629 22.3359 205.212 22.8053 205.595 23.3613C205.978 23.9173 206.169 24.5918 206.169 25.3848C206.169 26.0319 206.032 26.6243 205.759 27.1621C205.495 27.6999 205.107 28.1647 204.597 28.5566C204.096 28.9395 203.494 29.2402 202.792 29.459C202.1 29.6686 201.32 29.7734 200.454 29.7734C199.151 29.7734 198.048 29.541 197.146 29.0762C196.243 28.6113 195.56 28.0098 195.095 27.2715C194.63 26.5332 194.398 25.7539 194.398 24.9336H196.941C196.977 25.6263 197.178 26.1777 197.542 26.5879C197.907 26.9889 198.353 27.276 198.882 27.4492C199.411 27.6133 199.935 27.6953 200.454 27.6953C201.147 27.6953 201.726 27.6042 202.191 27.4219C202.665 27.2396 203.025 26.9889 203.271 26.6699C203.517 26.3509 203.64 25.9863 203.64 25.5762Z" fill="#737373"/>
<path d="M213.648 27.9688L217.763 14.707H220.47L214.536 31.7832C214.4 32.1478 214.217 32.5397 213.99 32.959C213.771 33.3874 213.488 33.793 213.142 34.1758C212.795 34.5586 212.376 34.8685 211.884 35.1055C211.401 35.3516 210.822 35.4746 210.148 35.4746C209.947 35.4746 209.692 35.4473 209.382 35.3926C209.072 35.3379 208.853 35.2923 208.726 35.2559L208.712 33.2051C208.785 33.2142 208.899 33.2233 209.054 33.2324C209.218 33.2507 209.332 33.2598 209.396 33.2598C209.97 33.2598 210.458 33.1823 210.859 33.0273C211.26 32.8815 211.597 32.6309 211.87 32.2754C212.153 31.929 212.394 31.4505 212.595 30.8398L213.648 27.9688ZM210.626 14.707L214.468 26.1914L215.124 28.8574L213.306 29.7871L207.865 14.707H210.626Z" fill="#737373"/>
<path d="M231.366 25.5762C231.366 25.2116 231.284 24.8743 231.12 24.5645C230.965 24.2454 230.642 23.9583 230.15 23.7031C229.667 23.4388 228.937 23.2109 227.962 23.0195C227.142 22.8464 226.399 22.6413 225.734 22.4043C225.077 22.1673 224.517 21.8802 224.052 21.543C223.596 21.2057 223.245 20.8092 222.999 20.3535C222.753 19.8978 222.63 19.3646 222.63 18.7539C222.63 18.1706 222.758 17.6191 223.013 17.0996C223.277 16.5801 223.646 16.1198 224.12 15.7188C224.603 15.3177 225.182 15.0033 225.857 14.7754C226.531 14.5475 227.283 14.4336 228.113 14.4336C229.297 14.4336 230.309 14.6432 231.148 15.0625C231.986 15.4818 232.629 16.0423 233.075 16.7441C233.522 17.4368 233.745 18.207 233.745 19.0547H231.216C231.216 18.6445 231.093 18.248 230.847 17.8652C230.61 17.4733 230.259 17.1497 229.794 16.8945C229.338 16.6393 228.778 16.5117 228.113 16.5117C227.411 16.5117 226.841 16.6211 226.404 16.8398C225.975 17.0495 225.661 17.3184 225.46 17.6465C225.269 17.9746 225.173 18.321 225.173 18.6855C225.173 18.959 225.219 19.2051 225.31 19.4238C225.41 19.6335 225.583 19.8294 225.829 20.0117C226.075 20.1849 226.422 20.349 226.868 20.5039C227.315 20.6589 227.885 20.8138 228.577 20.9688C229.79 21.2422 230.788 21.5703 231.572 21.9531C232.355 22.3359 232.939 22.8053 233.322 23.3613C233.704 23.9173 233.896 24.5918 233.896 25.3848C233.896 26.0319 233.759 26.6243 233.486 27.1621C233.221 27.6999 232.834 28.1647 232.323 28.5566C231.822 28.9395 231.221 29.2402 230.519 29.459C229.826 29.6686 229.047 29.7734 228.181 29.7734C226.878 29.7734 225.775 29.541 224.872 29.0762C223.97 28.6113 223.286 28.0098 222.822 27.2715C222.357 26.5332 222.124 25.7539 222.124 24.9336H224.667C224.704 25.6263 224.904 26.1777 225.269 26.5879C225.633 26.9889 226.08 27.276 226.609 27.4492C227.137 27.6133 227.661 27.6953 228.181 27.6953C228.874 27.6953 229.452 27.6042 229.917 27.4219C230.391 27.2396 230.751 26.9889 230.997 26.6699C231.243 26.3509 231.366 25.9863 231.366 25.5762Z" fill="#737373"/>
<path d="M243.411 14.707V16.6484H235.413V14.707H243.411ZM238.12 11.1113H240.65V25.8359C240.65 26.3372 240.727 26.7155 240.882 26.9707C241.037 27.2259 241.238 27.3945 241.484 27.4766C241.73 27.5586 241.994 27.5996 242.277 27.5996C242.486 27.5996 242.705 27.5814 242.933 27.5449C243.17 27.4993 243.348 27.4629 243.466 27.4355L243.48 29.5C243.279 29.5638 243.015 29.623 242.687 29.6777C242.368 29.7415 241.98 29.7734 241.525 29.7734C240.905 29.7734 240.335 29.6504 239.816 29.4043C239.296 29.1582 238.881 28.748 238.572 28.1738C238.271 27.5905 238.12 26.8066 238.12 25.8223V11.1113Z" fill="#737373"/>
<path d="M252.517 29.7734C251.487 29.7734 250.553 29.6003 249.714 29.2539C248.885 28.8984 248.169 28.4017 247.568 27.7637C246.975 27.1257 246.519 26.3691 246.2 25.4941C245.881 24.6191 245.722 23.6621 245.722 22.623V22.0488C245.722 20.8457 245.9 19.7747 246.255 18.8359C246.611 17.888 247.094 17.0859 247.704 16.4297C248.315 15.7734 249.008 15.2767 249.782 14.9395C250.557 14.6022 251.359 14.4336 252.189 14.4336C253.246 14.4336 254.157 14.6159 254.923 14.9805C255.698 15.3451 256.331 15.8555 256.823 16.5117C257.316 17.1589 257.68 17.9245 257.917 18.8086C258.154 19.6836 258.273 20.6406 258.273 21.6797V22.8145H247.226V20.75H255.743V20.5586C255.707 19.9023 255.57 19.2643 255.333 18.6445C255.105 18.0247 254.741 17.5143 254.24 17.1133C253.738 16.7122 253.055 16.5117 252.189 16.5117C251.615 16.5117 251.086 16.6348 250.603 16.8809C250.12 17.1178 249.705 17.4733 249.359 17.9473C249.012 18.4212 248.743 19 248.552 19.6836C248.361 20.3672 248.265 21.1556 248.265 22.0488V22.623C248.265 23.3249 248.361 23.9857 248.552 24.6055C248.753 25.2161 249.04 25.7539 249.413 26.2188C249.796 26.6836 250.256 27.0482 250.794 27.3125C251.341 27.5768 251.961 27.709 252.654 27.709C253.547 27.709 254.303 27.5267 254.923 27.1621C255.543 26.7975 256.085 26.3099 256.55 25.6992L258.081 26.916C257.762 27.3991 257.357 27.8594 256.865 28.2969C256.372 28.7344 255.766 29.0898 255.046 29.3633C254.335 29.6367 253.492 29.7734 252.517 29.7734Z" fill="#737373"/>
<path d="M263.741 17.6465V29.5H261.198V14.707H263.605L263.741 17.6465ZM263.222 21.543L262.046 21.502C262.055 20.4902 262.187 19.556 262.443 18.6992C262.698 17.8333 263.076 17.0814 263.577 16.4434C264.079 15.8053 264.703 15.3132 265.45 14.9668C266.198 14.6113 267.064 14.4336 268.048 14.4336C268.741 14.4336 269.379 14.5339 269.962 14.7344C270.545 14.9258 271.051 15.2311 271.48 15.6504C271.908 16.0697 272.241 16.6074 272.478 17.2637C272.715 17.9199 272.833 18.7129 272.833 19.6426V29.5H270.304V19.7656C270.304 18.9909 270.172 18.3711 269.907 17.9062C269.652 17.4414 269.288 17.1042 268.814 16.8945C268.34 16.6758 267.784 16.5664 267.146 16.5664C266.398 16.5664 265.774 16.6986 265.273 16.9629C264.771 17.2272 264.37 17.5918 264.07 18.0566C263.769 18.5215 263.55 19.0547 263.413 19.6562C263.286 20.2487 263.222 20.8776 263.222 21.543ZM272.806 20.1484L271.111 20.668C271.12 19.8568 271.252 19.0775 271.507 18.3301C271.771 17.5827 272.15 16.9173 272.642 16.334C273.143 15.7507 273.758 15.2904 274.488 14.9531C275.217 14.6068 276.051 14.4336 276.99 14.4336C277.782 14.4336 278.484 14.5384 279.095 14.748C279.715 14.9577 280.234 15.2812 280.654 15.7188C281.082 16.1471 281.406 16.6986 281.624 17.373C281.843 18.0475 281.952 18.8496 281.952 19.7793V29.5H279.409V19.752C279.409 18.9225 279.277 18.2799 279.013 17.8242C278.758 17.3594 278.393 17.0358 277.919 16.8535C277.454 16.6621 276.898 16.5664 276.251 16.5664C275.695 16.5664 275.203 16.6621 274.775 16.8535C274.346 17.0449 273.986 17.3092 273.695 17.6465C273.403 17.9746 273.18 18.3529 273.025 18.7812C272.879 19.2096 272.806 19.6654 272.806 20.1484Z" fill="#737373"/>
</svg>
