<svg width="257" height="40" viewBox="0 0 257 40" fill="none" xmlns="http://www.w3.org/2000/svg">
<path d="M31.4615 24.6667C30.3912 24.6678 29.3626 25.0752 28.5894 25.8042L24.3997 22.5958C24.7631 21.9859 24.9524 21.2905 24.9475 20.5833C24.9456 20.3386 24.9208 20.0945 24.8735 19.8542L27.7603 18.9208C28.2178 19.8143 28.9924 20.5111 29.937 20.8791C30.8816 21.2471 31.9305 21.2606 32.8846 20.9171C33.8387 20.5736 34.6315 19.8969 35.1125 19.0156C35.5935 18.1342 35.7293 17.1096 35.494 16.1362C35.2587 15.1627 34.6688 14.3083 33.8362 13.7351C33.0036 13.1618 31.9863 12.9097 30.9774 13.0265C29.9685 13.1434 29.0383 13.6211 28.3634 14.3689C27.6885 15.1168 27.3158 16.0827 27.3162 17.0833C27.3181 17.3281 27.3428 17.5722 27.3902 17.8125L24.5033 18.7458C24.1566 18.0717 23.6274 17.5052 22.9743 17.1088C22.3211 16.7125 21.5694 16.5018 20.8022 16.5C20.4214 16.5012 20.0426 16.5552 19.6771 16.6604L18.2706 13.5396C19.1162 13.0156 19.7412 12.2084 20.0307 11.2666C20.3202 10.3248 20.2546 9.31165 19.8462 8.41363C19.4377 7.51562 18.7137 6.79312 17.8075 6.37907C16.9013 5.96501 15.8737 5.88726 14.9139 6.16011C13.9541 6.43296 13.1266 7.03806 12.5837 7.86408C12.0408 8.6901 11.8189 9.68147 11.959 10.6558C12.099 11.6301 12.5915 12.5219 13.3459 13.1669C14.1003 13.812 15.0658 14.167 16.0648 14.1667C16.4456 14.1655 16.8244 14.1115 17.1899 14.0063L18.5963 17.1271C18.1291 17.4161 17.7252 17.7942 17.4082 18.239C17.0912 18.6838 16.8676 19.1865 16.7504 19.7176C16.6332 20.2486 16.6248 20.7974 16.7257 21.3317C16.8266 21.866 17.0347 22.3751 17.338 22.8292L12.8078 26.7958C12.0648 26.1716 11.1195 25.8302 10.143 25.8333C9.22014 25.8338 8.32385 26.1377 7.59613 26.6967C6.8684 27.2557 6.35086 28.038 6.1255 28.9195C5.90014 29.801 5.97985 30.7315 6.352 31.5633C6.72415 32.3952 7.36745 33.0809 8.17999 33.5119C8.99253 33.9429 9.92784 34.0945 10.8377 33.9426C11.7476 33.7908 12.58 33.3442 13.2031 32.6736C13.8262 32.003 14.2042 31.1468 14.2775 30.2406C14.3507 29.3344 14.1148 28.43 13.6072 27.6708L18.1374 23.7042C18.8804 24.3284 19.8257 24.6698 20.8022 24.6667C21.8725 24.6655 22.9011 24.2581 23.6743 23.5292L27.864 26.7375C27.5005 27.3474 27.3113 28.0428 27.3162 28.75C27.3162 29.5576 27.5593 30.3471 28.0148 31.0186C28.4703 31.6901 29.1177 32.2134 29.8751 32.5225C30.6326 32.8316 31.466 32.9124 32.2701 32.7549C33.0743 32.5973 33.8129 32.2084 34.3926 31.6373C34.9723 31.0663 35.3671 30.3387 35.5271 29.5466C35.687 28.7545 35.6049 27.9335 35.2912 27.1874C34.9774 26.4412 34.4461 25.8035 33.7644 25.3548C33.0828 24.9061 32.2813 24.6667 31.4615 24.6667ZM31.4615 14.1667C32.0471 14.1667 32.6195 14.3377 33.1064 14.6582C33.5934 14.9787 33.9729 15.4342 34.197 15.9672C34.4211 16.5001 34.4797 17.0866 34.3655 17.6523C34.2512 18.2181 33.9692 18.7378 33.5551 19.1457C33.141 19.5536 32.6135 19.8314 32.0391 19.944C31.4647 20.0565 30.8694 19.9987 30.3284 19.778C29.7873 19.5572 29.3249 19.1834 28.9996 18.7037C28.6742 18.2241 28.5006 17.6602 28.5006 17.0833C28.5044 16.311 28.8176 15.5713 29.3721 15.0252C29.9265 14.479 30.6774 14.1705 31.4615 14.1667ZM13.1039 10.0833C13.1039 9.50647 13.2775 8.94257 13.6029 8.46292C13.9282 7.98328 14.3907 7.60944 14.9317 7.38869C15.4727 7.16793 16.0681 7.11017 16.6424 7.22271C17.2168 7.33525 17.7444 7.61304 18.1584 8.02094C18.5725 8.42884 18.8545 8.94854 18.9688 9.51432C19.083 10.0801 19.0244 10.6665 18.8003 11.1995C18.5762 11.7324 18.1967 12.188 17.7098 12.5085C17.2228 12.8289 16.6504 13 16.0648 13C15.2807 12.9962 14.5298 12.6876 13.9754 12.1415C13.421 11.5953 13.1078 10.8557 13.1039 10.0833ZM10.143 32.8333C9.55737 32.8333 8.98491 32.6623 8.49799 32.3418C8.01108 32.0213 7.63157 31.5658 7.40747 31.0328C7.18337 30.4999 7.12473 29.9134 7.23898 29.3476C7.35322 28.7819 7.63522 28.2622 8.04931 27.8543C8.4634 27.4464 8.99098 27.1686 9.56534 27.056C10.1397 26.9435 10.735 27.0013 11.2761 27.222C11.8171 27.4428 12.2795 27.8166 12.6049 28.2962C12.9302 28.7759 13.1039 29.3398 13.1039 29.9167C13.1 30.689 12.7868 31.4287 12.2324 31.9748C11.6779 32.521 10.9271 32.8295 10.143 32.8333ZM20.8022 23.5C20.2166 23.5 19.6441 23.3289 19.1572 23.0085C18.6703 22.688 18.2908 22.2324 18.0667 21.6995C17.8426 21.1665 17.784 20.5801 17.8982 20.0143C18.0125 19.4485 18.2945 18.9288 18.7085 18.5209C19.1226 18.113 19.6502 17.8352 20.2246 17.7227C20.7989 17.6102 21.3943 17.6679 21.9353 17.8887C22.4763 18.1094 22.9388 18.4833 23.2641 18.9629C23.5895 19.4426 23.7631 20.0065 23.7631 20.5833C23.7592 21.3557 23.446 22.0953 22.8916 22.6415C22.3372 23.1876 21.5863 23.4962 20.8022 23.5ZM31.4615 31.6667C30.8758 31.6667 30.3034 31.4956 29.8165 31.1751C29.3295 30.8546 28.95 30.3991 28.7259 29.8662C28.5018 29.3332 28.4432 28.7468 28.5574 28.181C28.6717 27.6152 28.9537 27.0955 29.3678 26.6876C29.7819 26.2797 30.3094 26.0019 30.8838 25.8894C31.4582 25.7768 32.0535 25.8346 32.5945 26.0553C33.1356 26.2761 33.598 26.6499 33.9233 27.1296C34.2487 27.6092 34.4223 28.1731 34.4223 28.75C34.4185 29.5224 34.1053 30.262 33.5508 30.8082C32.9964 31.3543 32.2455 31.6628 31.4615 31.6667Z" fill="#737373"/>
<path d="M31.4615 14.1667C32.0471 14.1667 32.6195 14.3377 33.1064 14.6582C33.5934 14.9787 33.9729 15.4342 34.197 15.9672C34.4211 16.5001 34.4797 17.0866 34.3655 17.6523C34.2512 18.2181 33.9692 18.7378 33.5551 19.1457C33.141 19.5536 32.6135 19.8314 32.0391 19.944C31.4647 20.0565 30.8694 19.9987 30.3284 19.778C29.7873 19.5572 29.3249 19.1834 28.9996 18.7037C28.6742 18.2241 28.5006 17.6602 28.5006 17.0833C28.5044 16.311 28.8176 15.5713 29.3721 15.0252C29.9265 14.479 30.6774 14.1705 31.4615 14.1667Z" fill="#737373"/>
<path d="M10.143 32.8333C9.55737 32.8333 8.98491 32.6623 8.49799 32.3418C8.01108 32.0213 7.63157 31.5658 7.40747 31.0328C7.18337 30.4999 7.12473 29.9134 7.23898 29.3476C7.35322 28.7819 7.63522 28.2622 8.04931 27.8543C8.4634 27.4464 8.99098 27.1686 9.56534 27.056C10.1397 26.9435 10.735 27.0013 11.2761 27.222C11.8171 27.4428 12.2795 27.8166 12.6049 28.2962C12.9302 28.7759 13.1039 29.3398 13.1039 29.9167C13.1 30.689 12.7868 31.4287 12.2324 31.9748C11.6779 32.521 10.9271 32.8295 10.143 32.8333Z" fill="#737373"/>
<path d="M48.7512 9.59375H51.3079L57.8293 25.8223L64.3372 9.59375H66.9075L58.8137 29.5H56.8176L48.7512 9.59375ZM47.9172 9.59375H50.1731L50.5422 21.7344V29.5H47.9172V9.59375ZM65.4719 9.59375H67.7278V29.5H65.1028V21.7344L65.4719 9.59375ZM78.1184 29.7734C77.0885 29.7734 76.1542 29.6003 75.3157 29.2539C74.4862 28.8984 73.7708 28.4017 73.1692 27.7637C72.5767 27.1257 72.121 26.3691 71.802 25.4941C71.483 24.6191 71.3235 23.6621 71.3235 22.623V22.0488C71.3235 20.8457 71.5012 19.7747 71.8567 18.8359C72.2122 17.888 72.6952 17.0859 73.3059 16.4297C73.9166 15.7734 74.6093 15.2767 75.384 14.9395C76.1588 14.6022 76.9609 14.4336 77.7903 14.4336C78.8476 14.4336 79.759 14.6159 80.5247 14.9805C81.2994 15.3451 81.9329 15.8555 82.425 16.5117C82.9172 17.1589 83.2818 17.9245 83.5188 18.8086C83.7558 19.6836 83.8743 20.6406 83.8743 21.6797V22.8145H72.8274V20.75H81.345V20.5586C81.3085 19.9023 81.1718 19.2643 80.9348 18.6445C80.7069 18.0247 80.3424 17.5143 79.8411 17.1133C79.3398 16.7122 78.6562 16.5117 77.7903 16.5117C77.2161 16.5117 76.6874 16.6348 76.2043 16.8809C75.7213 17.1178 75.3066 17.4733 74.9602 17.9473C74.6139 18.4212 74.345 19 74.1536 19.6836C73.9622 20.3672 73.8665 21.1556 73.8665 22.0488V22.623C73.8665 23.3249 73.9622 23.9857 74.1536 24.6055C74.3541 25.2161 74.6412 25.7539 75.0149 26.2188C75.3977 26.6836 75.858 27.0482 76.3958 27.3125C76.9426 27.5768 77.5624 27.709 78.2551 27.709C79.1484 27.709 79.9049 27.5267 80.5247 27.1621C81.1444 26.7975 81.6868 26.3099 82.1516 25.6992L83.6829 26.916C83.3639 27.3991 82.9583 27.8594 82.4661 28.2969C81.9739 28.7344 81.3678 29.0898 80.6477 29.3633C79.9368 29.6367 79.0937 29.7734 78.1184 29.7734ZM93.0208 14.707V16.6484H85.0227V14.707H93.0208ZM87.7297 11.1113H90.259V25.8359C90.259 26.3372 90.3365 26.7155 90.4915 26.9707C90.6464 27.2259 90.8469 27.3945 91.093 27.4766C91.3391 27.5586 91.6034 27.5996 91.886 27.5996C92.0956 27.5996 92.3144 27.5814 92.5422 27.5449C92.7792 27.4993 92.9569 27.4629 93.0754 27.4355L93.0891 29.5C92.8886 29.5638 92.6243 29.623 92.2961 29.6777C91.9771 29.7415 91.5898 29.7734 91.134 29.7734C90.5142 29.7734 89.9446 29.6504 89.425 29.4043C88.9055 29.1582 88.4908 28.748 88.1809 28.1738C87.8801 27.5905 87.7297 26.8066 87.7297 25.8223V11.1113ZM104.71 26.9707V19.3555C104.71 18.7721 104.592 18.2663 104.355 17.8379C104.127 17.4004 103.781 17.0632 103.316 16.8262C102.851 16.5892 102.277 16.4707 101.593 16.4707C100.955 16.4707 100.394 16.5801 99.9114 16.7988C99.4374 17.0176 99.0637 17.3047 98.7903 17.6602C98.526 18.0156 98.3938 18.3984 98.3938 18.8086H95.8645C95.8645 18.2799 96.0012 17.7559 96.2747 17.2363C96.5481 16.7168 96.94 16.2474 97.4504 15.8281C97.97 15.3997 98.5898 15.0625 99.3098 14.8164C100.039 14.5612 100.85 14.4336 101.743 14.4336C102.819 14.4336 103.767 14.6159 104.587 14.9805C105.417 15.3451 106.064 15.8965 106.529 16.6348C107.003 17.3639 107.24 18.2799 107.24 19.3828V26.2734C107.24 26.7656 107.281 27.2897 107.363 27.8457C107.454 28.4017 107.586 28.8802 107.759 29.2812V29.5H105.12C104.993 29.2083 104.892 28.821 104.82 28.3379C104.747 27.8457 104.71 27.39 104.71 26.9707ZM105.148 20.5312L105.175 22.3086H102.618C101.898 22.3086 101.256 22.3678 100.691 22.4863C100.126 22.5957 99.6516 22.7643 99.2688 22.9922C98.886 23.2201 98.5943 23.5072 98.3938 23.8535C98.1933 24.1908 98.093 24.5872 98.093 25.043C98.093 25.5078 98.1978 25.9316 98.4075 26.3145C98.6171 26.6973 98.9316 27.0026 99.3508 27.2305C99.7792 27.4492 100.303 27.5586 100.923 27.5586C101.698 27.5586 102.381 27.3945 102.974 27.0664C103.566 26.7383 104.036 26.3372 104.382 25.8633C104.738 25.3893 104.929 24.929 104.956 24.4824L106.036 25.6992C105.973 26.082 105.799 26.5059 105.517 26.9707C105.234 27.4355 104.856 27.8822 104.382 28.3105C103.917 28.7298 103.361 29.0807 102.714 29.3633C102.076 29.6367 101.356 29.7734 100.554 29.7734C99.5514 29.7734 98.6718 29.5775 97.9153 29.1855C97.1679 28.7936 96.5846 28.2695 96.1653 27.6133C95.7551 26.9479 95.55 26.2051 95.55 25.3848C95.55 24.5918 95.705 23.8945 96.0149 23.293C96.3248 22.6823 96.7714 22.1764 97.3547 21.7754C97.9381 21.3652 98.6399 21.0553 99.4602 20.8457C100.281 20.6361 101.197 20.5312 102.208 20.5312H105.148ZM119.831 25.5762C119.831 25.2116 119.749 24.8743 119.585 24.5645C119.43 24.2454 119.107 23.9583 118.615 23.7031C118.131 23.4388 117.402 23.2109 116.427 23.0195C115.607 22.8464 114.864 22.6413 114.198 22.4043C113.542 22.1673 112.982 21.8802 112.517 21.543C112.061 21.2057 111.71 20.8092 111.464 20.3535C111.218 19.8978 111.095 19.3646 111.095 18.7539C111.095 18.1706 111.223 17.6191 111.478 17.0996C111.742 16.5801 112.111 16.1198 112.585 15.7188C113.068 15.3177 113.647 15.0033 114.322 14.7754C114.996 14.5475 115.748 14.4336 116.577 14.4336C117.762 14.4336 118.774 14.6432 119.613 15.0625C120.451 15.4818 121.094 16.0423 121.54 16.7441C121.987 17.4368 122.21 18.207 122.21 19.0547H119.681C119.681 18.6445 119.558 18.248 119.312 17.8652C119.075 17.4733 118.724 17.1497 118.259 16.8945C117.803 16.6393 117.243 16.5117 116.577 16.5117C115.876 16.5117 115.306 16.6211 114.868 16.8398C114.44 17.0495 114.126 17.3184 113.925 17.6465C113.734 17.9746 113.638 18.321 113.638 18.6855C113.638 18.959 113.684 19.2051 113.775 19.4238C113.875 19.6335 114.048 19.8294 114.294 20.0117C114.54 20.1849 114.887 20.349 115.333 20.5039C115.78 20.6589 116.35 20.8138 117.042 20.9688C118.254 21.2422 119.253 21.5703 120.036 21.9531C120.82 22.3359 121.404 22.8053 121.786 23.3613C122.169 23.9173 122.361 24.5918 122.361 25.3848C122.361 26.0319 122.224 26.6243 121.95 27.1621C121.686 27.6999 121.299 28.1647 120.788 28.5566C120.287 28.9395 119.685 29.2402 118.984 29.459C118.291 29.6686 117.512 29.7734 116.646 29.7734C115.342 29.7734 114.24 29.541 113.337 29.0762C112.435 28.6113 111.751 28.0098 111.286 27.2715C110.822 26.5332 110.589 25.7539 110.589 24.9336H113.132C113.169 25.6263 113.369 26.1777 113.734 26.5879C114.098 26.9889 114.545 27.276 115.073 27.4492C115.602 27.6133 116.126 27.6953 116.646 27.6953C117.338 27.6953 117.917 27.6042 118.382 27.4219C118.856 27.2396 119.216 26.9889 119.462 26.6699C119.708 26.3509 119.831 25.9863 119.831 25.5762ZM129.839 27.9688L133.954 14.707H136.661L130.728 31.7832C130.591 32.1478 130.409 32.5397 130.181 32.959C129.962 33.3874 129.68 33.793 129.333 34.1758C128.987 34.5586 128.568 34.8685 128.075 35.1055C127.592 35.3516 127.014 35.4746 126.339 35.4746C126.139 35.4746 125.883 35.4473 125.573 35.3926C125.264 35.3379 125.045 35.2923 124.917 35.2559L124.904 33.2051C124.976 33.2142 125.09 33.2233 125.245 33.2324C125.409 33.2507 125.523 33.2598 125.587 33.2598C126.161 33.2598 126.649 33.1823 127.05 33.0273C127.451 32.8815 127.788 32.6309 128.062 32.2754C128.344 31.929 128.586 31.4505 128.786 30.8398L129.839 27.9688ZM126.818 14.707L130.659 26.1914L131.316 28.8574L129.497 29.7871L124.056 14.707H126.818ZM147.558 25.5762C147.558 25.2116 147.476 24.8743 147.312 24.5645C147.157 24.2454 146.833 23.9583 146.341 23.7031C145.858 23.4388 145.129 23.2109 144.154 23.0195C143.333 22.8464 142.59 22.6413 141.925 22.4043C141.269 22.1673 140.708 21.8802 140.243 21.543C139.788 21.2057 139.437 20.8092 139.191 20.3535C138.945 19.8978 138.822 19.3646 138.822 18.7539C138.822 18.1706 138.949 17.6191 139.204 17.0996C139.469 16.5801 139.838 16.1198 140.312 15.7188C140.795 15.3177 141.374 15.0033 142.048 14.7754C142.723 14.5475 143.475 14.4336 144.304 14.4336C145.489 14.4336 146.501 14.6432 147.339 15.0625C148.178 15.4818 148.82 16.0423 149.267 16.7441C149.713 17.4368 149.937 18.207 149.937 19.0547H147.407C147.407 18.6445 147.284 18.248 147.038 17.8652C146.801 17.4733 146.45 17.1497 145.986 16.8945C145.53 16.6393 144.969 16.5117 144.304 16.5117C143.602 16.5117 143.032 16.6211 142.595 16.8398C142.167 17.0495 141.852 17.3184 141.652 17.6465C141.46 17.9746 141.365 18.321 141.365 18.6855C141.365 18.959 141.41 19.2051 141.501 19.4238C141.601 19.6335 141.775 19.8294 142.021 20.0117C142.267 20.1849 142.613 20.349 143.06 20.5039C143.506 20.6589 144.076 20.8138 144.769 20.9688C145.981 21.2422 146.979 21.5703 147.763 21.9531C148.547 22.3359 149.13 22.8053 149.513 23.3613C149.896 23.9173 150.087 24.5918 150.087 25.3848C150.087 26.0319 149.95 26.6243 149.677 27.1621C149.413 27.6999 149.025 28.1647 148.515 28.5566C148.014 28.9395 147.412 29.2402 146.71 29.459C146.017 29.6686 145.238 29.7734 144.372 29.7734C143.069 29.7734 141.966 29.541 141.064 29.0762C140.161 28.6113 139.478 28.0098 139.013 27.2715C138.548 26.5332 138.316 25.7539 138.316 24.9336H140.859C140.895 25.6263 141.096 26.1777 141.46 26.5879C141.825 26.9889 142.271 27.276 142.8 27.4492C143.329 27.6133 143.853 27.6953 144.372 27.6953C145.065 27.6953 145.644 27.6042 146.109 27.4219C146.583 27.2396 146.943 26.9889 147.189 26.6699C147.435 26.3509 147.558 25.9863 147.558 25.5762ZM159.603 14.707V16.6484H151.605V14.707H159.603ZM154.312 11.1113H156.841V25.8359C156.841 26.3372 156.919 26.7155 157.073 26.9707C157.228 27.2259 157.429 27.3945 157.675 27.4766C157.921 27.5586 158.185 27.5996 158.468 27.5996C158.678 27.5996 158.896 27.5814 159.124 27.5449C159.361 27.4993 159.539 27.4629 159.657 27.4355L159.671 29.5C159.471 29.5638 159.206 29.623 158.878 29.6777C158.559 29.7415 158.172 29.7734 157.716 29.7734C157.096 29.7734 156.527 29.6504 156.007 29.4043C155.488 29.1582 155.073 28.748 154.763 28.1738C154.462 27.5905 154.312 26.8066 154.312 25.8223V11.1113ZM168.708 29.7734C167.678 29.7734 166.744 29.6003 165.906 29.2539C165.076 28.8984 164.361 28.4017 163.759 27.7637C163.167 27.1257 162.711 26.3691 162.392 25.4941C162.073 24.6191 161.913 23.6621 161.913 22.623V22.0488C161.913 20.8457 162.091 19.7747 162.447 18.8359C162.802 17.888 163.285 17.0859 163.896 16.4297C164.506 15.7734 165.199 15.2767 165.974 14.9395C166.749 14.6022 167.551 14.4336 168.38 14.4336C169.437 14.4336 170.349 14.6159 171.115 14.9805C171.889 15.3451 172.523 15.8555 173.015 16.5117C173.507 17.1589 173.872 17.9245 174.109 18.8086C174.346 19.6836 174.464 20.6406 174.464 21.6797V22.8145H163.417V20.75H171.935V20.5586C171.898 19.9023 171.762 19.2643 171.525 18.6445C171.297 18.0247 170.932 17.5143 170.431 17.1133C169.93 16.7122 169.246 16.5117 168.38 16.5117C167.806 16.5117 167.277 16.6348 166.794 16.8809C166.311 17.1178 165.896 17.4733 165.55 17.9473C165.204 18.4212 164.935 19 164.743 19.6836C164.552 20.3672 164.456 21.1556 164.456 22.0488V22.623C164.456 23.3249 164.552 23.9857 164.743 24.6055C164.944 25.2161 165.231 25.7539 165.605 26.2188C165.988 26.6836 166.448 27.0482 166.986 27.3125C167.532 27.5768 168.152 27.709 168.845 27.709C169.738 27.709 170.495 27.5267 171.115 27.1621C171.734 26.7975 172.277 26.3099 172.741 25.6992L174.273 26.916C173.954 27.3991 173.548 27.8594 173.056 28.2969C172.564 28.7344 171.958 29.0898 171.238 29.3633C170.527 29.6367 169.684 29.7734 168.708 29.7734ZM179.933 17.6465V29.5H177.39V14.707H179.796L179.933 17.6465ZM179.413 21.543L178.238 21.502C178.247 20.4902 178.379 19.556 178.634 18.6992C178.889 17.8333 179.267 17.0814 179.769 16.4434C180.27 15.8053 180.894 15.3132 181.642 14.9668C182.389 14.6113 183.255 14.4336 184.24 14.4336C184.932 14.4336 185.57 14.5339 186.154 14.7344C186.737 14.9258 187.243 15.2311 187.671 15.6504C188.1 16.0697 188.432 16.6074 188.669 17.2637C188.906 17.9199 189.025 18.7129 189.025 19.6426V29.5H186.495V19.7656C186.495 18.9909 186.363 18.3711 186.099 17.9062C185.844 17.4414 185.479 17.1042 185.005 16.8945C184.531 16.6758 183.975 16.5664 183.337 16.5664C182.59 16.5664 181.965 16.6986 181.464 16.9629C180.963 17.2272 180.562 17.5918 180.261 18.0566C179.96 18.5215 179.741 19.0547 179.605 19.6562C179.477 20.2487 179.413 20.8776 179.413 21.543ZM188.997 20.1484L187.302 20.668C187.311 19.8568 187.443 19.0775 187.698 18.3301C187.963 17.5827 188.341 16.9173 188.833 16.334C189.335 15.7507 189.95 15.2904 190.679 14.9531C191.408 14.6068 192.242 14.4336 193.181 14.4336C193.974 14.4336 194.676 14.5384 195.286 14.748C195.906 14.9577 196.426 15.2812 196.845 15.7188C197.273 16.1471 197.597 16.6986 197.816 17.373C198.034 18.0475 198.144 18.8496 198.144 19.7793V29.5H195.601V19.752C195.601 18.9225 195.469 18.2799 195.204 17.8242C194.949 17.3594 194.585 17.0358 194.111 16.8535C193.646 16.6621 193.09 16.5664 192.443 16.5664C191.887 16.5664 191.394 16.6621 190.966 16.8535C190.538 17.0449 190.178 17.3092 189.886 17.6465C189.594 17.9746 189.371 18.3529 189.216 18.7812C189.07 19.2096 188.997 19.6654 188.997 20.1484ZM212.13 9.59375V29.5H209.491V9.59375H212.13ZM217.763 9.59375H220.32L226.841 25.8223L233.349 9.59375H235.919L227.825 29.5H225.829L217.763 9.59375ZM216.929 9.59375H219.185L219.554 21.7344V29.5H216.929V9.59375ZM234.484 9.59375H236.74V29.5H234.115V21.7344L234.484 9.59375ZM251.984 24.4688C251.984 24.0039 251.911 23.5938 251.765 23.2383C251.628 22.8737 251.382 22.5456 251.027 22.2539C250.68 21.9622 250.197 21.6842 249.577 21.4199C248.967 21.1556 248.192 20.8867 247.253 20.6133C246.269 20.3216 245.38 19.998 244.587 19.6426C243.794 19.278 243.115 18.8633 242.55 18.3984C241.985 17.9336 241.552 17.4004 241.251 16.7988C240.95 16.1973 240.8 15.5091 240.8 14.7344C240.8 13.9596 240.96 13.2441 241.279 12.5879C241.598 11.9316 242.053 11.362 242.646 10.8789C243.247 10.3867 243.963 10.0039 244.792 9.73047C245.622 9.45703 246.547 9.32031 247.568 9.32031C249.062 9.32031 250.329 9.60742 251.368 10.1816C252.417 10.7467 253.214 11.4896 253.761 12.4102C254.308 13.3216 254.581 14.2969 254.581 15.3359H251.956C251.956 14.5885 251.797 13.9277 251.478 13.3535C251.159 12.7702 250.676 12.3145 250.029 11.9863C249.381 11.6491 248.561 11.4805 247.568 11.4805C246.629 11.4805 245.854 11.6217 245.243 11.9043C244.633 12.1868 244.177 12.5697 243.876 13.0527C243.585 13.5358 243.439 14.0872 243.439 14.707C243.439 15.1263 243.525 15.5091 243.698 15.8555C243.881 16.1927 244.159 16.5072 244.532 16.7988C244.915 17.0905 245.398 17.3594 245.982 17.6055C246.574 17.8516 247.281 18.0885 248.101 18.3164C249.231 18.6354 250.206 18.9909 251.027 19.3828C251.847 19.7747 252.521 20.2168 253.05 20.709C253.588 21.1921 253.984 21.7435 254.24 22.3633C254.504 22.974 254.636 23.6667 254.636 24.4414C254.636 25.2526 254.472 25.9863 254.144 26.6426C253.816 27.2988 253.346 27.8594 252.736 28.3242C252.125 28.7891 251.391 29.1491 250.534 29.4043C249.687 29.6504 248.739 29.7734 247.691 29.7734C246.77 29.7734 245.863 29.6458 244.97 29.3906C244.086 29.1354 243.279 28.7526 242.55 28.2422C241.83 27.7318 241.251 27.1029 240.814 26.3555C240.385 25.599 240.171 24.724 240.171 23.7305H242.796C242.796 24.4141 242.928 25.002 243.193 25.4941C243.457 25.9772 243.817 26.3783 244.273 26.6973C244.738 27.0163 245.262 27.2533 245.845 27.4082C246.437 27.554 247.053 27.627 247.691 27.627C248.611 27.627 249.391 27.4993 250.029 27.2441C250.667 26.9889 251.15 26.6243 251.478 26.1504C251.815 25.6764 251.984 25.1159 251.984 24.4688Z" fill="#737373"/>
</svg>
