<svg width="24" height="24" viewBox="0 0 24 24" fill="none" xmlns="http://www.w3.org/2000/svg">
<g filter="url(#filter0_d_261_5101)">
<path d="M17.8462 5.69746C18.8964 7.64612 19.1795 9.91354 18.6405 12.0583C18.1014 14.2031 16.7788 16.0717 14.9301 17.3003C13.0813 18.529 10.8388 19.0297 8.63905 18.7051C6.43931 18.3805 4.43981 17.2538 3.02981 15.5443L4.41527 14.415C5.54313 15.7825 7.14254 16.6838 8.90212 16.9434C10.6617 17.2031 12.4555 16.8025 13.9343 15.8197C15.4131 14.8369 16.4711 13.3422 16.9023 11.6266C17.3335 9.91099 17.107 8.09727 16.2669 6.53854L17.8462 5.69746Z" fill="url(#paint0_linear_261_5101)"/>
</g>
<rect width="2.25726" height="3.09504" transform="matrix(0.699994 -0.714149 0.718287 0.695747 14.4904 16.0234)" fill="#ADB9CA"/>
<path d="M18.9075 9.9008C18.9075 14.8166 14.8988 18.8016 9.95375 18.8016C5.00873 18.8016 1 14.8166 1 9.9008C1 4.98502 5.00873 1 9.95375 1C14.8988 1 18.9075 4.98502 18.9075 9.9008ZM2.79162 9.9008C2.79162 13.8329 5.99822 17.0206 9.95375 17.0206C13.9093 17.0206 17.1159 13.8329 17.1159 9.9008C17.1159 5.96866 13.9093 2.78103 9.95375 2.78103C5.99822 2.78103 2.79162 5.96866 2.79162 9.9008Z" fill="url(#paint1_linear_261_5101)"/>
<path d="M14.7291 10.3759C14.7291 11.359 12.5911 12.156 9.9538 12.156C7.31646 12.156 5.17847 11.359 5.17847 10.3759C5.17847 9.39271 7.31646 8.5957 9.9538 8.5957C12.5911 8.5957 14.7291 9.39271 14.7291 10.3759Z" fill="#5E7599"/>
<path d="M14.7291 10.3759C14.7291 11.359 12.5911 12.156 9.9538 12.156C7.31646 12.156 5.17847 11.359 5.17847 10.3759V12.6307C5.17847 13.6139 7.31646 14.4109 9.9538 14.4109C12.5911 14.4109 14.7291 13.6139 14.7291 12.6307V10.3759Z" fill="#5E7599"/>
<path d="M14.7291 10.3759C14.7291 11.359 12.5911 12.156 9.9538 12.156C7.31646 12.156 5.17847 11.359 5.17847 10.3759C5.17847 9.39271 7.31646 8.5957 9.9538 8.5957C12.5911 8.5957 14.7291 9.39271 14.7291 10.3759Z" fill="url(#paint2_linear_261_5101)"/>
<path d="M14.7291 10.3759C14.7291 11.359 12.5911 12.156 9.9538 12.156C7.31646 12.156 5.17847 11.359 5.17847 10.3759V12.6307C5.17847 13.6139 7.31646 14.4109 9.9538 14.4109C12.5911 14.4109 14.7291 13.6139 14.7291 12.6307V10.3759Z" fill="url(#paint3_linear_261_5101)"/>
<path d="M14.7291 10.3759C14.7291 11.359 12.5911 12.156 9.9538 12.156C7.31646 12.156 5.17847 11.359 5.17847 10.3759C5.17847 9.39271 7.31646 8.5957 9.9538 8.5957C12.5911 8.5957 14.7291 9.39271 14.7291 10.3759Z" fill="#435E88"/>
<path d="M14.7291 6.69618C14.7291 7.67933 12.5911 8.47634 9.9538 8.47634C7.31646 8.47634 5.17847 7.67933 5.17847 6.69618C5.17847 5.71302 7.31646 4.91602 9.9538 4.91602C12.5911 4.91602 14.7291 5.71302 14.7291 6.69618Z" fill="url(#paint4_linear_261_5101)"/>
<path d="M14.7291 6.69618C14.7291 7.67933 12.5911 8.47634 9.9538 8.47634C7.31646 8.47634 5.17847 7.67933 5.17847 6.69618V8.95105C5.17847 9.9342 7.31646 10.7312 9.9538 10.7312C12.5911 10.7312 14.7291 9.9342 14.7291 8.95105V6.69618Z" fill="url(#paint5_linear_261_5101)"/>
<path d="M14.7291 6.69618C14.7291 7.67933 12.5911 8.47634 9.9538 8.47634C7.31646 8.47634 5.17847 7.67933 5.17847 6.69618C5.17847 5.71302 7.31646 4.91602 9.9538 4.91602C12.5911 4.91602 14.7291 5.71302 14.7291 6.69618Z" fill="#435E88"/>
<ellipse cx="12.1027" cy="9.42588" rx="0.477534" ry="0.474709" fill="url(#paint6_linear_261_5101)"/>
<ellipse cx="12.1027" cy="13.1056" rx="0.477534" ry="0.474709" fill="url(#paint7_linear_261_5101)"/>
<ellipse cx="13.6547" cy="8.95127" rx="0.477534" ry="0.474709" fill="url(#paint8_linear_261_5101)"/>
<ellipse cx="13.6547" cy="12.631" rx="0.477534" ry="0.474709" fill="url(#paint9_linear_261_5101)"/>
<path d="M16.2811 19.2754L19.3114 16.309L21.5079 18.5265C22.332 19.3584 22.3217 20.6968 21.4849 21.5159C20.6482 22.3351 19.3018 22.3247 18.4777 21.4928L16.2811 19.2754Z" fill="url(#paint10_linear_261_5101)"/>
<path d="M16.004 19.0078C15.7614 18.7629 15.7645 18.369 16.0108 18.1279L18.1644 16.0196C18.4107 15.7785 18.807 15.7816 19.0496 16.0264L19.67 16.6527L16.6244 19.6341L16.004 19.0078Z" fill="url(#paint11_linear_261_5101)"/>
<defs>
<filter id="filter0_d_261_5101" x="2.28093" y="4.57398" width="16.6265" height="14.2268" filterUnits="userSpaceOnUse" color-interpolation-filters="sRGB">
<feFlood flood-opacity="0" result="BackgroundImageFix"/>
<feColorMatrix in="SourceAlpha" type="matrix" values="0 0 0 0 0 0 0 0 0 0 0 0 0 0 0 0 0 0 127 0" result="hardAlpha"/>
<feOffset dx="-0.748859" dy="-1.12329"/>
<feComposite in2="hardAlpha" operator="out"/>
<feColorMatrix type="matrix" values="0 0 0 0 0.803922 0 0 0 0 0.831373 0 0 0 0 0.87451 0 0 0 1 0"/>
<feBlend mode="normal" in2="BackgroundImageFix" result="effect1_dropShadow_261_5101"/>
<feBlend mode="normal" in="SourceGraphic" in2="effect1_dropShadow_261_5101" result="shape"/>
</filter>
<linearGradient id="paint0_linear_261_5101" x1="16.9974" y1="15.538" x2="3.3416" y2="3.11494" gradientUnits="userSpaceOnUse">
<stop stop-color="#14A142"/>
<stop offset="1" stop-color="#61E085"/>
</linearGradient>
<linearGradient id="paint1_linear_261_5101" x1="16.9974" y1="15.538" x2="3.3416" y2="3.11494" gradientUnits="userSpaceOnUse">
<stop stop-color="#14A142"/>
<stop offset="1" stop-color="#61E085"/>
</linearGradient>
<linearGradient id="paint2_linear_261_5101" x1="14.7291" y1="12.5714" x2="5.17883" y2="12.031" gradientUnits="userSpaceOnUse">
<stop stop-color="#5E7599"/>
<stop offset="1" stop-color="#708DB9"/>
</linearGradient>
<linearGradient id="paint3_linear_261_5101" x1="14.7291" y1="12.5714" x2="5.17883" y2="12.031" gradientUnits="userSpaceOnUse">
<stop stop-color="#5E7599"/>
<stop offset="1" stop-color="#708DB9"/>
</linearGradient>
<linearGradient id="paint4_linear_261_5101" x1="14.7291" y1="8.89171" x2="5.17883" y2="8.35131" gradientUnits="userSpaceOnUse">
<stop stop-color="#5E7599"/>
<stop offset="1" stop-color="#708DB9"/>
</linearGradient>
<linearGradient id="paint5_linear_261_5101" x1="14.7291" y1="8.89171" x2="5.17883" y2="8.35131" gradientUnits="userSpaceOnUse">
<stop stop-color="#5E7599"/>
<stop offset="1" stop-color="#708DB9"/>
</linearGradient>
<linearGradient id="paint6_linear_261_5101" x1="12.5205" y1="9.78191" x2="11.6297" y2="9.00528" gradientUnits="userSpaceOnUse">
<stop offset="0.00192308" stop-color="#FFBE00"/>
<stop offset="1" stop-color="#FFEF9B"/>
</linearGradient>
<linearGradient id="paint7_linear_261_5101" x1="12.5205" y1="13.4616" x2="11.6297" y2="12.685" gradientUnits="userSpaceOnUse">
<stop offset="0.00192308" stop-color="#FFBE00"/>
<stop offset="1" stop-color="#FFEF9B"/>
</linearGradient>
<linearGradient id="paint8_linear_261_5101" x1="14.3113" y1="9.42598" x2="13.1823" y2="8.52939" gradientUnits="userSpaceOnUse">
<stop offset="0.00192308" stop-color="#0087E1"/>
<stop offset="1" stop-color="#A8DCFF"/>
</linearGradient>
<linearGradient id="paint9_linear_261_5101" x1="14.3113" y1="13.1057" x2="13.1823" y2="12.2091" gradientUnits="userSpaceOnUse">
<stop offset="0.00192308" stop-color="#0087E1"/>
<stop offset="1" stop-color="#A8DCFF"/>
</linearGradient>
<linearGradient id="paint10_linear_261_5101" x1="21.0005" y1="17.8577" x2="18.1188" y2="21.0627" gradientUnits="userSpaceOnUse">
<stop stop-color="#14A142"/>
<stop offset="1" stop-color="#5FDE82"/>
</linearGradient>
<linearGradient id="paint11_linear_261_5101" x1="19.1521" y1="15.9726" x2="16.7862" y2="19.5023" gradientUnits="userSpaceOnUse">
<stop stop-color="#CDD4DF"/>
<stop offset="1" stop-color="#E5E8EF"/>
</linearGradient>
</defs>
</svg>
