<svg width="62" height="62" viewBox="0 0 62 62" fill="none" xmlns="http://www.w3.org/2000/svg">
<rect width="62" height="62" rx="9.09817" fill="url(#paint0_linear_213_950)"/>
<path d="M14.4961 17.3132L31.3063 13.5776L21.5003 33.1894M21.5003 33.1894L43.9139 34.1233M21.5003 33.1894L32.2402 45.7971M43.9139 34.1233L48.1164 18.714M43.9139 34.1233L32.2402 45.7971M32.2402 45.7971L17.7647 49.9996" stroke="white" stroke-width="1.24"/>
<circle cx="30.7735" cy="14.0032" r="4.66949" transform="rotate(38.6085 30.7735 14.0032)" fill="url(#paint1_linear_213_950)"/>
<circle cx="43.626" cy="33.8286" r="4.66949" transform="rotate(38.6085 43.626 33.8286)" fill="url(#paint2_linear_213_950)"/>
<circle cx="21.6018" cy="32.9737" r="4.66949" transform="rotate(38.6085 21.6018 32.9737)" fill="url(#paint3_linear_213_950)"/>
<circle cx="32.3332" cy="45.7251" r="3.26865" transform="rotate(38.6085 32.3332 45.7251)" fill="url(#paint4_linear_213_950)"/>
<circle cx="18.1899" cy="49.9658" r="3.26865" transform="rotate(38.6085 18.1899 49.9658)" fill="url(#paint5_linear_213_950)"/>
<circle cx="14.5141" cy="17.1542" r="3.26865" transform="rotate(38.6085 14.5141 17.1542)" fill="url(#paint6_linear_213_950)"/>
<circle cx="47.915" cy="18.7284" r="3.26865" transform="rotate(38.6085 47.915 18.7284)" fill="url(#paint7_linear_213_950)"/>
<defs>
<linearGradient id="paint0_linear_213_950" x1="0" y1="0" x2="62" y2="58.5" gradientUnits="userSpaceOnUse">
<stop stop-color="#7EA9EB"/>
<stop offset="1" stop-color="#4265E0"/>
</linearGradient>
<linearGradient id="paint1_linear_213_950" x1="30.7735" y1="9.33367" x2="30.7735" y2="18.6727" gradientUnits="userSpaceOnUse">
<stop stop-color="#F3F0F8"/>
<stop offset="1" stop-color="#C7C6EE"/>
</linearGradient>
<linearGradient id="paint2_linear_213_950" x1="43.626" y1="29.1591" x2="43.626" y2="38.4981" gradientUnits="userSpaceOnUse">
<stop stop-color="#F3F0F8"/>
<stop offset="1" stop-color="#C7C6EE"/>
</linearGradient>
<linearGradient id="paint3_linear_213_950" x1="21.6018" y1="28.3042" x2="21.6018" y2="37.6432" gradientUnits="userSpaceOnUse">
<stop stop-color="#F3F0F8"/>
<stop offset="1" stop-color="#C7C6EE"/>
</linearGradient>
<linearGradient id="paint4_linear_213_950" x1="32.3332" y1="42.4564" x2="32.3332" y2="48.9937" gradientUnits="userSpaceOnUse">
<stop stop-color="white"/>
<stop offset="1" stop-color="#DBF2FF"/>
</linearGradient>
<linearGradient id="paint5_linear_213_950" x1="18.1899" y1="46.6971" x2="18.1899" y2="53.2344" gradientUnits="userSpaceOnUse">
<stop stop-color="white"/>
<stop offset="1" stop-color="#DBF2FF"/>
</linearGradient>
<linearGradient id="paint6_linear_213_950" x1="14.5141" y1="13.8856" x2="14.5141" y2="20.4229" gradientUnits="userSpaceOnUse">
<stop stop-color="#E5F6FF"/>
<stop offset="1" stop-color="white"/>
</linearGradient>
<linearGradient id="paint7_linear_213_950" x1="47.915" y1="15.4598" x2="47.915" y2="21.9971" gradientUnits="userSpaceOnUse">
<stop stop-color="white"/>
<stop offset="1" stop-color="#DBF2FF"/>
</linearGradient>
</defs>
</svg>
