<svg width="62" height="62" viewBox="0 0 62 62" fill="none" xmlns="http://www.w3.org/2000/svg">
<rect width="62" height="62" rx="9.09817" fill="url(#paint0_linear_489_567)"/>
<path d="M14.4962 17.3132L31.3064 13.5776L21.5005 33.1895M21.5005 33.1895L43.914 34.1234M21.5005 33.1895L32.2403 45.7971M43.914 34.1234L48.1166 18.7141M43.914 34.1234L32.2403 45.7971M32.2403 45.7971L17.7649 49.9997" stroke="white" stroke-width="1.24"/>
<circle cx="30.7734" cy="14.003" r="4.66949" transform="rotate(38.6085 30.7734 14.003)" fill="url(#paint1_linear_489_567)"/>
<circle cx="43.626" cy="33.8287" r="4.66949" transform="rotate(38.6085 43.626 33.8287)" fill="url(#paint2_linear_489_567)"/>
<circle cx="21.6018" cy="32.9737" r="4.66949" transform="rotate(38.6085 21.6018 32.9737)" fill="url(#paint3_linear_489_567)"/>
<circle cx="32.3333" cy="45.7252" r="3.26865" transform="rotate(38.6085 32.3333 45.7252)" fill="url(#paint4_linear_489_567)"/>
<circle cx="18.1898" cy="49.9659" r="3.26865" transform="rotate(38.6085 18.1898 49.9659)" fill="url(#paint5_linear_489_567)"/>
<circle cx="14.514" cy="17.1539" r="3.26865" transform="rotate(38.6085 14.514 17.1539)" fill="url(#paint6_linear_489_567)"/>
<circle cx="47.915" cy="18.7281" r="3.26865" transform="rotate(38.6085 47.915 18.7281)" fill="url(#paint7_linear_489_567)"/>
<defs>
<linearGradient id="paint0_linear_489_567" x1="0" y1="0" x2="62" y2="58.5" gradientUnits="userSpaceOnUse">
<stop stop-color="#7EA9EB"/>
<stop offset="1" stop-color="#4265E0"/>
</linearGradient>
<linearGradient id="paint1_linear_489_567" x1="30.7734" y1="9.33355" x2="30.7734" y2="18.6725" gradientUnits="userSpaceOnUse">
<stop stop-color="#F3F0F8"/>
<stop offset="1" stop-color="#C7C6EE"/>
</linearGradient>
<linearGradient id="paint2_linear_489_567" x1="43.626" y1="29.1592" x2="43.626" y2="38.4982" gradientUnits="userSpaceOnUse">
<stop stop-color="#F3F0F8"/>
<stop offset="1" stop-color="#C7C6EE"/>
</linearGradient>
<linearGradient id="paint3_linear_489_567" x1="21.6018" y1="28.3043" x2="21.6018" y2="37.6432" gradientUnits="userSpaceOnUse">
<stop stop-color="#F3F0F8"/>
<stop offset="1" stop-color="#C7C6EE"/>
</linearGradient>
<linearGradient id="paint4_linear_489_567" x1="32.3333" y1="42.4565" x2="32.3333" y2="48.9938" gradientUnits="userSpaceOnUse">
<stop stop-color="white"/>
<stop offset="1" stop-color="#DBF2FF"/>
</linearGradient>
<linearGradient id="paint5_linear_489_567" x1="18.1898" y1="46.6973" x2="18.1898" y2="53.2345" gradientUnits="userSpaceOnUse">
<stop stop-color="white"/>
<stop offset="1" stop-color="#DBF2FF"/>
</linearGradient>
<linearGradient id="paint6_linear_489_567" x1="14.514" y1="13.8852" x2="14.514" y2="20.4225" gradientUnits="userSpaceOnUse">
<stop stop-color="#E5F6FF"/>
<stop offset="1" stop-color="white"/>
</linearGradient>
<linearGradient id="paint7_linear_489_567" x1="47.915" y1="15.4595" x2="47.915" y2="21.9968" gradientUnits="userSpaceOnUse">
<stop stop-color="white"/>
<stop offset="1" stop-color="#DBF2FF"/>
</linearGradient>
</defs>
</svg>
