<svg width="62" height="62" viewBox="0 0 62 62" fill="none" xmlns="http://www.w3.org/2000/svg">
<rect width="62" height="62" rx="12.4" fill="#F2F2F2"/>
<path d="M12.844 18.0325L30.9562 14.4031L20.3908 33.4575M20.3908 33.4575L44.5404 34.3649M20.3908 33.4575L31.9625 45.7068M44.5404 34.3649L49.0685 19.3935M44.5404 34.3649L31.9625 45.7068M31.9625 45.7068L16.3658 49.7899" stroke="#B0C0CF" stroke-width="1.24"/>
<circle cx="12" cy="18" r="3" fill="url(#paint0_linear_474_2200)"/>
<circle cx="49" cy="19" r="3" fill="url(#paint1_linear_474_2200)"/>
<circle cx="32" cy="46" r="3" fill="url(#paint2_linear_474_2200)"/>
<circle cx="16" cy="50" r="3" fill="url(#paint3_linear_474_2200)"/>
<circle cx="20.5" cy="33.5" r="4.5" fill="url(#paint4_linear_474_2200)"/>
<circle cx="44.5" cy="34.5" r="4.5" fill="url(#paint5_linear_474_2200)"/>
<circle cx="31.5" cy="14.5" r="4.5" fill="url(#paint6_linear_474_2200)"/>
<defs>
<linearGradient id="paint0_linear_474_2200" x1="12" y1="15" x2="12" y2="21" gradientUnits="userSpaceOnUse">
<stop stop-color="#B3D9EF"/>
<stop offset="1" stop-color="#87AFEA"/>
</linearGradient>
<linearGradient id="paint1_linear_474_2200" x1="49" y1="16" x2="49" y2="22" gradientUnits="userSpaceOnUse">
<stop stop-color="#B3D9EF"/>
<stop offset="1" stop-color="#87AFEA"/>
</linearGradient>
<linearGradient id="paint2_linear_474_2200" x1="32" y1="43" x2="32" y2="49" gradientUnits="userSpaceOnUse">
<stop stop-color="#B3D9EF"/>
<stop offset="1" stop-color="#87AFEA"/>
</linearGradient>
<linearGradient id="paint3_linear_474_2200" x1="16" y1="47" x2="16" y2="53" gradientUnits="userSpaceOnUse">
<stop stop-color="#B3D9EF"/>
<stop offset="1" stop-color="#87AFEA"/>
</linearGradient>
<linearGradient id="paint4_linear_474_2200" x1="20.5" y1="29" x2="20.5" y2="38" gradientUnits="userSpaceOnUse">
<stop stop-color="#708EF8"/>
<stop offset="1" stop-color="#425EA8"/>
</linearGradient>
<linearGradient id="paint5_linear_474_2200" x1="44.5" y1="30" x2="44.5" y2="39" gradientUnits="userSpaceOnUse">
<stop stop-color="#708EF8"/>
<stop offset="1" stop-color="#425EA8"/>
</linearGradient>
<linearGradient id="paint6_linear_474_2200" x1="31.5" y1="10" x2="31.5" y2="19" gradientUnits="userSpaceOnUse">
<stop stop-color="#708EF8"/>
<stop offset="1" stop-color="#425EA8"/>
</linearGradient>
</defs>
</svg>
