<svg width="21" height="21" viewBox="0 0 21 21" fill="none" xmlns="http://www.w3.org/2000/svg">
<g clip-path="url(#clip0_474_1487)">
<path d="M20.0455 20.0455L15.538 15.53L20.0455 20.0455ZM18.0359 9.49526C18.0359 11.7604 17.1361 13.9327 15.5344 15.5344C13.9327 17.1361 11.7604 18.0359 9.49526 18.0359C7.23013 18.0359 5.05778 17.1361 3.45609 15.5344C1.85441 13.9327 0.95459 11.7604 0.95459 9.49526C0.95459 7.23013 1.85441 5.05778 3.45609 3.45609C5.05778 1.85441 7.23013 0.95459 9.49526 0.95459C11.7604 0.95459 13.9327 1.85441 15.5344 3.45609C17.1361 5.05778 18.0359 7.23013 18.0359 9.49526V9.49526Z" stroke="#A2A2A2" stroke-width="2" stroke-linecap="round"/>
</g>
<defs>
<clipPath id="clip0_474_1487">
<rect width="21" height="21" fill="white"/>
</clipPath>
</defs>
</svg>
