<svg width="20" height="16" viewBox="0 0 20 16" fill="none" xmlns="http://www.w3.org/2000/svg">
<path d="M5.25005 13.5005C5.41711 13.4958 5.58342 13.5246 5.73915 13.5853C5.89488 13.6459 6.03686 13.7372 6.1567 13.8537C6.27653 13.9702 6.37179 14.1095 6.43684 14.2635C6.50189 14.4174 6.5354 14.5829 6.5354 14.75C6.5354 14.9171 6.50189 15.0826 6.43684 15.2365C6.37179 15.3905 6.27653 15.5298 6.1567 15.6463C6.03686 15.7628 5.89488 15.8541 5.73915 15.9147C5.58342 15.9754 5.41711 16.0042 5.25005 15.9995C4.92478 15.9903 4.61592 15.8546 4.38911 15.6213C4.16229 15.388 4.0354 15.0754 4.0354 14.75C4.0354 14.4246 4.16229 14.112 4.38911 13.8787C4.61592 13.6454 4.92478 13.5097 5.25005 13.5005ZM8.75005 14.0005H19.25C19.4401 14.0006 19.623 14.0727 19.7618 14.2025C19.9007 14.3322 19.9851 14.5098 19.9981 14.6994C20.011 14.889 19.9515 15.0764 19.8316 15.2238C19.7117 15.3712 19.5403 15.4676 19.352 15.4935L19.25 15.5005H8.75005C8.56003 15.5004 8.37711 15.4283 8.23826 15.2985C8.09941 15.1688 8.01497 14.9912 8.00202 14.8016C7.98907 14.612 8.04856 14.4246 8.16848 14.2772C8.2884 14.1298 8.4598 14.0334 8.64805 14.0075L8.75005 14.0005ZM1.25005 7.0005C1.41711 6.99577 1.58342 7.0246 1.73915 7.08526C1.89488 7.14593 2.03686 7.23721 2.1567 7.3537C2.27653 7.4702 2.37179 7.60954 2.43684 7.76349C2.50189 7.91744 2.5354 8.08287 2.5354 8.25C2.5354 8.41713 2.50189 8.58256 2.43684 8.73651C2.37179 8.89046 2.27653 9.0298 2.1567 9.14629C2.03686 9.26279 1.89488 9.35407 1.73915 9.41474C1.58342 9.4754 1.41711 9.50423 1.25005 9.4995C0.92478 9.4903 0.61592 9.35462 0.389105 9.12129C0.16229 8.88797 0.0354004 8.5754 0.0354004 8.25C0.0354004 7.9246 0.16229 7.61203 0.389105 7.37871C0.61592 7.14538 0.92478 7.0097 1.25005 7.0005ZM4.75005 7.5005H19.25C19.4401 7.50056 19.623 7.57274 19.7618 7.70247C19.9007 7.8322 19.9851 8.0098 19.9981 8.19938C20.011 8.38896 19.9515 8.57639 19.8316 8.7238C19.7117 8.87121 19.5403 8.9676 19.352 8.9935L19.25 9.0005H4.75005C4.56003 9.00044 4.37711 8.92826 4.23826 8.79853C4.09941 8.6688 4.01497 8.4912 4.00202 8.30162C3.98907 8.11204 4.04856 7.92461 4.16848 7.7772C4.2884 7.62979 4.4598 7.5334 4.64805 7.5075L4.75005 7.5005ZM1.25005 0.5005C1.41711 0.495773 1.58342 0.524596 1.73915 0.585264C1.89488 0.645931 2.03686 0.737211 2.1567 0.853705C2.27653 0.970199 2.37179 1.10954 2.43684 1.26349C2.50189 1.41744 2.5354 1.58287 2.5354 1.75C2.5354 1.91713 2.50189 2.08256 2.43684 2.23651C2.37179 2.39046 2.27653 2.5298 2.1567 2.64629C2.03686 2.76279 1.89488 2.85407 1.73915 2.91474C1.58342 2.9754 1.41711 3.00423 1.25005 2.9995C0.92478 2.9903 0.61592 2.85462 0.389105 2.6213C0.16229 2.38797 0.0354004 2.0754 0.0354004 1.75C0.0354004 1.4246 0.16229 1.11203 0.389105 0.878705C0.61592 0.645382 0.92478 0.509703 1.25005 0.5005ZM4.75005 1.0005H19.25C19.4401 1.00056 19.623 1.07274 19.7618 1.20247C19.9007 1.3322 19.9851 1.5098 19.9981 1.69938C20.011 1.88896 19.9515 2.07639 19.8316 2.2238C19.7117 2.37121 19.5403 2.4676 19.352 2.4935L19.25 2.5005H4.75005C4.56003 2.50044 4.37711 2.42826 4.23826 2.29853C4.09941 2.1688 4.01497 1.9912 4.00202 1.80162C3.98907 1.61204 4.04856 1.42461 4.16848 1.2772C4.2884 1.12979 4.4598 1.0334 4.64805 1.0075L4.75005 1.0005Z" fill="#949494"/>
</svg>
