<svg width="36" height="36" viewBox="0 0 36 36" fill="none" xmlns="http://www.w3.org/2000/svg">
<rect width="36" height="36" rx="6" fill="#98C3B1"/>
<path d="M21.1211 8.9375H24.3438V20.2695C24.3438 21.5742 24.0625 22.6719 23.5 23.5625C22.9375 24.4453 22.1719 25.1133 21.2031 25.5664C20.2344 26.0117 19.1328 26.2344 17.8984 26.2344C16.6484 26.2344 15.5352 26.0117 14.5586 25.5664C13.582 25.1133 12.8164 24.4453 12.2617 23.5625C11.707 22.6719 11.4297 21.5742 11.4297 20.2695V8.9375H14.6523V20.2695C14.6523 21.0664 14.7852 21.7188 15.0508 22.2266C15.3164 22.7266 15.6914 23.0977 16.1758 23.3398C16.6602 23.582 17.2344 23.7031 17.8984 23.7031C18.5703 23.7031 19.1445 23.582 19.6211 23.3398C20.1055 23.0977 20.4766 22.7266 20.7344 22.2266C20.9922 21.7188 21.1211 21.0664 21.1211 20.2695V8.9375Z" fill="white"/>
</svg>

