<svg width="110" height="110" viewBox="0 0 110 110" fill="none" xmlns="http://www.w3.org/2000/svg">
<rect width="110" height="110" rx="18" fill="#DBDBDB"/>
<path fill-rule="evenodd" clip-rule="evenodd" d="M37.425 30C33.3243 30 30 33.3243 30 37.425V42.5898V46.187V65.2518V68.8489V72.575C30 76.6757 33.3243 80 37.425 80H72.575C76.6757 80 80 76.6757 80 72.575V68.8489V65.2518V46.187V42.5898V37.425C80 33.3243 76.6757 30 72.575 30H37.425ZM76.4028 65.2518V46.187H42.9495V65.2518H76.4028ZM39.3524 65.2518V46.187H33.7769V65.2518H39.3524ZM42.9495 42.5896V42.5898H76.4028V36.8969C76.4028 35.0743 74.9253 33.5969 73.1028 33.5969H37.0769C35.2544 33.5969 33.7769 35.0743 33.7769 36.8969V42.5898H39.3524V42.5896H42.9495ZM33.7769 68.8489V72.9228C33.7769 74.7453 35.2544 76.2228 37.0769 76.2228H73.1028C74.9254 76.2228 76.4028 74.7453 76.4028 72.9228V68.8489H33.7769ZM50.6836 50.1439C49.6902 50.1439 48.885 50.9491 48.885 51.9425C48.885 52.9358 49.6902 53.741 50.6836 53.741H69.0289C70.0222 53.741 70.8274 52.9358 70.8274 51.9425C70.8274 50.9491 70.0222 50.1439 69.0289 50.1439H50.6836ZM59.1366 38.2731C59.1366 37.2797 59.9419 36.4745 60.9352 36.4745C61.9285 36.4745 62.7338 37.2797 62.7338 38.2731C62.7338 39.2664 61.9285 40.0716 60.9352 40.0716C59.9419 40.0716 59.1366 39.2664 59.1366 38.2731ZM66.1508 36.4745C65.1575 36.4745 64.3523 37.2797 64.3523 38.2731C64.3523 39.2664 65.1575 40.0716 66.1508 40.0716C67.1441 40.0716 67.9494 39.2664 67.9494 38.2731C67.9494 37.2797 67.1441 36.4745 66.1508 36.4745ZM69.5681 38.2731C69.5681 37.2797 70.3733 36.4745 71.3667 36.4745C72.36 36.4745 73.1652 37.2797 73.1652 38.2731C73.1652 39.2664 72.36 40.0716 71.3667 40.0716C70.3733 40.0716 69.5681 39.2664 69.5681 38.2731ZM50.6836 57.5179C49.6902 57.5179 48.885 58.3231 48.885 59.3165C48.885 60.3098 49.6902 61.115 50.6836 61.115H69.0289C70.0222 61.115 70.8274 60.3098 70.8274 59.3165C70.8274 58.3231 70.0222 57.5179 69.0289 57.5179H50.6836Z" fill="#585858"/>
</svg>
