<svg width="110" height="110" viewBox="0 0 110 110" fill="none" xmlns="http://www.w3.org/2000/svg">
<rect width="110" height="110" rx="18" fill="#DBDBDB"/>
<path fill-rule="evenodd" clip-rule="evenodd" d="M39.9292 28.3512H69.4361C69.4956 28.3512 69.5438 28.3995 69.5438 28.4589V32.8093C69.5438 32.8688 69.4956 32.917 69.4361 32.917H39.9292C39.8697 32.917 39.8215 32.8687 39.8215 32.8093V28.4589C39.8215 28.3994 39.8697 28.3512 39.9292 28.3512ZM39.9292 41.4024H69.4361C69.4956 41.4024 69.5438 41.4506 69.5438 41.51V45.8604C69.5438 45.9199 69.4956 45.9681 69.4361 45.9681H39.9292C39.8697 45.9681 39.8215 45.9199 39.8215 45.8604V41.51C39.8215 41.4506 39.8697 41.4024 39.9292 41.4024ZM39.9292 54.6427H69.4361C69.4956 54.6427 69.5438 54.6909 69.5438 54.7503V59.1007C69.5438 59.1602 69.4956 59.2084 69.4361 59.2084H39.9292C39.8697 59.2084 39.8215 59.1602 39.8215 59.1007V54.7503C39.8215 54.6909 39.8697 54.6427 39.9292 54.6427ZM39.9292 26C38.5712 26 37.4703 27.1009 37.4703 28.4589V30.4837C35.8233 30.6446 34.3411 30.8323 33.089 31.0477C31.655 31.2942 30.4295 31.5917 29.6029 31.9699C28.6564 32.4029 28.3504 33.3482 28.3504 34.0543V36.2075C27.6889 36.2472 26.9432 36.3514 26.2707 36.6241C25.6744 36.8658 25.0827 37.2577 24.6478 37.8889C24.2116 38.5222 24 39.2996 24 40.1961C24 40.8704 24.0014 42.4145 24.0032 44.5405L24.0032 44.5405C24.0104 52.6872 24.025 69.377 24 78.4005C24 78.4173 24.0003 78.434 24.0009 78.4508C24.025 79.0529 24.2437 79.9021 24.8352 80.6256C25.4661 81.3972 26.4572 81.9438 27.8236 81.9438H27.8354H27.8474H27.8597H27.8722H27.8849H27.8979H27.9111H27.9245H27.9382H27.9521H27.9663H27.9807H27.9953H28.0102H28.0252H28.0406H28.0561H28.0719H28.0879H28.1042H28.1206H28.1373H28.1542H28.1714H28.1888H28.2064H28.2242H28.2422H28.2605H28.279H28.2977H28.3166H28.3358H28.3551H28.3747H28.3945H28.4145H28.4347H28.4552H28.4758H28.4967H28.5178H28.5391H28.5606H28.5823H28.6042H28.6264H28.6487H28.6713H28.694H28.717H28.7401H28.7635H28.7871H28.8109H28.8348H28.859H28.8834H28.908H28.9327H28.9577H28.9829H29.0083H29.0338H29.0596H29.0855H29.1117H29.138H29.1646H29.1913H29.2182H29.2453H29.2726H29.3001H29.3278H29.3556H29.3837H29.4119H29.4403H29.4689H29.4977H29.5266H29.5558H29.5851H29.6146H29.6443H29.6742H29.7042H29.7344H29.7648H29.7954H29.8262H29.8571H29.8882H29.9194H29.9509H29.9825H30.0143H30.0462H30.0784H30.1106H30.1431H30.1757H30.2085H30.2415H30.2746H30.3079H30.3413H30.3749H30.4087H30.4426H30.4767H30.511H30.5454H30.58H30.6147H30.6496H30.6846H30.7198H30.7551H30.7906H30.8263H30.8621H30.8981H30.9342H30.9704H31.0068H31.0434H31.0801H31.1169H31.1539H31.1911H31.2283H31.2658H31.3033H31.341H31.3789H31.4169H31.455H31.4933H31.5317H31.5703H31.609H31.6478H31.6867H31.7258H31.7651H31.8044H31.8439H31.8835H31.9233H31.9632H32.0032H32.0433H32.0836H32.124H32.1645H32.2052H32.246H32.2869H32.3279H32.3691H32.4103H32.4517H32.4932H32.5349H32.5766H32.6185H32.6605H32.7026H32.7448H32.7872H32.8296H32.8722H32.9148H32.9576H33.0005H33.0436H33.0867H33.1299H33.1733H33.2167H33.2603H33.3039H33.3477H33.3916H33.4356H33.4796H33.5238H33.5681H33.6125H33.657H33.7016H33.7463H33.7911H33.836H33.8809H33.926H33.9712H34.0165H34.0618H34.1073H34.1528H34.1985H34.2442H34.29H34.3359H34.3819H34.428H34.4742H34.5204H34.5668H34.6132H34.6597H34.7063H34.753H34.7998H34.8466H34.8935H34.9405H34.9876H35.0348H35.082H35.1293H35.1767H35.2242H35.2717H35.3193H35.367H35.4148H35.4626H35.5105H35.5585H35.6065H35.6546H35.7028H35.7511H35.7994H35.8478H35.8962H35.9447H35.9933H36.0419H36.0906H36.1394H36.1882H36.237H36.286H36.335H36.384H36.4331H36.4823H36.5315H36.5808H36.6301H36.6795H36.7289H36.7784H36.8279H36.8775H36.9271H36.9768H37.0265H37.0763H37.1261H37.176H37.2259H37.2758H37.3258H37.3759H37.426H37.4761H37.5262H37.5764H37.6267H37.677H37.7273H37.7776H37.828H37.8784H37.9289H37.9794H38.0299H38.0805H38.1311H38.1817H38.2323H38.283H38.3337H38.3844H38.4352H38.486H38.5368H38.5876H38.6385H38.6894H38.7403H38.7912H38.8421H38.8931H38.9441H38.9951H39.0461H39.0971H39.1482H39.1993H39.2504H39.3015H39.3526H39.4037H39.4548H39.506H39.5571H39.6083H39.6595H39.7107H39.7619H39.8131H39.8643H39.9155H39.9667H40.0179H40.0692H40.1204H40.1716H40.2228H40.2741H40.3253H40.3765H40.4277H40.479H40.5302H40.5814H40.6326H40.6838H40.735H40.7862H40.8374H40.8885H40.9397H40.9908H41.042H41.0931H41.1442H41.1953H41.2464H41.2975H41.3485H41.3996H41.4506H41.5016H41.5526H41.6036H41.6545H41.7054H41.7563H41.8072H41.8581H41.9089H41.9597H42.0105H42.0613H42.112H42.1627H42.2134H42.264H42.3146H42.3652H42.4158H42.4663H42.5168H42.5672H42.6177H42.6681H42.7184H42.7687H42.819H42.8692H42.9194H42.9696H43.0197H43.0698H43.1199H43.1698H43.2198H43.2697H43.3196H43.3694H43.4192H43.4689H43.5186H43.5682H43.6178H43.6673H43.7168H43.7662H43.8156H43.8649H43.9142H43.9634H44.0126H44.0617H44.1107H44.1597H44.2087H44.2575H44.3063H44.3551H44.4038H44.4524H44.501H44.5495H44.5979H44.6463H44.6946H44.7429H44.7911H44.8392H44.8872H44.9352H44.9831H45.0309H45.0787H45.1264H45.174H45.2215H45.269H45.3164H45.3637H45.4109H45.4581H45.5052H45.5522H45.5991H45.6459H45.6927H45.7394H45.786H45.8325H45.8789H45.9253H45.9715H46.0177H46.0638H46.1098H46.1557H46.2015H46.2473H46.2929H46.3384H46.3839H46.4293H46.4745H46.5197H46.5648H46.6098H46.6546H46.6994H46.7441H46.7887H46.8332H46.8776H46.9219H46.9661H47.0102H47.0541H47.098H47.1418H47.1855H47.229H47.2725H47.3158H47.359H47.4022H47.4452H47.4881H47.5309H47.5736H47.6161H47.6586H47.7009H47.7431H47.7853H47.8272H47.8691H47.9109H47.9525H47.994H48.0354H48.0767H48.1178H48.1589H48.1998H48.2405H48.2812H48.3217H48.3621H48.4024H48.4426H48.4826H48.5225H48.5622H48.6018H48.6413H48.6807H48.7199H48.759H48.798H48.8368H48.8755H48.914H48.9525C49.0272 81.9438 49.0997 81.9687 49.161 82.0177L50.6964 83.246C51.1732 83.6274 51.7655 83.8352 52.3761 83.8352H57.0835C57.694 83.8352 58.2864 83.6274 58.7632 83.246L60.2985 82.0177C60.3584 81.9698 60.4328 81.9438 60.5094 81.9438H81.7305C82.4997 81.9438 83.4202 81.77 84.1773 81.1976C84.9879 80.5847 85.4596 79.6286 85.4596 78.4038C85.4596 78.1821 85.4581 77.421 85.4559 76.2473V76.2469C85.4433 69.7284 85.4062 50.4837 85.4596 40.2022C85.4627 39.6112 85.4303 38.5659 84.7957 37.6716C84.1017 36.6936 82.9156 36.1833 81.2576 36.1833H81.2038V33.906C81.2038 33.3763 81.032 32.5253 80.2297 32.0488C79.4292 31.5735 78.1445 31.236 76.6743 30.9703C75.3355 30.7283 73.7131 30.5252 71.895 30.3581V28.4589C71.895 27.1009 70.7941 26 69.4361 26H39.9292ZM71.895 32.7195V32.8093C71.895 33.9912 71.0611 34.9784 69.9495 35.2145V39.1048C71.0611 39.341 71.895 40.3281 71.895 41.51V45.8604C71.895 47.0424 71.0611 48.0295 69.9495 48.2656V52.3451C71.0611 52.5812 71.895 53.5684 71.895 54.7503V59.1007C71.895 60.4587 70.7941 61.5596 69.4361 61.5596H39.9292C38.5712 61.5596 37.4703 60.4587 37.4703 59.1007V54.7503C37.4703 53.6023 38.2571 52.638 39.3208 52.3673V48.2435C38.2571 47.9728 37.4703 47.0085 37.4703 45.8604V41.51C37.4703 40.362 38.2571 39.3977 39.3208 39.127V35.1924C38.2685 34.9246 37.4873 33.9781 37.4705 32.8464C35.9549 32.9983 34.6112 33.1717 33.4874 33.3649C32.1828 33.5892 31.2536 33.8279 30.7016 34.0557V37.3589V75.1178C30.7016 75.2361 30.7572 75.3466 30.8789 75.4281C31.005 75.5126 31.1619 75.5358 31.3058 75.4847C34.291 74.4252 38.4023 73.4158 42.6947 73.2882C46.3085 73.1808 50.1258 73.6971 53.5067 75.4056V69.4194C53.5067 68.7701 54.0331 68.2437 54.6824 68.2437C55.3316 68.2437 55.858 68.7701 55.858 69.4194V75.432C58.8787 74.0199 62.5926 73.6379 66.1826 73.7536C70.5879 73.8956 75.023 74.7954 78.2457 75.7067C78.5279 75.7865 78.7623 75.5691 78.7628 75.3501L78.8526 37.3589L78.8526 37.3561L78.8526 33.9781C78.3914 33.7617 77.5399 33.5161 76.2562 33.2841C75.0568 33.0673 73.5816 32.8787 71.895 32.7195ZM67.5983 35.2682H41.6721V39.0511H67.5983V35.2682ZM67.5983 48.3193H41.6721V52.2914H67.5983V48.3193ZM43.3336 30.7286C43.3336 30.2063 43.757 29.7829 44.2793 29.7829H47.2111C47.7334 29.7829 48.1568 30.2063 48.1568 30.7286C48.1568 31.2509 47.7334 31.6743 47.2111 31.6743H44.2793C43.757 31.6743 43.3336 31.2509 43.3336 30.7286ZM49.1972 30.7286C49.1972 30.2063 49.6206 29.7829 50.1429 29.7829H50.4266C50.9489 29.7829 51.3723 30.2063 51.3723 30.7286C51.3723 31.2509 50.9489 31.6743 50.4266 31.6743H50.1429C49.6206 31.6743 49.1972 31.2509 49.1972 30.7286ZM44.2793 42.8341C43.757 42.8341 43.3336 43.2575 43.3336 43.7798C43.3336 44.3021 43.757 44.7256 44.2793 44.7256H47.2111C47.7334 44.7256 48.1568 44.3021 48.1568 43.7798C48.1568 43.2575 47.7334 42.8341 47.2111 42.8341H44.2793ZM50.1429 42.8341C49.6206 42.8341 49.1972 43.2575 49.1972 43.7798C49.1972 44.3021 49.6206 44.7256 50.1429 44.7256H50.4266C50.9489 44.7256 51.3723 44.3021 51.3723 43.7798C51.3723 43.2575 50.9489 42.8341 50.4266 42.8341H50.1429ZM43.3336 57.2093C43.3336 56.687 43.757 56.2636 44.2793 56.2636H47.2111C47.7334 56.2636 48.1568 56.687 48.1568 57.2093C48.1568 57.7316 47.7334 58.1551 47.2111 58.1551H44.2793C43.757 58.1551 43.3336 57.7316 43.3336 57.2093ZM49.1972 57.2093C49.1972 56.687 49.6206 56.2636 50.1429 56.2636H50.4266C50.9489 56.2636 51.3723 56.687 51.3723 57.2093C51.3723 57.7316 50.9489 58.1551 50.4266 58.1551H50.1429C49.6206 58.1551 49.1972 57.7316 49.1972 57.2093ZM81.1141 75.3556L81.201 38.5345H81.2576C82.4369 38.5345 82.7669 38.8754 82.8782 39.0323C83.049 39.2729 83.1112 39.6462 83.1084 40.19C83.0549 50.4863 83.0921 69.7691 83.1047 76.2674C83.1069 77.4315 83.1084 78.1853 83.1084 78.4038C83.1084 78.9759 82.918 79.202 82.7593 79.3221C82.5471 79.4825 82.1907 79.5925 81.7305 79.5925H60.5094C59.8989 79.5925 59.3065 79.8003 58.8297 80.1817L57.2943 81.41C57.2345 81.4579 57.1601 81.484 57.0835 81.484H52.3761C52.2994 81.484 52.2251 81.4579 52.1652 81.41L50.6298 80.1817C50.1545 79.8015 49.5649 79.5925 48.9525 79.5925H48.914H48.8755H48.8368H48.798H48.759H48.7199H48.6807H48.6413H48.6018H48.5622H48.5225H48.4826H48.4426H48.4024H48.3621H48.3217H48.2812H48.2405H48.1998H48.1589H48.1178H48.0767H48.0354H47.994H47.9525H47.9109H47.8691H47.8272H47.7853H47.7431H47.7009H47.6586H47.6161H47.5736H47.5309H47.4881H47.4452H47.4022H47.359H47.3158H47.2725H47.229H47.1855H47.1418H47.098H47.0541H47.0102H46.9661H46.9219H46.8776H46.8332H46.7887H46.7441H46.6994H46.6546H46.6098H46.5648H46.5197H46.4745H46.4293H46.3839H46.3384H46.2929H46.2473H46.2015H46.1557H46.1098H46.0638H46.0177H45.9715H45.9253H45.8789H45.8325H45.786H45.7394H45.6927H45.6459H45.5991H45.5522H45.5052H45.4581H45.4109H45.3637H45.3164H45.269H45.2215H45.174H45.1264H45.0787H45.0309H44.9831H44.9352H44.8872H44.8392H44.7911H44.7429H44.6946H44.6463H44.5979H44.5495H44.501H44.4524H44.4038H44.3551H44.3063H44.2575H44.2087H44.1597H44.1107H44.0617H44.0126H43.9634H43.9142H43.8649H43.8156H43.7662H43.7168H43.6673H43.6178H43.5682H43.5186H43.4689H43.4192H43.3694H43.3196H43.2697H43.2198H43.1698H43.1199H43.0698H43.0197H42.9696H42.9194H42.8692H42.819H42.7687H42.7184H42.6681H42.6177H42.5672H42.5168H42.4663H42.4158H42.3652H42.3146H42.264H42.2134H42.1627H42.112H42.0613H42.0105H41.9597H41.9089H41.8581H41.8072H41.7563H41.7054H41.6545H41.6036H41.5526H41.5016H41.4506H41.3996H41.3485H41.2975H41.2464H41.1953H41.1442H41.0931H41.042H40.9908H40.9397H40.8885H40.8374H40.7862H40.735H40.6838H40.6326H40.5814H40.5302H40.479H40.4277H40.3765H40.3253H40.2741H40.2228H40.1716H40.1204H40.0692H40.0179H39.9667H39.9155H39.8643H39.8131H39.7619H39.7107H39.6595H39.6083H39.5571H39.506H39.4548H39.4037H39.3526H39.3015H39.2504H39.1993H39.1482H39.0971H39.0461H38.9951H38.9441H38.8931H38.8421H38.7912H38.7403H38.6894H38.6385H38.5876H38.5368H38.486H38.4352H38.3844H38.3337H38.283H38.2323H38.1817H38.1311H38.0805H38.0299H37.9794H37.9289H37.8784H37.828H37.7776H37.7273H37.677H37.6267H37.5764H37.5262H37.4761H37.426H37.3759H37.3258H37.2758H37.2259H37.176H37.1261H37.0763H37.0265H36.9768H36.9271H36.8775H36.8279H36.7784H36.7289H36.6795H36.6301H36.5808H36.5315H36.4823H36.4331H36.384H36.335H36.286H36.237H36.1882H36.1394H36.0906H36.0419H35.9933H35.9447H35.8962H35.8478H35.7994H35.7511H35.7028H35.6546H35.6065H35.5585H35.5105H35.4626H35.4148H35.367H35.3193H35.2717H35.2242H35.1767H35.1293H35.082H35.0348H34.9876H34.9405H34.8935H34.8466H34.7998H34.753H34.7063H34.6597H34.6132H34.5668H34.5204H34.4742H34.428H34.3819H34.3359H34.29H34.2442H34.1985H34.1528H34.1073H34.0618H34.0165H33.9712H33.926H33.8809H33.836H33.7911H33.7463H33.7016H33.657H33.6125H33.5681H33.5238H33.4796H33.4356H33.3916H33.3477H33.3039H33.2603H33.2167H33.1733H33.1299H33.0867H33.0436H33.0005H32.9576H32.9148H32.8722H32.8296H32.7872H32.7448H32.7026H32.6605H32.6185H32.5766H32.5349H32.4932H32.4517H32.4103H32.3691H32.3279H32.2869H32.246H32.2052H32.1645H32.124H32.0836H32.0433H32.0032H31.9632H31.9233H31.8835H31.8439H31.8044H31.7651H31.7258H31.6867H31.6478H31.609H31.5703H31.5317H31.4933H31.455H31.4169H31.3789H31.341H31.3033H31.2658H31.2283H31.1911H31.1539H31.1169H31.0801H31.0434H31.0068H30.9704H30.9342H30.8981H30.8621H30.8263H30.7906H30.7551H30.7198H30.6846H30.6496H30.6147H30.58H30.5454H30.511H30.4767H30.4426H30.4087H30.3749H30.3413H30.3079H30.2746H30.2415H30.2085H30.1757H30.1431H30.1106H30.0784H30.0462H30.0143H29.9825H29.9509H29.9194H29.8882H29.8571H29.8262H29.7954H29.7648H29.7344H29.7042H29.6742H29.6443H29.6146H29.5851H29.5558H29.5266H29.4977H29.4689H29.4403H29.4119H29.3837H29.3556H29.3278H29.3001H29.2726H29.2453H29.2182H29.1913H29.1646H29.138H29.1117H29.0855H29.0596H29.0338H29.0083H28.9829H28.9577H28.9327H28.908H28.8834H28.859H28.8348H28.8109H28.7871H28.7635H28.7401H28.717H28.694H28.6713H28.6487H28.6264H28.6042H28.5823H28.5606H28.5391H28.5178H28.4967H28.4758H28.4552H28.4347H28.4145H28.3945H28.3747H28.3551H28.3358H28.3166H28.2977H28.279H28.2605H28.2422H28.2242H28.2064H28.1888H28.1714H28.1542H28.1373H28.1206H28.1042H28.0879H28.0719H28.0561H28.0406H28.0252H28.0102H27.9953H27.9807H27.9663H27.9521H27.9382H27.9245H27.9111H27.8979H27.8849H27.8722H27.8597H27.8474H27.8354H27.8236C27.1473 79.5925 26.8302 79.351 26.6555 79.1374C26.4489 78.8847 26.3636 78.5653 26.3513 78.3762C26.3762 69.34 26.3616 52.6654 26.3545 44.5315V44.5311L26.3545 44.5294C26.3526 42.408 26.3512 40.8679 26.3512 40.1961C26.3512 39.6741 26.4706 39.3875 26.5841 39.2228C26.6989 39.0561 26.8755 38.916 27.1541 38.803C27.4954 38.6647 27.9029 38.5973 28.3504 38.5647V75.1178C28.3504 77.0939 30.3555 78.317 32.0922 77.7005C34.9058 76.7019 38.772 75.7571 42.7645 75.6384C46.7638 75.5196 50.7844 76.2316 54.0218 78.4306C54.4258 78.705 54.9574 78.7011 55.3573 78.4207C57.9876 76.5764 61.9025 75.9681 66.1068 76.1036C70.2705 76.2379 74.5106 77.0939 77.6059 77.9692C79.3146 78.4524 81.1097 77.2056 81.1141 75.3556Z" fill="#585858"/>
</svg>
