<svg width="110" height="110" viewBox="0 0 110 110" fill="none" xmlns="http://www.w3.org/2000/svg">
<rect width="110" height="110" rx="18" fill="#DBDBDB"/>
<path fill-rule="evenodd" clip-rule="evenodd" d="M83.3426 32.2948C83.3426 31.8084 82.9483 31.4141 82.4619 31.4141C81.9755 31.4141 81.5812 31.8084 81.5812 32.2948V35.4607C81.5812 35.9471 81.9755 36.3414 82.4619 36.3414C82.9483 36.3414 83.3426 35.9471 83.3426 35.4607V32.2948ZM83.3425 40.4077C83.3425 39.9213 82.9482 39.527 82.4618 39.527C81.9754 39.527 81.5811 39.9213 81.5811 40.4077V43.5737C81.5811 44.0601 81.9754 44.4544 82.4618 44.4544C82.9482 44.4544 83.3425 44.0601 83.3425 43.5737V40.4077ZM84.1534 38.0333C84.1534 37.5469 84.5477 37.1526 85.0341 37.1526H88.2001C88.6865 37.1526 89.0808 37.5469 89.0808 38.0333C89.0808 38.5197 88.6865 38.914 88.2001 38.914H85.0341C84.5477 38.914 84.1534 38.5197 84.1534 38.0333ZM76.7238 37.1526C76.2374 37.1526 75.8431 37.5469 75.8431 38.0333C75.8431 38.5197 76.2374 38.914 76.7238 38.914H79.8898C80.3762 38.914 80.7705 38.5197 80.7705 38.0333C80.7705 37.5469 80.3762 37.1526 79.8898 37.1526H76.7238ZM72.1986 59.971C72.0857 59.8991 71.9564 59.8571 71.8228 59.8488C71.6893 59.8405 71.5558 59.8662 71.4348 59.9235C70.6873 60.2779 69.8601 60.4308 69.0353 60.3672C68.2105 60.3036 67.4166 60.0256 66.7322 59.5608C66.0479 59.0959 65.4968 58.4604 65.1337 57.7171C64.7705 56.9738 64.6078 56.1485 64.6617 55.323C64.712 54.5497 64.9507 53.8004 65.3571 53.1405C65.7635 52.4807 66.3253 51.9303 66.9933 51.5375C67.6613 51.1446 68.4153 50.9212 69.1895 50.8868C69.9637 50.8523 70.7346 51.0079 71.4348 51.3398C71.5554 51.3973 71.6887 51.4233 71.822 51.4154C71.9554 51.4074 72.0846 51.3659 72.1976 51.2946C72.3106 51.2233 72.4037 51.1245 72.4682 51.0075C72.5327 50.8906 72.5666 50.7591 72.5666 50.6255V42.1764C72.5666 41.5467 72.3165 40.9427 71.8712 40.4974C71.4259 40.0521 70.8219 39.802 70.1922 39.802H62.0795C62.2974 38.951 62.3359 38.064 62.1925 37.1974C62.0492 36.3308 61.727 35.5035 61.2466 34.768C60.7662 34.0326 60.138 33.4052 59.4021 32.9257C58.6661 32.4462 57.8384 32.1251 56.9716 31.9828C56.1047 31.8404 55.2178 31.88 54.3671 32.099C53.5164 32.318 52.7206 32.7115 52.0303 33.2547C51.3399 33.7979 50.7702 34.4787 50.3572 35.254C49.9442 36.0293 49.697 36.882 49.6314 37.758C49.5819 38.4445 49.6427 39.1346 49.8115 39.802H41.6987C41.069 39.802 40.465 40.0521 40.0197 40.4974C39.5745 40.9427 39.3243 41.5467 39.3243 42.1764V49.4977C38.4733 49.2797 37.5864 49.2412 36.7197 49.3846C35.8531 49.528 35.0258 49.8501 34.2904 50.3305C33.555 50.8109 32.9276 51.4391 32.448 52.1751C31.9685 52.9111 31.6474 53.7388 31.5051 54.6056C31.3627 55.4724 31.4023 56.3593 31.6213 57.21C31.8403 58.0607 32.2339 58.8565 32.777 59.5468C33.3202 60.2372 34.001 60.807 34.7763 61.22C35.5516 61.633 36.4043 61.8801 37.2803 61.9457C37.9669 61.9963 38.6571 61.9355 39.3243 61.7657V69.0869C39.3243 69.7166 39.5745 70.3206 40.0197 70.7659C40.465 71.2112 41.069 71.4614 41.6987 71.4614H70.1922C70.8219 71.4614 71.4259 71.2112 71.8712 70.7659C72.3165 70.3206 72.5666 69.7166 72.5666 69.0869V60.6398C72.5667 60.5063 72.5329 60.375 72.4686 60.2581C72.4042 60.1411 72.3114 60.0424 72.1986 59.971ZM70.9837 69.0869C70.9837 69.2968 70.9003 69.4981 70.7519 69.6466C70.6034 69.795 70.4021 69.8784 70.1922 69.8784H41.6987C41.4888 69.8784 41.2875 69.795 41.1391 69.6466C40.9906 69.4981 40.9073 69.2968 40.9073 69.0869V60.6398C40.9073 60.5063 40.8735 60.375 40.8092 60.2581C40.7448 60.1411 40.652 60.0424 40.5392 59.971C40.4265 59.8995 40.2976 59.8576 40.1644 59.8493C40.0312 59.841 39.8981 59.8665 39.7774 59.9235C39.0771 60.2559 38.306 60.4118 37.5315 60.3775C36.7571 60.3433 36.0028 60.12 35.3345 59.7271C34.6662 59.3342 34.1042 58.7837 33.6977 58.1236C33.2912 57.4635 33.0524 56.7139 33.0023 55.9403C32.9482 55.1146 33.1109 54.289 33.4741 53.5454C33.8374 52.8018 34.3887 52.1661 35.0733 51.7012C35.7579 51.2363 36.5522 50.9584 37.3773 50.895C38.2024 50.8316 39.0298 50.985 39.7774 51.3398C39.898 51.3968 40.0309 51.4225 40.164 51.4143C40.2971 51.4062 40.426 51.3646 40.5387 51.2933C40.6514 51.2221 40.7443 51.1235 40.8087 51.0067C40.8732 50.89 40.9071 50.7589 40.9073 50.6255V42.1764C40.9073 41.9665 40.9906 41.7652 41.1391 41.6168C41.2875 41.4683 41.4888 41.3849 41.6987 41.3849H50.9373C51.0709 41.3851 51.2022 41.3514 51.3192 41.2871C51.4363 41.2228 51.5351 41.13 51.6066 41.0172C51.6781 40.9045 51.7199 40.7755 51.7281 40.6422C51.7363 40.509 51.7107 40.3758 51.6536 40.2551C51.3213 39.5547 51.1654 38.7837 51.1996 38.0092C51.2339 37.2347 51.4572 36.4804 51.8501 35.8122C52.243 35.1439 52.7935 34.5819 53.4535 34.1754C54.1136 33.7689 54.8632 33.5301 55.6368 33.48C56.4626 33.4259 57.2882 33.5886 58.0317 33.9518C58.7753 34.3151 59.411 34.8664 59.8759 35.551C60.3408 36.2356 60.6187 37.0299 60.6821 37.855C60.7455 38.6801 60.5922 39.5075 60.2373 40.2551C60.1802 40.3758 60.1546 40.509 60.1628 40.6422C60.1711 40.7755 60.2129 40.9045 60.2843 41.0172C60.3558 41.13 60.4547 41.2228 60.5717 41.2871C60.6887 41.3514 60.8201 41.3851 60.9536 41.3849H70.1922C70.4021 41.3849 70.6034 41.4683 70.7519 41.6168C70.9003 41.7652 70.9837 41.9665 70.9837 42.1764V49.4977C70.3167 49.3269 69.6266 49.2641 68.9397 49.3117C68.067 49.3817 67.2183 49.632 66.4472 50.0467C65.6761 50.4615 64.9995 51.0316 64.4599 51.7211C63.9203 52.4106 63.5296 53.2045 63.3125 54.0526C63.0953 54.9008 63.0564 55.7848 63.1982 56.6487C63.34 57.5127 63.6594 58.3378 64.1363 59.0721C64.6132 59.8063 65.2371 60.4337 65.9688 60.9146C66.7004 61.3954 67.5238 61.7193 68.387 61.8658C69.2502 62.0123 70.1343 61.9782 70.9837 61.7657V69.0869ZM44.1274 45.1564C44.1274 44.7422 44.4632 44.4064 44.8774 44.4064H50.4178C50.832 44.4064 51.1678 44.7422 51.1678 45.1564C51.1678 45.5706 50.832 45.9064 50.4178 45.9064H45.6274V50.6968C45.6274 51.111 45.2916 51.4468 44.8774 51.4468C44.4632 51.4468 44.1274 51.111 44.1274 50.6968V45.1564ZM55.9577 56.9874C56.3719 56.9874 56.7077 56.6516 56.7077 56.2374V50.697C56.7077 50.2828 56.3719 49.947 55.9577 49.947C55.5435 49.947 55.2077 50.2828 55.2077 50.697V55.4874H50.4173C50.0031 55.4874 49.6673 55.8232 49.6673 56.2374C49.6673 56.6516 50.0031 56.9874 50.4173 56.9874H55.9577ZM27.6732 64.8545C28.1596 64.8545 28.5539 65.2488 28.5539 65.7352V68.9012C28.5539 69.3876 28.1596 69.7819 27.6732 69.7819C27.1868 69.7819 26.7925 69.3876 26.7925 68.9012V65.7352C26.7925 65.2488 27.1868 64.8545 27.6732 64.8545ZM27.6733 72.9672C28.1597 72.9672 28.554 73.3615 28.554 73.8479V77.0139C28.554 77.5003 28.1597 77.8946 27.6733 77.8946C27.1869 77.8946 26.7926 77.5003 26.7926 77.0139V73.8479C26.7926 73.3615 27.1869 72.9672 27.6733 72.9672ZM30.245 70.5928C29.7586 70.5928 29.3643 70.9871 29.3643 71.4735C29.3643 71.9599 29.7586 72.3542 30.245 72.3542H33.4109C33.8973 72.3542 34.2916 71.9599 34.2916 71.4735C34.2916 70.9871 33.8973 70.5928 33.4109 70.5928H30.245ZM21.0537 71.4735C21.0537 70.9871 21.448 70.5928 21.9344 70.5928H25.1003C25.5867 70.5928 25.981 70.9871 25.981 71.4735C25.981 71.9599 25.5867 72.3542 25.1003 72.3542H21.9344C21.448 72.3542 21.0537 71.9599 21.0537 71.4735Z" fill="#585858"/>
<path d="M71.8228 59.8488L71.8539 59.3498H71.8539L71.8228 59.8488ZM72.1986 59.971L71.9302 60.3928L71.9311 60.3934L72.1986 59.971ZM71.4348 59.9235L71.2207 59.4716L71.2206 59.4717L71.4348 59.9235ZM66.7322 59.5608L67.0132 59.1472V59.1472L66.7322 59.5608ZM64.6617 55.323L65.1606 55.3556L65.1606 55.3554L64.6617 55.323ZM69.1895 50.8868L69.1673 50.3873L69.1895 50.8868ZM71.4348 51.3398L71.6498 50.8884L71.649 50.888L71.4348 51.3398ZM72.1976 51.2946L72.4644 51.7174L72.4644 51.7174L72.1976 51.2946ZM72.4682 51.0075L72.906 51.249V51.249L72.4682 51.0075ZM72.5666 50.6255L73.0666 50.6257V50.6255H72.5666ZM71.8712 40.4974L72.2247 40.1439L71.8712 40.4974ZM62.0795 39.802L61.5951 39.6779C61.5568 39.8276 61.5898 39.9865 61.6845 40.1085C61.7792 40.2306 61.925 40.302 62.0795 40.302V39.802ZM61.2466 34.768L61.6652 34.4946V34.4946L61.2466 34.768ZM59.4021 32.9257L59.1291 33.3447L59.4021 32.9257ZM56.9716 31.9828L57.0526 31.4894L56.9716 31.9828ZM54.3671 32.099L54.4918 32.5832H54.4918L54.3671 32.099ZM52.0303 33.2547L52.3395 33.6477L52.0303 33.2547ZM49.6314 37.758L49.1328 37.7206L49.1327 37.722L49.6314 37.758ZM49.8115 39.802V40.302C49.9657 40.302 50.1113 40.2308 50.206 40.1091C50.3007 39.9874 50.334 39.8289 50.2962 39.6794L49.8115 39.802ZM40.0197 40.4974L40.3733 40.851V40.851L40.0197 40.4974ZM39.3243 49.4977L39.2002 49.982C39.3499 50.0203 39.5088 49.9874 39.6309 49.8926C39.7529 49.7979 39.8243 49.6521 39.8243 49.4977H39.3243ZM36.7197 49.3846L36.6381 48.8913H36.6381L36.7197 49.3846ZM34.2904 50.3305L34.5638 50.7491H34.5638L34.2904 50.3305ZM32.448 52.1751L32.0291 51.9021L32.448 52.1751ZM31.5051 54.6056L31.9985 54.6866L31.5051 54.6056ZM31.6213 57.21L31.1371 57.3346L31.6213 57.21ZM32.777 59.5468L33.17 59.2377L32.777 59.5468ZM37.2803 61.9457L37.2429 62.4443L37.2436 62.4444L37.2803 61.9457ZM39.3243 61.7657H39.8243C39.8243 61.6113 39.753 61.4656 39.6312 61.3709C39.5093 61.2762 39.3505 61.2431 39.201 61.2811L39.3243 61.7657ZM40.0197 70.7659L40.3733 70.4123L40.0197 70.7659ZM72.5666 60.6398L72.0666 60.6397V60.6398H72.5666ZM72.4686 60.2581L72.9066 60.017L72.9066 60.017L72.4686 60.2581ZM70.7519 69.6466L70.3983 69.293L70.3983 69.293L70.7519 69.6466ZM41.1391 69.6466L40.7855 70.0001L40.7855 70.0001L41.1391 69.6466ZM40.9073 60.6398L40.4073 60.6397V60.6398H40.9073ZM40.8092 60.2581L41.2473 60.017L41.2472 60.017L40.8092 60.2581ZM40.5392 59.971L40.2713 60.3932L40.2717 60.3934L40.5392 59.971ZM39.7774 59.9235L39.564 59.4713L39.563 59.4718L39.7774 59.9235ZM37.5315 60.3775L37.5536 59.878L37.5315 60.3775ZM33.6977 58.1236L33.272 58.3858L33.6977 58.1236ZM33.0023 55.9403L33.5013 55.908L33.5012 55.9077L33.0023 55.9403ZM33.4741 53.5454L33.9234 53.7649L33.4741 53.5454ZM37.3773 50.895L37.339 50.3965L37.3773 50.895ZM39.7774 51.3398L39.563 51.7915L39.5637 51.7918L39.7774 51.3398ZM40.164 51.4143L40.1945 51.9134H40.1945L40.164 51.4143ZM40.5387 51.2933L40.2715 50.8707L40.2715 50.8707L40.5387 51.2933ZM40.8087 51.0067L41.2465 51.2483L41.2465 51.2483L40.8087 51.0067ZM40.9073 50.6255L41.4073 50.6263V50.6255H40.9073ZM41.1391 41.6168L40.7855 41.2632L40.7855 41.2632L41.1391 41.6168ZM50.9373 41.3849L50.9378 40.8849H50.9373V41.3849ZM51.6066 41.0172L52.0289 41.285L52.0289 41.285L51.6066 41.0172ZM51.7281 40.6422L52.2272 40.673V40.673L51.7281 40.6422ZM51.6536 40.2551L52.1056 40.0413L52.1053 40.0407L51.6536 40.2551ZM51.1996 38.0092L50.7001 37.9871L51.1996 38.0092ZM51.8501 35.8122L51.419 35.5587V35.5587L51.8501 35.8122ZM53.4535 34.1754L53.7158 34.6011V34.6011L53.4535 34.1754ZM55.6368 33.48L55.6691 33.9789L55.6695 33.9789L55.6368 33.48ZM58.0317 33.9518L57.8122 34.4011H57.8122L58.0317 33.9518ZM59.8759 35.551L59.4623 35.8319V35.8319L59.8759 35.551ZM60.2373 40.2551L59.7856 40.0407L59.7853 40.0413L60.2373 40.2551ZM60.1628 40.6422L60.6619 40.6114V40.6114L60.1628 40.6422ZM60.2843 41.0172L60.7066 40.7495L60.7066 40.7495L60.2843 41.0172ZM60.9536 41.3849V40.8849H60.9531L60.9536 41.3849ZM70.7519 41.6168L70.3983 41.9703L70.3983 41.9703L70.7519 41.6168ZM70.9837 49.4977L70.8597 49.982C71.0093 50.0203 71.1682 49.9873 71.2903 49.8926C71.4123 49.7979 71.4837 49.6521 71.4837 49.4977H70.9837ZM68.9397 49.3117L68.9051 48.8128L68.8996 48.8133L68.9397 49.3117ZM66.4472 50.0467L66.684 50.4871L66.4472 50.0467ZM63.3125 54.0526L62.8281 53.9286L63.3125 54.0526ZM63.1982 56.6487L63.6916 56.5677L63.1982 56.6487ZM64.1363 59.0721L63.717 59.3444H63.717L64.1363 59.0721ZM68.387 61.8658L68.3033 62.3588L68.387 61.8658ZM70.9837 61.7657H71.4837C71.4837 61.6117 71.4127 61.4663 71.2913 61.3715C71.1699 61.2768 71.0117 61.2432 70.8623 61.2806L70.9837 61.7657ZM45.6274 45.9064V45.4064C45.3513 45.4064 45.1274 45.6302 45.1274 45.9064H45.6274ZM55.2077 55.4874V55.9874C55.4838 55.9874 55.7077 55.7636 55.7077 55.4874H55.2077ZM82.4619 31.9141C82.6721 31.9141 82.8426 32.0845 82.8426 32.2948H83.8426C83.8426 31.5322 83.2244 30.9141 82.4619 30.9141V31.9141ZM82.0812 32.2948C82.0812 32.0845 82.2516 31.9141 82.4619 31.9141V30.9141C81.6993 30.9141 81.0812 31.5322 81.0812 32.2948H82.0812ZM82.0812 35.4607V32.2948H81.0812V35.4607H82.0812ZM82.4619 35.8414C82.2516 35.8414 82.0812 35.671 82.0812 35.4607H81.0812C81.0812 36.2232 81.6993 36.8414 82.4619 36.8414V35.8414ZM82.8426 35.4607C82.8426 35.671 82.6721 35.8414 82.4619 35.8414V36.8414C83.2244 36.8414 83.8426 36.2232 83.8426 35.4607H82.8426ZM82.8426 32.2948V35.4607H83.8426V32.2948H82.8426ZM82.4618 40.027C82.672 40.027 82.8425 40.1975 82.8425 40.4077H83.8425C83.8425 39.6452 83.2243 39.027 82.4618 39.027V40.027ZM82.0811 40.4077C82.0811 40.1975 82.2515 40.027 82.4618 40.027V39.027C81.6992 39.027 81.0811 39.6452 81.0811 40.4077H82.0811ZM82.0811 43.5737V40.4077H81.0811V43.5737H82.0811ZM82.4618 43.9544C82.2515 43.9544 82.0811 43.7839 82.0811 43.5737H81.0811C81.0811 44.3362 81.6992 44.9544 82.4618 44.9544V43.9544ZM82.8425 43.5737C82.8425 43.7839 82.672 43.9544 82.4618 43.9544V44.9544C83.2243 44.9544 83.8425 44.3362 83.8425 43.5737H82.8425ZM82.8425 40.4077V43.5737H83.8425V40.4077H82.8425ZM85.0341 36.6526C84.2716 36.6526 83.6534 37.2707 83.6534 38.0333H84.6534C84.6534 37.823 84.8239 37.6526 85.0341 37.6526V36.6526ZM88.2001 36.6526H85.0341V37.6526H88.2001V36.6526ZM89.5808 38.0333C89.5808 37.2707 88.9626 36.6526 88.2001 36.6526V37.6526C88.4103 37.6526 88.5808 37.823 88.5808 38.0333H89.5808ZM88.2001 39.414C88.9626 39.414 89.5808 38.7958 89.5808 38.0333H88.5808C88.5808 38.2435 88.4103 38.414 88.2001 38.414V39.414ZM85.0341 39.414H88.2001V38.414H85.0341V39.414ZM83.6534 38.0333C83.6534 38.7958 84.2716 39.414 85.0341 39.414V38.414C84.8239 38.414 84.6534 38.2435 84.6534 38.0333H83.6534ZM76.3431 38.0333C76.3431 37.823 76.5136 37.6526 76.7238 37.6526V36.6526C75.9613 36.6526 75.3431 37.2707 75.3431 38.0333H76.3431ZM76.7238 38.414C76.5136 38.414 76.3431 38.2435 76.3431 38.0333H75.3431C75.3431 38.7958 75.9613 39.414 76.7238 39.414V38.414ZM79.8898 38.414H76.7238V39.414H79.8898V38.414ZM80.2705 38.0333C80.2705 38.2435 80.1 38.414 79.8898 38.414V39.414C80.6523 39.414 81.2705 38.7958 81.2705 38.0333H80.2705ZM79.8898 37.6526C80.1 37.6526 80.2705 37.823 80.2705 38.0333H81.2705C81.2705 37.2707 80.6523 36.6526 79.8898 36.6526V37.6526ZM76.7238 37.6526H79.8898V36.6526H76.7238V37.6526ZM71.7918 60.3478C71.841 60.3509 71.8886 60.3664 71.9302 60.3928L72.467 59.5491C72.2828 59.4319 72.0718 59.3633 71.8539 59.3498L71.7918 60.3478ZM71.6489 60.3753C71.6935 60.3542 71.7426 60.3448 71.7918 60.3478L71.8539 59.3498C71.6359 59.3362 71.4181 59.3781 71.2207 59.4716L71.6489 60.3753ZM68.9969 60.8657C69.9085 60.9361 70.8228 60.767 71.649 60.3753L71.2206 59.4717C70.5518 59.7888 69.8117 59.9256 69.0738 59.8687L68.9969 60.8657ZM66.4513 59.9744C67.2077 60.4882 68.0852 60.7954 68.9969 60.8657L69.0738 59.8687C68.3358 59.8118 67.6255 59.5631 67.0132 59.1472L66.4513 59.9744ZM64.6844 57.9366C65.0858 58.7582 65.6949 59.4606 66.4513 59.9744L67.0132 59.1472C66.4009 58.7313 65.9078 58.1627 65.5829 57.4976L64.6844 57.9366ZM64.1628 55.2904C64.1032 56.2029 64.283 57.115 64.6844 57.9366L65.5829 57.4976C65.258 56.8326 65.1124 56.0942 65.1606 55.3556L64.1628 55.2904ZM64.9314 52.8783C64.4822 53.6076 64.2183 54.4358 64.1627 55.2906L65.1606 55.3554C65.2056 54.6635 65.4192 53.9931 65.7829 53.4027L64.9314 52.8783ZM66.7398 51.1065C66.0015 51.5407 65.3806 52.149 64.9314 52.8783L65.7829 53.4027C66.1465 52.8124 66.6491 52.32 67.2467 51.9685L66.7398 51.1065ZM69.1673 50.3873C68.3116 50.4254 67.4782 50.6723 66.7398 51.1065L67.2467 51.9685C67.8444 51.617 68.519 51.4171 69.2117 51.3863L69.1673 50.3873ZM71.649 50.888C70.875 50.5211 70.023 50.3492 69.1673 50.3873L69.2117 51.3863C69.9044 51.3555 70.5941 51.4946 71.2206 51.7916L71.649 50.888ZM71.7924 50.9162C71.7433 50.9191 71.6942 50.9096 71.6498 50.8884L71.2198 51.7912C71.4166 51.885 71.634 51.9274 71.8516 51.9145L71.7924 50.9162ZM71.9307 50.8718C71.8891 50.898 71.8415 50.9133 71.7924 50.9162L71.8516 51.9145C72.0693 51.9016 72.2801 51.8338 72.4644 51.7174L71.9307 50.8718ZM72.0304 50.766C72.0066 50.8091 71.9723 50.8455 71.9307 50.8718L72.4644 51.7174C72.6488 51.6011 72.8007 51.4399 72.906 51.249L72.0304 50.766ZM72.0666 50.6254C72.0666 50.6746 72.0542 50.723 72.0304 50.766L72.906 51.249C73.0113 51.0581 73.0666 50.8437 73.0666 50.6257L72.0666 50.6254ZM72.0666 42.1764V50.6255H73.0666V42.1764H72.0666ZM71.5176 40.851C71.8692 41.2025 72.0666 41.6793 72.0666 42.1764H73.0666C73.0666 41.4141 72.7638 40.6829 72.2247 40.1439L71.5176 40.851ZM70.1922 40.302C70.6893 40.302 71.1661 40.4995 71.5176 40.851L72.2247 40.1439C71.6857 39.6048 70.9545 39.302 70.1922 39.302V40.302ZM62.0795 40.302H70.1922V39.302H62.0795V40.302ZM61.6992 37.279C61.8313 38.0772 61.7958 38.8942 61.5951 39.6779L62.5638 39.926C62.799 39.0079 62.8405 38.0509 62.6858 37.1158L61.6992 37.279ZM60.828 35.0415C61.2705 35.7188 61.5672 36.4808 61.6992 37.279L62.6858 37.1158C62.5311 36.1807 62.1836 35.2881 61.6652 34.4946L60.828 35.0415ZM59.1291 33.3447C59.807 33.7863 60.3855 34.3642 60.828 35.0415L61.6652 34.4946C61.1469 33.7011 60.4691 33.0242 59.675 32.5068L59.1291 33.3447ZM56.8905 32.4761C57.6889 32.6072 58.4512 32.903 59.1291 33.3447L59.675 32.5068C58.8809 31.9894 57.9878 31.6429 57.0526 31.4894L56.8905 32.4761ZM54.4918 32.5832C55.2753 32.3815 56.0922 32.3451 56.8905 32.4761L57.0526 31.4894C56.1173 31.3358 55.1603 31.3785 54.2425 31.6148L54.4918 32.5832ZM52.3395 33.6477C52.9753 33.1474 53.7083 32.7849 54.4918 32.5832L54.2425 31.6148C53.3246 31.851 52.466 32.2757 51.7211 32.8618L52.3395 33.6477ZM50.7985 35.4891C51.1788 34.775 51.7036 34.1479 52.3395 33.6477L51.7211 32.8618C50.9762 33.4478 50.3615 34.1824 49.9159 35.0189L50.7985 35.4891ZM50.13 37.7953C50.1904 36.9885 50.4181 36.2031 50.7985 35.4891L49.9159 35.0189C49.4703 35.8554 49.2036 36.7755 49.1328 37.7206L50.13 37.7953ZM50.2962 39.6794C50.1405 39.0638 50.0844 38.4272 50.1301 37.7939L49.1327 37.722C49.0793 38.4618 49.1448 39.2055 49.3267 39.9246L50.2962 39.6794ZM41.6987 40.302H49.8115V39.302H41.6987V40.302ZM40.3733 40.851C40.7248 40.4995 41.2016 40.302 41.6987 40.302V39.302C40.9364 39.302 40.2053 39.6048 39.6662 40.1439L40.3733 40.851ZM39.8243 42.1764C39.8243 41.6793 40.0218 41.2025 40.3733 40.851L39.6662 40.1439C39.1271 40.6829 38.8243 41.4141 38.8243 42.1764H39.8243ZM39.8243 49.4977V42.1764H38.8243V49.4977H39.8243ZM36.8013 49.8779C37.5995 49.7458 38.4165 49.7813 39.2002 49.982L39.4483 49.0133C38.5302 48.7781 37.5732 48.7366 36.6381 48.8913L36.8013 49.8779ZM34.5638 50.7491C35.2412 50.3066 36.0031 50.0099 36.8013 49.8779L36.6381 48.8913C35.703 49.046 34.8104 49.3936 34.0169 49.9119L34.5638 50.7491ZM32.867 52.448C33.3086 51.7701 33.8865 51.1916 34.5638 50.7491L34.0169 49.9119C33.2234 50.4303 32.5465 51.108 32.0291 51.9021L32.867 52.448ZM31.9985 54.6866C32.1296 53.8882 32.4253 53.1259 32.867 52.448L32.0291 51.9021C31.5117 52.6962 31.1653 53.5893 31.0117 54.5246L31.9985 54.6866ZM32.1055 57.0854C31.9038 56.3018 31.8674 55.4849 31.9985 54.6866L31.0117 54.5246C30.8581 55.4598 30.9008 56.4168 31.1371 57.3346L32.1055 57.0854ZM33.17 59.2377C32.6697 58.6018 32.3072 57.8689 32.1055 57.0854L31.1371 57.3346C31.3734 58.2525 31.798 59.1112 32.3841 59.856L33.17 59.2377ZM35.0114 60.7787C34.2973 60.3983 33.6702 59.8735 33.17 59.2377L32.3841 59.856C32.9701 60.6009 33.7048 61.2157 34.5412 61.6613L35.0114 60.7787ZM37.3176 61.4471C36.5108 61.3867 35.7255 61.159 35.0114 60.7787L34.5412 61.6613C35.3777 62.1069 36.2978 62.3735 37.2429 62.4443L37.3176 61.4471ZM39.201 61.2811C38.586 61.4376 37.9498 61.4937 37.317 61.4471L37.2436 62.4444C37.9839 62.4989 38.7282 62.4333 39.4476 62.2502L39.201 61.2811ZM39.8243 69.0869V61.7657H38.8243V69.0869H39.8243ZM40.3733 70.4123C40.0218 70.0608 39.8243 69.584 39.8243 69.0869H38.8243C38.8243 69.8493 39.1271 70.5804 39.6662 71.1194L40.3733 70.4123ZM41.6987 70.9614C41.2016 70.9614 40.7248 70.7639 40.3733 70.4123L39.6662 71.1194C40.2053 71.6585 40.9364 71.9614 41.6987 71.9614V70.9614ZM70.1922 70.9614H41.6987V71.9614H70.1922V70.9614ZM71.5176 70.4123C71.1661 70.7639 70.6893 70.9614 70.1922 70.9614V71.9614C70.9545 71.9614 71.6857 71.6585 72.2247 71.1194L71.5176 70.4123ZM72.0666 69.0869C72.0666 69.584 71.8692 70.0608 71.5176 70.4123L72.2247 71.1194C72.7638 70.5804 73.0666 69.8493 73.0666 69.0869H72.0666ZM72.0666 60.6398V69.0869H73.0666V60.6398H72.0666ZM72.0305 60.4991C72.0542 60.5422 72.0667 60.5906 72.0666 60.6397L73.0666 60.6399C73.0667 60.4221 73.0116 60.2078 72.9066 60.017L72.0305 60.4991ZM71.9311 60.3934C71.9726 60.4197 72.0068 60.4561 72.0305 60.4991L72.9066 60.017C72.8016 59.8262 72.6501 59.6651 72.4661 59.5486L71.9311 60.3934ZM71.1054 70.0001C71.3476 69.7579 71.4837 69.4294 71.4837 69.0869H70.4837C70.4837 69.1642 70.453 69.2383 70.3983 69.293L71.1054 70.0001ZM70.1922 70.3784C70.5347 70.3784 70.8632 70.2423 71.1054 70.0001L70.3983 69.293C70.3436 69.3477 70.2695 69.3784 70.1922 69.3784V70.3784ZM41.6987 70.3784H70.1922V69.3784H41.6987V70.3784ZM40.7855 70.0001C41.0277 70.2423 41.3562 70.3784 41.6987 70.3784V69.3784C41.6214 69.3784 41.5473 69.3477 41.4926 69.293L40.7855 70.0001ZM40.4073 69.0869C40.4073 69.4294 40.5433 69.7579 40.7855 70.0001L41.4926 69.293C41.438 69.2383 41.4073 69.1642 41.4073 69.0869H40.4073ZM40.4073 60.6398V69.0869H41.4073V60.6398H40.4073ZM40.3711 60.4991C40.3948 60.5422 40.4073 60.5906 40.4073 60.6397L41.4073 60.6399C41.4073 60.4221 41.3522 60.2078 41.2473 60.017L40.3711 60.4991ZM40.2717 60.3934C40.3132 60.4197 40.3474 60.4561 40.3711 60.4991L41.2472 60.017C41.1423 59.8262 40.9907 59.6651 40.8067 59.5485L40.2717 60.3934ZM40.1333 60.3484C40.1824 60.3514 40.2298 60.3668 40.2713 60.3932L40.8071 59.5488C40.6232 59.4321 40.4128 59.3639 40.1955 59.3503L40.1333 60.3484ZM39.9908 60.3757C40.0352 60.3547 40.0843 60.3453 40.1333 60.3484L40.1955 59.3503C39.9782 59.3368 39.761 59.3784 39.564 59.4713L39.9908 60.3757ZM37.5094 60.877C38.3655 60.9149 39.2177 60.7426 39.9918 60.3752L39.563 59.4718C38.9364 59.7692 38.2465 59.9086 37.5536 59.878L37.5094 60.877ZM35.0811 60.1581C35.8197 60.5924 36.6534 60.8392 37.5094 60.877L37.5536 59.878C36.8607 59.8474 36.1858 59.6476 35.5879 59.296L35.0811 60.1581ZM33.272 58.3858C33.7213 59.1154 34.3424 59.7238 35.0811 60.1581L35.5879 59.296C34.99 58.9445 34.4872 58.452 34.1235 57.8614L33.272 58.3858ZM32.5033 55.9727C32.5588 56.8277 32.8227 57.6562 33.272 58.3858L34.1235 57.8614C33.7597 57.2708 33.5461 56.6002 33.5013 55.908L32.5033 55.9727ZM33.0249 53.3259C32.6234 54.1478 32.4436 55.0603 32.5034 55.973L33.5012 55.9077C33.4528 55.1688 33.5984 54.4302 33.9234 53.7649L33.0249 53.3259ZM34.7924 51.2876C34.0357 51.8014 33.4264 52.5041 33.0249 53.3259L33.9234 53.7649C34.2484 53.0996 34.7416 52.5308 35.3542 52.1149L34.7924 51.2876ZM37.339 50.3965C36.427 50.4666 35.5491 50.7737 34.7924 51.2876L35.3542 52.1149C35.9667 51.6989 36.6774 51.4503 37.4156 51.3936L37.339 50.3965ZM39.9918 50.8881C39.1655 50.4959 38.251 50.3264 37.339 50.3965L37.4156 51.3936C38.1539 51.3368 38.8941 51.474 39.563 51.7915L39.9918 50.8881ZM40.1336 50.9153C40.0845 50.9183 40.0356 50.9088 39.9912 50.8878L39.5637 51.7918C39.7604 51.8849 39.9774 51.9267 40.1945 51.9134L40.1336 50.9153ZM40.2715 50.8707C40.23 50.8969 40.1826 50.9123 40.1335 50.9153L40.1945 51.9134C40.4117 51.9001 40.622 51.8322 40.8059 51.7159L40.2715 50.8707ZM40.371 50.7652C40.3472 50.8082 40.313 50.8445 40.2715 50.8707L40.8059 51.7159C40.9898 51.5997 41.1414 51.4388 41.2465 51.2483L40.371 50.7652ZM40.4073 50.6248C40.4072 50.6739 40.3947 50.7222 40.371 50.7652L41.2465 51.2483C41.3516 51.0578 41.4069 50.8439 41.4073 50.6263L40.4073 50.6248ZM40.4073 42.1764V50.6255H41.4073V42.1764H40.4073ZM40.7855 41.2632C40.5433 41.5054 40.4073 41.8339 40.4073 42.1764H41.4073C41.4073 42.0991 41.438 42.025 41.4926 41.9703L40.7855 41.2632ZM41.6987 40.8849C41.3562 40.8849 41.0277 41.021 40.7855 41.2632L41.4926 41.9703C41.5473 41.9156 41.6214 41.8849 41.6987 41.8849V40.8849ZM50.9373 40.8849H41.6987V41.8849H50.9373V40.8849ZM51.0785 40.8489C51.0354 40.8726 50.987 40.885 50.9378 40.8849L50.9369 41.8849C51.1547 41.8852 51.3691 41.8303 51.56 41.7254L51.0785 40.8489ZM51.1843 40.7495C51.158 40.7911 51.1216 40.8252 51.0785 40.8489L51.56 41.7254C51.7509 41.6205 51.9122 41.469 52.0289 41.285L51.1843 40.7495ZM51.2291 40.6114C51.226 40.6605 51.2106 40.708 51.1843 40.7495L52.0289 41.285C52.1455 41.101 52.2137 40.8905 52.2272 40.673L51.2291 40.6114ZM51.2016 40.4689C51.2227 40.5133 51.2321 40.5623 51.2291 40.6114L52.2272 40.673C52.2406 40.4556 52.1988 40.2383 52.1056 40.0413L51.2016 40.4689ZM50.7001 37.9871C50.6623 38.8431 50.8346 39.6954 51.2019 40.4695L52.1053 40.0407C51.808 39.4141 51.6685 38.7242 51.6991 38.0313L50.7001 37.9871ZM51.419 35.5587C50.9848 36.2974 50.7379 37.1311 50.7001 37.9871L51.6991 38.0313C51.7298 37.3384 51.9296 36.6635 52.2811 36.0656L51.419 35.5587ZM53.1913 33.7497C52.4618 34.199 51.8533 34.8201 51.419 35.5587L52.2811 36.0656C52.6326 35.4676 53.1252 34.9649 53.7158 34.6011L53.1913 33.7497ZM55.6045 32.981C54.7494 33.0364 53.9209 33.3003 53.1913 33.7497L53.7158 34.6011C54.3063 34.2374 54.977 34.0238 55.6691 33.9789L55.6045 32.981ZM58.2512 33.5026C57.4294 33.1011 56.5168 32.9213 55.6041 32.9811L55.6695 33.9789C56.4083 33.9305 57.147 34.0761 57.8122 34.4011L58.2512 33.5026ZM60.2896 35.2701C59.7757 34.5134 59.0731 33.9041 58.2512 33.5026L57.8122 34.4011C58.4775 34.7261 59.0463 35.2193 59.4623 35.8319L60.2896 35.2701ZM61.1806 37.8167C61.1106 36.9047 60.8034 36.0268 60.2896 35.2701L59.4623 35.8319C59.8782 36.4444 60.1269 37.155 60.1836 37.8933L61.1806 37.8167ZM60.689 40.4695C61.0812 39.6432 61.2507 38.7287 61.1806 37.8167L60.1836 37.8933C60.2403 38.6315 60.1031 39.3718 59.7856 40.0407L60.689 40.4695ZM60.6619 40.6114C60.6588 40.5623 60.6683 40.5133 60.6893 40.4688L59.7853 40.0413C59.6922 40.2383 59.6503 40.4556 59.6638 40.673L60.6619 40.6114ZM60.7066 40.7495C60.6803 40.708 60.6649 40.6605 60.6619 40.6114L59.6638 40.673C59.6772 40.8905 59.7454 41.101 59.8621 41.285L60.7066 40.7495ZM60.8125 40.8489C60.7694 40.8252 60.7329 40.791 60.7066 40.7495L59.862 41.285C59.9787 41.469 60.14 41.6205 60.3309 41.7254L60.8125 40.8489ZM60.9531 40.8849C60.9039 40.885 60.8555 40.8726 60.8125 40.8489L60.3309 41.7254C60.5219 41.8303 60.7362 41.8852 60.9541 41.8849L60.9531 40.8849ZM70.1922 40.8849H60.9536V41.8849H70.1922V40.8849ZM71.1054 41.2632C70.8632 41.021 70.5347 40.8849 70.1922 40.8849V41.8849C70.2695 41.8849 70.3436 41.9156 70.3983 41.9703L71.1054 41.2632ZM71.4837 42.1764C71.4837 41.8339 71.3476 41.5054 71.1054 41.2632L70.3983 41.9703C70.453 42.025 70.4837 42.0991 70.4837 42.1764H71.4837ZM71.4837 49.4977V42.1764H70.4837V49.4977H71.4837ZM68.9742 49.8105C69.6078 49.7666 70.2444 49.8245 70.8597 49.982L71.1077 49.0133C70.3889 48.8292 69.6453 48.7616 68.9051 48.8129L68.9742 49.8105ZM66.684 50.4871C67.3942 50.1051 68.1759 49.8746 68.9797 49.8101L68.8996 48.8133C67.958 48.8889 67.0423 49.1589 66.2104 49.6064L66.684 50.4871ZM64.8537 52.0292C65.3506 51.3942 65.9739 50.8691 66.684 50.4871L66.2104 49.6064C65.3784 50.0539 64.6483 50.669 64.0661 51.4129L64.8537 52.0292ZM63.7969 54.1766C63.9969 53.3955 64.3567 52.6643 64.8537 52.0292L64.0661 51.4129C63.484 52.1569 63.0624 53.0135 62.8281 53.9286L63.7969 54.1766ZM63.6916 56.5677C63.561 55.772 63.5968 54.9578 63.7969 54.1766L62.8281 53.9286C62.5938 54.8437 62.5518 55.7975 62.7048 56.7297L63.6916 56.5677ZM64.5556 58.7997C64.1164 58.1235 63.8222 57.3635 63.6916 56.5677L62.7048 56.7297C62.8578 57.6619 63.2024 58.5522 63.717 59.3444L64.5556 58.7997ZM66.2434 60.4967C65.5695 60.0538 64.9948 59.476 64.5556 58.7997L63.717 59.3444C64.2315 60.1366 64.9047 60.8136 65.6942 61.3324L66.2434 60.4967ZM68.4707 61.3729C67.6757 61.238 66.9173 60.9396 66.2434 60.4967L65.6942 61.3324C66.4836 61.8512 67.372 62.2007 68.3033 62.3588L68.4707 61.3729ZM70.8623 61.2806C70.08 61.4764 69.2657 61.5078 68.4707 61.3729L68.3033 62.3588C69.2347 62.5168 70.1887 62.48 71.1051 62.2507L70.8623 61.2806ZM71.4837 69.0869V61.7657H70.4837V69.0869H71.4837ZM44.8774 43.9064C44.1871 43.9064 43.6274 44.466 43.6274 45.1564H44.6274C44.6274 45.0183 44.7394 44.9064 44.8774 44.9064V43.9064ZM50.4178 43.9064H44.8774V44.9064H50.4178V43.9064ZM51.6678 45.1564C51.6678 44.466 51.1082 43.9064 50.4178 43.9064V44.9064C50.5559 44.9064 50.6678 45.0183 50.6678 45.1564H51.6678ZM50.4178 46.4064C51.1082 46.4064 51.6678 45.8467 51.6678 45.1564H50.6678C50.6678 45.2944 50.5559 45.4064 50.4178 45.4064V46.4064ZM45.6274 46.4064H50.4178V45.4064H45.6274V46.4064ZM46.1274 50.6968V45.9064H45.1274V50.6968H46.1274ZM44.8774 51.9468C45.5678 51.9468 46.1274 51.3871 46.1274 50.6968H45.1274C45.1274 50.8348 45.0155 50.9468 44.8774 50.9468V51.9468ZM43.6274 50.6968C43.6274 51.3871 44.1871 51.9468 44.8774 51.9468V50.9468C44.7394 50.9468 44.6274 50.8348 44.6274 50.6968H43.6274ZM43.6274 45.1564V50.6968H44.6274V45.1564H43.6274ZM56.2077 56.2374C56.2077 56.3755 56.0958 56.4874 55.9577 56.4874V57.4874C56.6481 57.4874 57.2077 56.9278 57.2077 56.2374H56.2077ZM56.2077 50.697V56.2374H57.2077V50.697H56.2077ZM55.9577 50.447C56.0958 50.447 56.2077 50.559 56.2077 50.697H57.2077C57.2077 50.0067 56.6481 49.447 55.9577 49.447V50.447ZM55.7077 50.697C55.7077 50.559 55.8196 50.447 55.9577 50.447V49.447C55.2673 49.447 54.7077 50.0067 54.7077 50.697H55.7077ZM55.7077 55.4874V50.697H54.7077V55.4874H55.7077ZM50.4173 55.9874H55.2077V54.9874H50.4173V55.9874ZM50.1673 56.2374C50.1673 56.0993 50.2792 55.9874 50.4173 55.9874V54.9874C49.7269 54.9874 49.1673 55.5471 49.1673 56.2374H50.1673ZM50.4173 56.4874C50.2792 56.4874 50.1673 56.3755 50.1673 56.2374H49.1673C49.1673 56.9278 49.7269 57.4874 50.4173 57.4874V56.4874ZM55.9577 56.4874H50.4173V57.4874H55.9577V56.4874ZM29.0539 65.7352C29.0539 64.9727 28.4357 64.3545 27.6732 64.3545V65.3545C27.8834 65.3545 28.0539 65.525 28.0539 65.7352H29.0539ZM29.0539 68.9012V65.7352H28.0539V68.9012H29.0539ZM27.6732 70.2819C28.4357 70.2819 29.0539 69.6637 29.0539 68.9012H28.0539C28.0539 69.1114 27.8834 69.2819 27.6732 69.2819V70.2819ZM26.2925 68.9012C26.2925 69.6637 26.9106 70.2819 27.6732 70.2819V69.2819C27.4629 69.2819 27.2925 69.1114 27.2925 68.9012H26.2925ZM26.2925 65.7352V68.9012H27.2925V65.7352H26.2925ZM27.6732 64.3545C26.9106 64.3545 26.2925 64.9727 26.2925 65.7352H27.2925C27.2925 65.525 27.4629 65.3545 27.6732 65.3545V64.3545ZM29.054 73.8479C29.054 73.0854 28.4359 72.4672 27.6733 72.4672V73.4672C27.8836 73.4672 28.054 73.6377 28.054 73.8479H29.054ZM29.054 77.0139V73.8479H28.054V77.0139H29.054ZM27.6733 78.3946C28.4359 78.3946 29.054 77.7764 29.054 77.0139H28.054C28.054 77.2241 27.8836 77.3946 27.6733 77.3946V78.3946ZM26.2926 77.0139C26.2926 77.7764 26.9108 78.3946 27.6733 78.3946V77.3946C27.4631 77.3946 27.2926 77.2241 27.2926 77.0139H26.2926ZM26.2926 73.8479V77.0139H27.2926V73.8479H26.2926ZM27.6733 72.4672C26.9108 72.4672 26.2926 73.0854 26.2926 73.8479H27.2926C27.2926 73.6377 27.4631 73.4672 27.6733 73.4672V72.4672ZM29.8643 71.4735C29.8643 71.2632 30.0347 71.0928 30.245 71.0928V70.0928C29.4824 70.0928 28.8643 70.711 28.8643 71.4735H29.8643ZM30.245 71.8542C30.0347 71.8542 29.8643 71.6838 29.8643 71.4735H28.8643C28.8643 72.236 29.4824 72.8542 30.245 72.8542V71.8542ZM33.4109 71.8542H30.245V72.8542H33.4109V71.8542ZM33.7916 71.4735C33.7916 71.6838 33.6212 71.8542 33.4109 71.8542V72.8542C34.1734 72.8542 34.7916 72.236 34.7916 71.4735H33.7916ZM33.4109 71.0928C33.6212 71.0928 33.7916 71.2632 33.7916 71.4735H34.7916C34.7916 70.711 34.1734 70.0928 33.4109 70.0928V71.0928ZM30.245 71.0928H33.4109V70.0928H30.245V71.0928ZM21.9344 70.0928C21.1719 70.0928 20.5537 70.711 20.5537 71.4735H21.5537C21.5537 71.2632 21.7242 71.0928 21.9344 71.0928V70.0928ZM25.1003 70.0928H21.9344V71.0928H25.1003V70.0928ZM26.481 71.4735C26.481 70.711 25.8629 70.0928 25.1003 70.0928V71.0928C25.3106 71.0928 25.481 71.2632 25.481 71.4735H26.481ZM25.1003 72.8542C25.8629 72.8542 26.481 72.236 26.481 71.4735H25.481C25.481 71.6838 25.3106 71.8542 25.1003 71.8542V72.8542ZM21.9344 72.8542H25.1003V71.8542H21.9344V72.8542ZM20.5537 71.4735C20.5537 72.236 21.1719 72.8542 21.9344 72.8542V71.8542C21.7242 71.8542 21.5537 71.6838 21.5537 71.4735H20.5537Z" fill="#585858"/>
</svg>
