<svg width="110" height="110" viewBox="0 0 110 110" fill="none" xmlns="http://www.w3.org/2000/svg">
<rect width="110" height="110" rx="18" fill="#DBDBDB"/>
<path fill-rule="evenodd" clip-rule="evenodd" d="M55.5 31.0282C57.1627 31.0282 58.5106 29.6803 58.5106 28.0176C58.5106 26.3549 57.1627 25.007 55.5 25.007C53.8373 25.007 52.4894 26.3549 52.4894 28.0176C52.4894 29.6803 53.8373 31.0282 55.5 31.0282ZM78.9824 44.6761C80.6451 44.6761 81.993 43.3282 81.993 41.6655C81.993 40.0028 80.6451 38.6549 78.9824 38.6549C77.3197 38.6549 75.9718 40.0028 75.9718 41.6655C75.9718 43.3282 77.3197 44.6761 78.9824 44.6761ZM78.9824 71.7711C80.6451 71.7711 81.993 70.4232 81.993 68.7606C81.993 67.0979 80.6451 65.75 78.9824 65.75C77.3197 65.75 75.9718 67.0979 75.9718 68.7606C75.9718 70.4232 77.3197 71.7711 78.9824 71.7711ZM55.5 85.2183C57.1627 85.2183 58.5106 83.8704 58.5106 82.2077C58.5106 80.5451 57.1627 79.1972 55.5 79.1972C53.8373 79.1972 52.4894 80.5451 52.4894 82.2077C52.4894 83.8704 53.8373 85.2183 55.5 85.2183ZM32.0176 71.7711C33.6803 71.7711 35.0282 70.4232 35.0282 68.7606C35.0282 67.0979 33.6803 65.75 32.0176 65.75C30.3549 65.75 29.007 67.0979 29.007 68.7606C29.007 70.4232 30.3549 71.7711 32.0176 71.7711ZM32.0176 44.6761C33.6803 44.6761 35.0282 43.3282 35.0282 41.6655C35.0282 40.0028 33.6803 38.6549 32.0176 38.6549C30.3549 38.6549 29.007 40.0028 29.007 41.6655C29.007 43.3282 30.3549 44.6761 32.0176 44.6761ZM60.4959 28.4876C60.5103 28.3329 60.5176 28.1761 60.5176 28.0176C60.5176 25.2465 58.2711 23 55.5 23C52.7289 23 50.4824 25.2465 50.4824 28.0176C50.4824 28.1566 50.488 28.2942 50.4991 28.4304L35.3788 37.94C34.4892 37.1369 33.3105 36.6479 32.0176 36.6479C29.2465 36.6479 27 38.8943 27 41.6655C27 44.0215 28.6238 45.9983 30.8134 46.5377V63.8884C28.6238 64.4278 27 66.4045 27 68.7606C27 71.5317 29.2465 73.7782 32.0176 73.7782C33.3093 73.7782 34.4871 73.2901 35.3764 72.4882L50.4839 82.0848C50.4829 82.1256 50.4824 82.1666 50.4824 82.2077C50.4824 84.9789 52.7289 87.2253 55.5 87.2253C58.2711 87.2253 60.5176 84.9789 60.5176 82.2077C60.5176 82.1466 60.5165 82.0857 60.5143 82.025L75.662 72.5225C76.5467 73.3039 77.7092 73.7782 78.9824 73.7782C81.7535 73.7782 84 71.5317 84 68.7606C84 66.3687 82.3264 64.3677 80.0863 63.8648V46.5613C82.3264 46.0584 84 44.0574 84 41.6655C84 38.8943 81.7535 36.6479 78.9824 36.6479C77.7079 36.6479 76.5444 37.1231 75.6594 37.9059L60.4959 28.4876ZM59.8798 30.4676C59.0209 31.9998 57.3814 33.0352 55.5 33.0352C53.6014 33.0352 51.9491 31.9807 51.0968 30.4255L36.5733 39.5598C36.8698 40.2001 37.0352 40.9135 37.0352 41.6655C37.0352 44.1634 35.2099 46.235 32.8204 46.6192V63.8068C35.2099 64.1911 37.0352 66.2627 37.0352 68.7606C37.0352 69.5139 36.8692 70.2285 36.5717 70.8697L50.9816 80.0232C51.7938 78.3464 53.5119 77.1901 55.5 77.1901C57.4711 77.1901 59.1767 78.3267 59.9973 79.9801L74.4491 70.9141C74.1386 70.2615 73.9648 69.5313 73.9648 68.7606C73.9648 66.2978 75.7391 64.2494 78.0792 63.824V46.602C75.7391 46.1767 73.9648 44.1283 73.9648 41.6655C73.9648 40.8962 74.1379 40.1674 74.4473 39.5158L59.8798 30.4676ZM54.9856 38.7968C55.3024 38.6076 55.6976 38.6076 56.0144 38.7968L69.4616 46.825C69.7649 47.0061 69.9507 47.3333 69.9507 47.6866V62.8398C69.9507 63.2011 69.7565 63.5345 69.4423 63.7127L55.9951 71.3394C55.688 71.5136 55.312 71.5136 55.0049 71.3394L41.5577 63.7127C41.2435 63.5345 41.0493 63.2011 41.0493 62.8398V47.6866C41.0493 47.3333 41.2351 47.0061 41.5384 46.825L54.9856 38.7968ZM43.0563 49.365L54.4965 55.512V68.7437L43.0563 62.2553V49.365ZM56.5035 68.7437L67.9437 62.2553V49.365L56.5035 55.512V68.7437ZM55.5 53.7728L66.9125 47.6407L55.5 40.8272L44.0875 47.6407L55.5 53.7728Z" fill="#585858"/>
<path d="M60.4959 28.4876L59.998 28.4414C59.9805 28.63 60.0711 28.8124 60.2321 28.9124L60.4959 28.4876ZM50.4991 28.4304L50.7653 28.8536C50.9231 28.7544 51.0126 28.5756 50.9975 28.3898L50.4991 28.4304ZM35.3788 37.94L35.0437 38.3111C35.2099 38.4612 35.4555 38.4824 35.645 38.3633L35.3788 37.94ZM30.8134 46.5377H31.3134C31.3134 46.3076 31.1564 46.1072 30.933 46.0522L30.8134 46.5377ZM30.8134 63.8884L30.933 64.3739C31.1564 64.3188 31.3134 64.1185 31.3134 63.8884H30.8134ZM35.3764 72.4882L35.6445 72.0662C35.4549 71.9457 35.2084 71.9665 35.0416 72.1169L35.3764 72.4882ZM50.4839 82.0848L50.9837 82.0968C50.9879 81.9215 50.9 81.7568 50.752 81.6627L50.4839 82.0848ZM60.5143 82.025L60.2486 81.6015C60.0974 81.6963 60.0083 81.8646 60.0147 82.0429L60.5143 82.025ZM75.662 72.5225L75.993 72.1477C75.8269 72.001 75.584 71.9811 75.3963 72.0989L75.662 72.5225ZM80.0863 63.8648H79.5863C79.5863 64.0987 79.7485 64.3014 79.9767 64.3526L80.0863 63.8648ZM80.0863 46.5613L79.9767 46.0734C79.7485 46.1247 79.5863 46.3273 79.5863 46.5613H80.0863ZM75.6594 37.9059L75.3955 38.3307C75.5832 38.4472 75.8251 38.4268 75.9906 38.2804L75.6594 37.9059ZM59.8798 30.4676L60.1436 30.0429C60.0277 29.9709 59.8873 29.9494 59.7551 29.9834C59.6229 30.0175 59.5104 30.1041 59.4437 30.2231L59.8798 30.4676ZM51.0968 30.4255L51.5353 30.1852C51.4691 30.0643 51.3559 29.9761 51.2225 29.9415C51.0891 29.9069 50.9473 29.9288 50.8306 30.0022L51.0968 30.4255ZM36.5733 39.5598L36.3071 39.1365C36.0942 39.2704 36.0139 39.5416 36.1196 39.7698L36.5733 39.5598ZM32.8204 46.6192L32.741 46.1256C32.4987 46.1645 32.3204 46.3737 32.3204 46.6192H32.8204ZM32.8204 63.8068H32.3204C32.3204 64.0523 32.4987 64.2615 32.741 64.3005L32.8204 63.8068ZM36.5717 70.8697L36.1181 70.6593C36.0126 70.8868 36.0919 71.1573 36.3036 71.2918L36.5717 70.8697ZM50.9816 80.0232L50.7135 80.4453C50.8339 80.5217 50.9812 80.5432 51.1183 80.5042C51.2555 80.4652 51.3695 80.3695 51.4316 80.2412L50.9816 80.0232ZM59.9973 79.9801L59.5494 80.2024C59.6122 80.3289 59.7256 80.423 59.8615 80.4614C59.9975 80.4997 60.1433 80.4788 60.263 80.4037L59.9973 79.9801ZM74.4491 70.9141L74.7148 71.3376C74.9298 71.2028 75.0096 70.9283 74.9006 70.6992L74.4491 70.9141ZM78.0792 63.824L78.1686 64.316C78.4064 64.2727 78.5792 64.0657 78.5792 63.824H78.0792ZM78.0792 46.602H78.5792C78.5792 46.3604 78.4064 46.1533 78.1686 46.1101L78.0792 46.602ZM74.4473 39.5158L74.899 39.7303C75.0081 39.5004 74.9273 39.2253 74.7111 39.0911L74.4473 39.5158ZM56.0144 38.7968L55.7581 39.2261V39.2261L56.0144 38.7968ZM54.9856 38.7968L55.2419 39.2261V39.2261L54.9856 38.7968ZM69.4616 46.825L69.7179 46.3957V46.3957L69.4616 46.825ZM69.4423 63.7127L69.6889 64.1476H69.6889L69.4423 63.7127ZM55.9951 71.3394L55.7484 70.9045H55.7484L55.9951 71.3394ZM55.0049 71.3394L55.2516 70.9045H55.2516L55.0049 71.3394ZM41.5577 63.7127L41.3111 64.1476H41.3111L41.5577 63.7127ZM41.5384 46.825L41.2821 46.3957L41.2821 46.3957L41.5384 46.825ZM54.4965 55.512H54.9965C54.9965 55.3279 54.8953 55.1587 54.7331 55.0715L54.4965 55.512ZM43.0563 49.365L43.293 48.9246C43.138 48.8413 42.9507 48.8456 42.7998 48.9359C42.6488 49.0262 42.5563 49.1891 42.5563 49.365H43.0563ZM54.4965 68.7437L54.2498 69.1786C54.4046 69.2664 54.5944 69.2653 54.7481 69.1757C54.9019 69.0862 54.9965 68.9216 54.9965 68.7437H54.4965ZM43.0563 62.2553H42.5563C42.5563 62.4353 42.6531 62.6014 42.8097 62.6902L43.0563 62.2553ZM67.9437 62.2553L68.1903 62.6902C68.3469 62.6014 68.4437 62.4353 68.4437 62.2553H67.9437ZM56.5035 68.7437H56.0035C56.0035 68.9216 56.0981 69.0862 56.2519 69.1757C56.4056 69.2653 56.5954 69.2664 56.7502 69.1786L56.5035 68.7437ZM67.9437 49.365H68.4437C68.4437 49.1891 68.3512 49.0262 68.2002 48.9359C68.0493 48.8456 67.862 48.8413 67.707 48.9246L67.9437 49.365ZM56.5035 55.512L56.2669 55.0715C56.1047 55.1587 56.0035 55.3279 56.0035 55.512H56.5035ZM66.9125 47.6407L67.1492 48.0811C67.3078 47.9959 67.4083 47.832 67.4124 47.652C67.4165 47.4719 67.3234 47.3036 67.1688 47.2113L66.9125 47.6407ZM55.5 53.7728L55.2633 54.2132C55.4111 54.2926 55.5889 54.2926 55.7367 54.2132L55.5 53.7728ZM55.5 40.8272L55.7563 40.3979C55.5984 40.3036 55.4016 40.3036 55.2437 40.3979L55.5 40.8272ZM44.0875 47.6407L43.8312 47.2113C43.6766 47.3036 43.5835 47.4719 43.5876 47.652C43.5917 47.832 43.6922 47.9959 43.8508 48.0811L44.0875 47.6407ZM58.0106 28.0176C58.0106 29.4042 56.8865 30.5282 55.5 30.5282V31.5282C57.4388 31.5282 59.0106 29.9564 59.0106 28.0176H58.0106ZM55.5 25.507C56.8865 25.507 58.0106 26.6311 58.0106 28.0176H59.0106C59.0106 26.0788 57.4388 24.507 55.5 24.507V25.507ZM52.9894 28.0176C52.9894 26.6311 54.1135 25.507 55.5 25.507V24.507C53.5612 24.507 51.9894 26.0788 51.9894 28.0176H52.9894ZM55.5 30.5282C54.1135 30.5282 52.9894 29.4042 52.9894 28.0176H51.9894C51.9894 29.9564 53.5612 31.5282 55.5 31.5282V30.5282ZM81.493 41.6655C81.493 43.052 80.3689 44.1761 78.9824 44.1761V45.1761C80.9212 45.1761 82.493 43.6043 82.493 41.6655H81.493ZM78.9824 39.1549C80.3689 39.1549 81.493 40.2789 81.493 41.6655H82.493C82.493 39.7267 80.9212 38.1549 78.9824 38.1549V39.1549ZM76.4718 41.6655C76.4718 40.2789 77.5958 39.1549 78.9824 39.1549V38.1549C77.0436 38.1549 75.4718 39.7267 75.4718 41.6655H76.4718ZM78.9824 44.1761C77.5958 44.1761 76.4718 43.052 76.4718 41.6655H75.4718C75.4718 43.6043 77.0436 45.1761 78.9824 45.1761V44.1761ZM81.493 68.7606C81.493 70.1471 80.3689 71.2711 78.9824 71.2711V72.2711C80.9212 72.2711 82.493 70.6994 82.493 68.7606H81.493ZM78.9824 66.25C80.3689 66.25 81.493 67.374 81.493 68.7606H82.493C82.493 66.8217 80.9212 65.25 78.9824 65.25V66.25ZM76.4718 68.7606C76.4718 67.374 77.5958 66.25 78.9824 66.25V65.25C77.0436 65.25 75.4718 66.8217 75.4718 68.7606H76.4718ZM78.9824 71.2711C77.5958 71.2711 76.4718 70.1471 76.4718 68.7606H75.4718C75.4718 70.6994 77.0436 72.2711 78.9824 72.2711V71.2711ZM58.0106 82.2077C58.0106 83.5943 56.8865 84.7183 55.5 84.7183V85.7183C57.4388 85.7183 59.0106 84.1466 59.0106 82.2077H58.0106ZM55.5 79.6972C56.8865 79.6972 58.0106 80.8212 58.0106 82.2077H59.0106C59.0106 80.2689 57.4388 78.6972 55.5 78.6972V79.6972ZM52.9894 82.2077C52.9894 80.8212 54.1135 79.6972 55.5 79.6972V78.6972C53.5612 78.6972 51.9894 80.2689 51.9894 82.2077H52.9894ZM55.5 84.7183C54.1135 84.7183 52.9894 83.5943 52.9894 82.2077H51.9894C51.9894 84.1466 53.5612 85.7183 55.5 85.7183V84.7183ZM34.5282 68.7606C34.5282 70.1471 33.4042 71.2711 32.0176 71.2711V72.2711C33.9564 72.2711 35.5282 70.6994 35.5282 68.7606H34.5282ZM32.0176 66.25C33.4042 66.25 34.5282 67.374 34.5282 68.7606H35.5282C35.5282 66.8217 33.9564 65.25 32.0176 65.25V66.25ZM29.507 68.7606C29.507 67.374 30.6311 66.25 32.0176 66.25V65.25C30.0788 65.25 28.507 66.8217 28.507 68.7606H29.507ZM32.0176 71.2711C30.6311 71.2711 29.507 70.1471 29.507 68.7606H28.507C28.507 70.6994 30.0788 72.2711 32.0176 72.2711V71.2711ZM34.5282 41.6655C34.5282 43.052 33.4042 44.1761 32.0176 44.1761V45.1761C33.9564 45.1761 35.5282 43.6043 35.5282 41.6655H34.5282ZM32.0176 39.1549C33.4042 39.1549 34.5282 40.2789 34.5282 41.6655H35.5282C35.5282 39.7267 33.9564 38.1549 32.0176 38.1549V39.1549ZM29.507 41.6655C29.507 40.2789 30.6311 39.1549 32.0176 39.1549V38.1549C30.0788 38.1549 28.507 39.7267 28.507 41.6655H29.507ZM32.0176 44.1761C30.6311 44.1761 29.507 43.052 29.507 41.6655H28.507C28.507 43.6043 30.0788 45.1761 32.0176 45.1761V44.1761ZM60.0176 28.0176C60.0176 28.1606 60.011 28.302 59.998 28.4414L60.9937 28.5339C61.0095 28.3638 61.0176 28.1916 61.0176 28.0176H60.0176ZM55.5 23.5C57.995 23.5 60.0176 25.5226 60.0176 28.0176H61.0176C61.0176 24.9703 58.5473 22.5 55.5 22.5V23.5ZM50.9824 28.0176C50.9824 25.5226 53.005 23.5 55.5 23.5V22.5C52.4527 22.5 49.9824 24.9703 49.9824 28.0176H50.9824ZM50.9975 28.3898C50.9875 28.2672 50.9824 28.143 50.9824 28.0176H49.9824C49.9824 28.1701 49.9886 28.3213 50.0008 28.471L50.9975 28.3898ZM35.645 38.3633L50.7653 28.8536L50.2329 28.0071L35.1126 37.5168L35.645 38.3633ZM32.0176 37.1479C33.182 37.1479 34.2424 37.5877 35.0437 38.3111L35.7139 37.5689C34.7359 36.686 33.439 36.1479 32.0176 36.1479V37.1479ZM27.5 41.6655C27.5 39.1705 29.5226 37.1479 32.0176 37.1479V36.1479C28.9703 36.1479 26.5 38.6182 26.5 41.6655H27.5ZM30.933 46.0522C28.9616 45.5665 27.5 43.7861 27.5 41.6655H26.5C26.5 44.257 28.2861 46.43 30.6938 47.0231L30.933 46.0522ZM31.3134 63.8884V46.5377H30.3134V63.8884H31.3134ZM30.6938 63.4029C28.2861 63.996 26.5 66.1691 26.5 68.7606H27.5C27.5 66.64 28.9616 64.8595 30.933 64.3739L30.6938 63.4029ZM26.5 68.7606C26.5 71.8078 28.9703 74.2782 32.0176 74.2782V73.2782C29.5226 73.2782 27.5 71.2556 27.5 68.7606H26.5ZM32.0176 74.2782C33.4377 74.2782 34.7336 73.741 35.7112 72.8595L35.0416 72.1169C34.2405 72.8391 33.1809 73.2782 32.0176 73.2782V74.2782ZM50.752 81.6627L35.6445 72.0662L35.1083 72.9103L50.2158 82.5068L50.752 81.6627ZM50.9824 82.2077C50.9824 82.1707 50.9828 82.1337 50.9837 82.0968L49.984 82.0728C49.9829 82.1176 49.9824 82.1626 49.9824 82.2077H50.9824ZM55.5 86.7253C53.005 86.7253 50.9824 84.7027 50.9824 82.2077H49.9824C49.9824 85.255 52.4527 87.7253 55.5 87.7253V86.7253ZM60.0176 82.2077C60.0176 84.7027 57.995 86.7253 55.5 86.7253V87.7253C58.5473 87.7253 61.0176 85.255 61.0176 82.2077H60.0176ZM60.0147 82.0429C60.0166 82.0976 60.0176 82.1525 60.0176 82.2077H61.0176C61.0176 82.1406 61.0164 82.0737 61.014 82.0071L60.0147 82.0429ZM75.3963 72.0989L60.2486 81.6015L60.78 82.4486L75.9277 72.946L75.3963 72.0989ZM75.331 72.8972C76.3035 73.7563 77.5826 74.2782 78.9824 74.2782V73.2782C77.8357 73.2782 76.7899 72.8516 75.993 72.1477L75.331 72.8972ZM78.9824 74.2782C82.0297 74.2782 84.5 71.8078 84.5 68.7606H83.5C83.5 71.2556 81.4774 73.2782 78.9824 73.2782V74.2782ZM84.5 68.7606C84.5 66.1297 82.6592 63.93 80.1958 63.3769L79.9767 64.3526C81.9935 64.8054 83.5 66.6076 83.5 68.7606H84.5ZM79.5863 46.5613V63.8648H80.5863V46.5613H79.5863ZM83.5 41.6655C83.5 43.8184 81.9935 45.6206 79.9767 46.0734L80.1958 47.0491C82.6592 46.4961 84.5 44.2964 84.5 41.6655H83.5ZM78.9824 37.1479C81.4774 37.1479 83.5 39.1705 83.5 41.6655H84.5C84.5 38.6182 82.0297 36.1479 78.9824 36.1479V37.1479ZM75.9906 38.2804C76.7878 37.5753 77.8346 37.1479 78.9824 37.1479V36.1479C77.5812 36.1479 76.301 36.6708 75.3281 37.5314L75.9906 38.2804ZM60.2321 28.9124L75.3955 38.3307L75.9232 37.4812L60.7597 28.0629L60.2321 28.9124ZM59.4437 30.2231C58.6696 31.6039 57.1932 32.5352 55.5 32.5352V33.5352C57.5695 33.5352 59.3722 32.3956 60.3159 30.7121L59.4437 30.2231ZM55.5 32.5352C53.7913 32.5352 52.3034 31.5867 51.5353 30.1852L50.6583 30.6658C51.5949 32.3747 53.4115 33.5352 55.5 33.5352V32.5352ZM50.8306 30.0022L36.3071 39.1365L36.8395 39.983L51.363 30.8487L50.8306 30.0022ZM36.1196 39.7698C36.3862 40.3457 36.5352 40.9875 36.5352 41.6655H37.5352C37.5352 40.8394 37.3534 40.0545 37.027 39.3497L36.1196 39.7698ZM36.5352 41.6655C36.5352 43.914 34.892 45.7797 32.741 46.1256L32.8998 47.1129C35.5279 46.6903 37.5352 44.4128 37.5352 41.6655H36.5352ZM32.3204 46.6192V63.8068H33.3204V46.6192H32.3204ZM37.5352 68.7606C37.5352 66.0133 35.5279 63.7358 32.8998 63.3132L32.741 64.3005C34.892 64.6464 36.5352 66.5121 36.5352 68.7606H37.5352ZM37.0253 71.0802C37.3527 70.3744 37.5352 69.5881 37.5352 68.7606H36.5352C36.5352 69.4398 36.3856 70.0827 36.1181 70.6593L37.0253 71.0802ZM36.3036 71.2918L50.7135 80.4453L51.2497 79.6012L36.8398 70.4477L36.3036 71.2918ZM51.4316 80.2412C52.1634 78.7303 53.7107 77.6901 55.5 77.6901V76.6901C53.313 76.6901 51.4242 77.9626 50.5316 79.8053L51.4316 80.2412ZM55.5 77.6901C57.2739 77.6901 58.81 78.7125 59.5494 80.2024L60.4451 79.7579C59.5434 77.9408 57.6682 76.6901 55.5 76.6901V77.6901ZM60.263 80.4037L74.7148 71.3376L74.1834 70.4905L59.7315 79.5566L60.263 80.4037ZM73.4648 68.7606C73.4648 69.6072 73.6558 70.4107 73.9976 71.1289L74.9006 70.6992C74.6213 70.1124 74.4648 69.4554 74.4648 68.7606H73.4648ZM77.9898 63.3321C75.4162 63.7999 73.4648 66.0518 73.4648 68.7606H74.4648C74.4648 66.5437 76.0621 64.6989 78.1686 64.316L77.9898 63.3321ZM78.5792 63.824V46.602H77.5792V63.824H78.5792ZM78.1686 46.1101C76.0621 45.7272 74.4648 43.8823 74.4648 41.6655H73.4648C73.4648 44.3742 75.4162 46.6262 77.9898 47.094L78.1686 46.1101ZM74.4648 41.6655C74.4648 40.972 74.6207 40.3162 74.899 39.7303L73.9957 39.3013C73.6551 40.0185 73.4648 40.8205 73.4648 41.6655H74.4648ZM74.7111 39.0911L60.1436 30.0429L59.616 30.8924L74.1835 39.9405L74.7111 39.0911ZM56.2707 38.3675C55.796 38.0841 55.204 38.0841 54.7293 38.3675L55.2419 39.2261C55.4009 39.1312 55.5991 39.1312 55.7581 39.2261L56.2707 38.3675ZM69.7179 46.3957L56.2707 38.3675L55.7581 39.2261L69.2053 47.2543L69.7179 46.3957ZM70.4507 47.6866C70.4507 47.1573 70.1724 46.667 69.7179 46.3957L69.2053 47.2543C69.3575 47.3452 69.4507 47.5094 69.4507 47.6866H70.4507ZM70.4507 62.8398V47.6866H69.4507V62.8398H70.4507ZM69.6889 64.1476C70.1598 63.8806 70.4507 63.3811 70.4507 62.8398H69.4507C69.4507 63.0211 69.3533 63.1883 69.1956 63.2778L69.6889 64.1476ZM56.2417 71.7744L69.6889 64.1476L69.1956 63.2778L55.7484 70.9045L56.2417 71.7744ZM54.7583 71.7744C55.2183 72.0353 55.7817 72.0353 56.2417 71.7744L55.7484 70.9045C55.5943 70.9919 55.4057 70.9919 55.2516 70.9045L54.7583 71.7744ZM41.3111 64.1476L54.7583 71.7744L55.2516 70.9045L41.8044 63.2778L41.3111 64.1476ZM40.5493 62.8398C40.5493 63.3811 40.8402 63.8806 41.3111 64.1476L41.8044 63.2778C41.6467 63.1883 41.5493 63.0211 41.5493 62.8398H40.5493ZM40.5493 47.6866V62.8398H41.5493V47.6866H40.5493ZM41.2821 46.3957C40.8276 46.667 40.5493 47.1573 40.5493 47.6866H41.5493C41.5493 47.5094 41.6425 47.3452 41.7947 47.2543L41.2821 46.3957ZM54.7293 38.3675L41.2821 46.3957L41.7947 47.2543L55.2419 39.2261L54.7293 38.3675ZM54.7331 55.0715L43.293 48.9246L42.8197 49.8055L54.2598 55.9524L54.7331 55.0715ZM54.9965 68.7437V55.512H53.9965V68.7437H54.9965ZM42.8097 62.6902L54.2498 69.1786L54.7431 68.3088L43.303 61.8203L42.8097 62.6902ZM42.5563 49.365V62.2553H43.5563V49.365H42.5563ZM67.697 61.8203L56.2569 68.3088L56.7502 69.1786L68.1903 62.6902L67.697 61.8203ZM67.4437 49.365V62.2553H68.4437V49.365H67.4437ZM56.7402 55.9524L68.1803 49.8055L67.707 48.9246L56.2669 55.0715L56.7402 55.9524ZM57.0035 68.7437V55.512H56.0035V68.7437H57.0035ZM66.6759 47.2002L55.2633 53.3323L55.7367 54.2132L67.1492 48.0811L66.6759 47.2002ZM55.2437 41.2565L66.6562 48.07L67.1688 47.2113L55.7563 40.3979L55.2437 41.2565ZM44.3438 48.07L55.7563 41.2565L55.2437 40.3979L43.8312 47.2113L44.3438 48.07ZM55.7367 53.3323L44.3241 47.2002L43.8508 48.0811L55.2633 54.2132L55.7367 53.3323Z" fill="#585858"/>
</svg>
